solid protoboard002
facet normal -0.866025403784436 -0.500000000000004 0.0
outer loop
vertex 4.79903810567666 50.75 29.6517694981696
vertex 4.9488887394336 50.3882285676538 26.6517694981696
vertex 4.9488887394336 50.3882285676538 29.6517694981696
endloop
endfacet
facet normal -0.965925826289068 -0.258819045102522 0.0
outer loop
vertex 4.9488887394336 50.3882285676538 26.6517694981696
vertex 4.79903810567666 50.75 29.6517694981696
vertex 4.79903810567666 50.75 26.6517694981696
endloop
endfacet
facet normal 0.866025403784439 -0.499999999999999 0.0
outer loop
vertex 28.3009618943233 50.75 26.6517694981696
vertex 28.1511112605664 50.3882285676538 29.6517694981696
vertex 28.1511112605664 50.3882285676538 26.6517694981696
endloop
endfacet
facet normal 0.965925826289069 -0.25881904510252 0.0
outer loop
vertex 28.1511112605664 50.3882285676538 29.6517694981696
vertex 28.3009618943233 50.75 26.6517694981696
vertex 28.3009618943233 50.75 29.6517694981696
endloop
endfacet
facet normal 1.0 -9.53488758834218e-16 0.0
outer loop
vertex 28.1 50.0 26.6517694981696
vertex 28.1511112605664 49.6117714323462 29.6517694981696
vertex 28.1511112605664 49.6117714323462 26.6517694981696
endloop
endfacet
facet normal 0.965925826289068 0.258819045102521 0.0
outer loop
vertex 28.1511112605664 49.6117714323462 29.6517694981696
vertex 28.1 50.0 26.6517694981696
vertex 28.1 50.0 29.6517694981696
endloop
endfacet
facet normal 0.965925826289068 0.258819045102521 0.0
outer loop
vertex 28.1511112605664 49.6117714323462 26.6517694981696
vertex 28.3009618943233 49.25 29.6517694981696
vertex 28.3009618943233 49.25 26.6517694981696
endloop
endfacet
facet normal 0.86602540378444 0.499999999999997 0.0
outer loop
vertex 28.3009618943233 49.25 29.6517694981696
vertex 28.1511112605664 49.6117714323462 26.6517694981696
vertex 28.1511112605664 49.6117714323462 29.6517694981696
endloop
endfacet
facet normal 0.86602540378444 0.499999999999997 0.0
outer loop
vertex 28.3009618943233 49.25 26.6517694981696
vertex 28.5393398282202 48.9393398282202 29.6517694981696
vertex 28.5393398282202 48.9393398282202 26.6517694981696
endloop
endfacet
facet normal 0.707106781186548 0.707106781186548 0.0
outer loop
vertex 28.5393398282202 48.9393398282202 29.6517694981696
vertex 28.3009618943233 49.25 26.6517694981696
vertex 28.3009618943233 49.25 29.6517694981696
endloop
endfacet
facet normal 0.707106781186548 0.707106781186548 0.0
outer loop
vertex 28.5393398282202 48.9393398282202 29.6517694981696
vertex 28.85 48.7009618943233 26.6517694981696
vertex 28.5393398282202 48.9393398282202 26.6517694981696
endloop
endfacet
facet normal 0.499999999999995 0.866025403784442 0.0
outer loop
vertex 28.85 48.7009618943233 26.6517694981696
vertex 28.5393398282202 48.9393398282202 29.6517694981696
vertex 28.85 48.7009618943233 29.6517694981696
endloop
endfacet
facet normal 0.499999999999995 0.866025403784442 0.0
outer loop
vertex 28.85 48.7009618943233 29.6517694981696
vertex 29.2117714323462 48.5511112605664 26.6517694981696
vertex 28.85 48.7009618943233 26.6517694981696
endloop
endfacet
facet normal 0.258819045102526 0.965925826289067 0.0
outer loop
vertex 29.2117714323462 48.5511112605664 26.6517694981696
vertex 28.85 48.7009618943233 29.6517694981696
vertex 29.2117714323462 48.5511112605664 29.6517694981696
endloop
endfacet
facet normal 9.35666539042926e-16 1.0 0.0
outer loop
vertex 29.6 48.5 29.6517694981696
vertex 29.9882285676538 48.5511112605664 26.6517694981696
vertex 29.6 48.5 26.6517694981696
endloop
endfacet
facet normal -0.258819045102528 0.965925826289066 0.0
outer loop
vertex 29.9882285676538 48.5511112605664 26.6517694981696
vertex 29.6 48.5 29.6517694981696
vertex 29.9882285676538 48.5511112605664 29.6517694981696
endloop
endfacet
facet normal -0.258819045102528 0.965925826289066 0.0
outer loop
vertex 29.9882285676538 48.5511112605664 29.6517694981696
vertex 30.35 48.7009618943233 26.6517694981696
vertex 29.9882285676538 48.5511112605664 26.6517694981696
endloop
endfacet
facet normal -0.500000000000002 0.866025403784437 0.0
outer loop
vertex 30.35 48.7009618943233 26.6517694981696
vertex 29.9882285676538 48.5511112605664 29.6517694981696
vertex 30.35 48.7009618943233 29.6517694981696
endloop
endfacet
facet normal 0.258819045102526 0.965925826289067 0.0
outer loop
vertex 29.2117714323462 48.5511112605664 29.6517694981696
vertex 29.6 48.5 26.6517694981696
vertex 29.2117714323462 48.5511112605664 26.6517694981696
endloop
endfacet
facet normal 9.35666539042926e-16 1.0 0.0
outer loop
vertex 29.6 48.5 26.6517694981696
vertex 29.2117714323462 48.5511112605664 29.6517694981696
vertex 29.6 48.5 29.6517694981696
endloop
endfacet
facet normal -0.707106781186549 -0.707106781186547 0.0
outer loop
vertex 30.6606601717798 51.0606601717798 29.6517694981696
vertex 30.8990381056767 50.75 26.6517694981696
vertex 30.8990381056767 50.75 29.6517694981696
endloop
endfacet
facet normal -0.866025403784438 -0.500000000000001 0.0
outer loop
vertex 30.8990381056767 50.75 26.6517694981696
vertex 30.6606601717798 51.0606601717798 29.6517694981696
vertex 30.6606601717798 51.0606601717798 26.6517694981696
endloop
endfacet
facet normal -0.866025403784438 -0.500000000000001 0.0
outer loop
vertex 30.8990381056767 50.75 29.6517694981696
vertex 31.0488887394336 50.3882285676538 26.6517694981696
vertex 31.0488887394336 50.3882285676538 29.6517694981696
endloop
endfacet
facet normal -0.965925826289068 -0.258819045102521 0.0
outer loop
vertex 31.0488887394336 50.3882285676538 26.6517694981696
vertex 30.8990381056767 50.75 29.6517694981696
vertex 30.8990381056767 50.75 26.6517694981696
endloop
endfacet
facet normal 0.965925826289069 -0.25881904510252 0.0
outer loop
vertex 28.1511112605664 50.3882285676538 26.6517694981696
vertex 28.1 50.0 29.6517694981696
vertex 28.1 50.0 26.6517694981696
endloop
endfacet
facet normal 1.0 -9.53488758834218e-16 0.0
outer loop
vertex 28.1 50.0 29.6517694981696
vertex 28.1511112605664 50.3882285676538 26.6517694981696
vertex 28.1511112605664 50.3882285676538 29.6517694981696
endloop
endfacet
facet normal -0.500000000000002 0.866025403784437 0.0
outer loop
vertex 30.35 48.7009618943233 29.6517694981696
vertex 30.6606601717798 48.9393398282202 26.6517694981696
vertex 30.35 48.7009618943233 26.6517694981696
endloop
endfacet
facet normal -0.707106781186549 0.707106781186547 0.0
outer loop
vertex 30.6606601717798 48.9393398282202 26.6517694981696
vertex 30.35 48.7009618943233 29.6517694981696
vertex 30.6606601717798 48.9393398282202 29.6517694981696
endloop
endfacet
facet normal -0.500000000000005 -0.866025403784435 0.0
outer loop
vertex 30.35 51.2990381056767 29.6517694981696
vertex 29.9882285676538 51.4488887394336 26.6517694981696
vertex 30.35 51.2990381056767 26.6517694981696
endloop
endfacet
facet normal -0.258819045102526 -0.965925826289067 0.0
outer loop
vertex 29.9882285676538 51.4488887394336 26.6517694981696
vertex 30.35 51.2990381056767 29.6517694981696
vertex 29.9882285676538 51.4488887394336 29.6517694981696
endloop
endfacet
facet normal -0.258819045102526 -0.965925826289067 0.0
outer loop
vertex 29.9882285676538 51.4488887394336 29.6517694981696
vertex 29.6 51.5 26.6517694981696
vertex 29.9882285676538 51.4488887394336 26.6517694981696
endloop
endfacet
facet normal 1.33221092939921e-14 -1.0 0.0
outer loop
vertex 29.6 51.5 26.6517694981696
vertex 29.9882285676538 51.4488887394336 29.6517694981696
vertex 29.6 51.5 29.6517694981696
endloop
endfacet
facet normal 1.33221092939921e-14 -1.0 0.0
outer loop
vertex 29.6 51.5 29.6517694981696
vertex 29.2117714323462 51.4488887394336 26.6517694981696
vertex 29.6 51.5 26.6517694981696
endloop
endfacet
facet normal 0.258819045102529 -0.965925826289066 0.0
outer loop
vertex 29.2117714323462 51.4488887394336 26.6517694981696
vertex 29.6 51.5 29.6517694981696
vertex 29.2117714323462 51.4488887394336 29.6517694981696
endloop
endfacet
facet normal 0.258819045102529 -0.965925826289066 0.0
outer loop
vertex 29.2117714323462 51.4488887394336 29.6517694981696
vertex 28.85 51.2990381056767 26.6517694981696
vertex 29.2117714323462 51.4488887394336 26.6517694981696
endloop
endfacet
facet normal 0.499999999999996 -0.866025403784441 0.0
outer loop
vertex 28.85 51.2990381056767 26.6517694981696
vertex 29.2117714323462 51.4488887394336 29.6517694981696
vertex 28.85 51.2990381056767 29.6517694981696
endloop
endfacet
facet normal -0.866025403784439 0.499999999999999 0.0
outer loop
vertex 30.8990381056767 49.25 29.6517694981696
vertex 30.6606601717798 48.9393398282202 26.6517694981696
vertex 30.6606601717798 48.9393398282202 29.6517694981696
endloop
endfacet
facet normal -0.707106781186549 0.707106781186547 0.0
outer loop
vertex 30.6606601717798 48.9393398282202 26.6517694981696
vertex 30.8990381056767 49.25 29.6517694981696
vertex 30.8990381056767 49.25 26.6517694981696
endloop
endfacet
facet normal -0.707106781186549 -0.707106781186547 0.0
outer loop
vertex 30.6606601717798 51.0606601717798 29.6517694981696
vertex 30.35 51.2990381056767 26.6517694981696
vertex 30.6606601717798 51.0606601717798 26.6517694981696
endloop
endfacet
facet normal -0.500000000000005 -0.866025403784435 0.0
outer loop
vertex 30.35 51.2990381056767 26.6517694981696
vertex 30.6606601717798 51.0606601717798 29.6517694981696
vertex 30.35 51.2990381056767 29.6517694981696
endloop
endfacet
facet normal -1.0 9.53488758834218e-16 0.0
outer loop
vertex 31.1 50.0 29.6517694981696
vertex 31.0488887394336 49.6117714323462 26.6517694981696
vertex 31.0488887394336 49.6117714323462 29.6517694981696
endloop
endfacet
facet normal -0.965925826289069 0.25881904510252 0.0
outer loop
vertex 31.0488887394336 49.6117714323462 26.6517694981696
vertex 31.1 50.0 29.6517694981696
vertex 31.1 50.0 26.6517694981696
endloop
endfacet
facet normal -0.965925826289068 -0.258819045102521 0.0
outer loop
vertex 31.0488887394336 50.3882285676538 29.6517694981696
vertex 31.1 50.0 26.6517694981696
vertex 31.1 50.0 29.6517694981696
endloop
endfacet
facet normal -1.0 9.53488758834218e-16 0.0
outer loop
vertex 31.1 50.0 26.6517694981696
vertex 31.0488887394336 50.3882285676538 29.6517694981696
vertex 31.0488887394336 50.3882285676538 26.6517694981696
endloop
endfacet
facet normal 0.499999999999996 -0.866025403784441 0.0
outer loop
vertex 28.85 51.2990381056767 29.6517694981696
vertex 28.5393398282202 51.0606601717798 26.6517694981696
vertex 28.85 51.2990381056767 26.6517694981696
endloop
endfacet
facet normal 0.707106781186549 -0.707106781186547 0.0
outer loop
vertex 28.5393398282202 51.0606601717798 26.6517694981696
vertex 28.85 51.2990381056767 29.6517694981696
vertex 28.5393398282202 51.0606601717798 29.6517694981696
endloop
endfacet
facet normal 0.707106781186549 -0.707106781186547 0.0
outer loop
vertex 28.5393398282202 51.0606601717798 26.6517694981696
vertex 28.3009618943233 50.75 29.6517694981696
vertex 28.3009618943233 50.75 26.6517694981696
endloop
endfacet
facet normal 0.866025403784439 -0.499999999999999 0.0
outer loop
vertex 28.3009618943233 50.75 29.6517694981696
vertex 28.5393398282202 51.0606601717798 26.6517694981696
vertex 28.5393398282202 51.0606601717798 29.6517694981696
endloop
endfacet
facet normal -0.965925826289069 0.25881904510252 0.0
outer loop
vertex 31.0488887394336 49.6117714323462 29.6517694981696
vertex 30.8990381056767 49.25 26.6517694981696
vertex 30.8990381056767 49.25 29.6517694981696
endloop
endfacet
facet normal -0.866025403784439 0.499999999999999 0.0
outer loop
vertex 30.8990381056767 49.25 26.6517694981696
vertex 31.0488887394336 49.6117714323462 29.6517694981696
vertex 31.0488887394336 49.6117714323462 26.6517694981696
endloop
endfacet
facet normal 0.825061779865535 0.565042528846384 0.0
outer loop
vertex 28.3624073302017 2.65243620673042 26.6517694981696
vertex 28.6239429294533 2.36100368963031 29.6517694981696
vertex 28.6239429294533 2.36100368963031 26.6517694981696
endloop
endfacet
facet normal 0.650704713697809 0.759330873579793 0.0
outer loop
vertex 28.6239429294533 2.36100368963031 29.6517694981696
vertex 28.3624073302017 2.65243620673042 26.6517694981696
vertex 28.3624073302017 2.65243620673042 29.6517694981696
endloop
endfacet
facet normal 0.650704713697809 0.759330873579793 0.0
outer loop
vertex 28.6239429294533 2.36100368963031 29.6517694981696
vertex 28.9519952050521 2.14719188880149 26.6517694981696
vertex 28.6239429294533 2.36100368963031 26.6517694981696
endloop
endfacet
facet normal 0.432003196631963 0.901872074132338 0.0
outer loop
vertex 28.9519952050521 2.14719188880149 26.6517694981696
vertex 28.6239429294533 2.36100368963031 29.6517694981696
vertex 28.9519952050521 2.14719188880149 29.6517694981696
endloop
endfacet
facet normal 0.432003196631963 0.901872074132338 0.0
outer loop
vertex 28.9519952050521 2.14719188880149 29.6517694981696
vertex 29.324207936548 2.02557172512975 26.6517694981696
vertex 28.9519952050521 2.14719188880149 26.6517694981696
endloop
endfacet
facet normal 0.183861375634685 0.982952183246836 0.0
outer loop
vertex 29.324207936548 2.02557172512975 26.6517694981696
vertex 28.9519952050521 2.14719188880149 29.6517694981696
vertex 29.324207936548 2.02557172512975 29.6517694981696
endloop
endfacet
facet normal 0.997045725478348 0.0768102942668131 0.0
outer loop
vertex 28.1044314117825 3.38478455859979 26.6517694981696
vertex 28.1852116261783 3.00162879567646 29.6517694981696
vertex 28.1852116261783 3.00162879567646 26.6517694981696
endloop
endfacet
facet normal 0.943192249214478 0.33224746954903 0.0
outer loop
vertex 28.1852116261783 3.00162879567646 29.6517694981696
vertex 28.1044314117825 3.38478455859979 26.6517694981696
vertex 28.1044314117825 3.38478455859979 29.6517694981696
endloop
endfacet
facet normal 0.943192249214478 0.33224746954903 0.0
outer loop
vertex 28.1852116261783 3.00162879567646 26.6517694981696
vertex 28.3624073302017 2.65243620673042 29.6517694981696
vertex 28.3624073302017 2.65243620673042 26.6517694981696
endloop
endfacet
facet normal 0.825061779865535 0.565042528846384 0.0
outer loop
vertex 28.3624073302017 2.65243620673042 29.6517694981696
vertex 28.1852116261783 3.00162879567646 26.6517694981696
vertex 28.1852116261783 3.00162879567646 29.6517694981696
endloop
endfacet
facet normal 0.183861375634685 0.982952183246836 0.0
outer loop
vertex 29.324207936548 2.02557172512975 29.6517694981696
vertex 29.7152154414002 2.00443141178248 26.6517694981696
vertex 29.324207936548 2.02557172512975 26.6517694981696
endloop
endfacet
facet normal -0.0768102942668051 0.997045725478349 0.0
outer loop
vertex 29.7152154414002 2.00443141178248 26.6517694981696
vertex 29.324207936548 2.02557172512975 29.6517694981696
vertex 29.7152154414002 2.00443141178248 29.6517694981696
endloop
endfacet
facet normal -0.0768102942668051 0.997045725478349 0.0
outer loop
vertex 29.7152154414002 2.00443141178248 29.6517694981696
vertex 30.0983712043235 2.08521162617828 26.6517694981696
vertex 29.7152154414002 2.00443141178248 26.6517694981696
endloop
endfacet
facet normal -0.332247469549027 0.943192249214479 0.0
outer loop
vertex 30.0983712043235 2.08521162617828 26.6517694981696
vertex 29.7152154414002 2.00443141178248 29.6517694981696
vertex 30.0983712043235 2.08521162617828 29.6517694981696
endloop
endfacet
facet normal -0.332247469549027 0.943192249214479 0.0
outer loop
vertex 30.0983712043235 2.08521162617828 29.6517694981696
vertex 30.4475637932696 2.2624073302017 26.6517694981696
vertex 30.0983712043235 2.08521162617828 26.6517694981696
endloop
endfacet
facet normal -0.565042528846387 0.825061779865532 0.0
outer loop
vertex 30.4475637932696 2.2624073302017 26.6517694981696
vertex 30.0983712043235 2.08521162617828 29.6517694981696
vertex 30.4475637932696 2.2624073302017 29.6517694981696
endloop
endfacet
facet normal -0.565042528846387 0.825061779865532 0.0
outer loop
vertex 30.4475637932696 2.2624073302017 29.6517694981696
vertex 30.7389963103697 2.52394292945329 26.6517694981696
vertex 30.4475637932696 2.2624073302017 26.6517694981696
endloop
endfacet
facet normal -0.759330873579795 0.650704713697807 0.0
outer loop
vertex 30.7389963103697 2.52394292945329 26.6517694981696
vertex 30.4475637932696 2.2624073302017 29.6517694981696
vertex 30.7389963103697 2.52394292945329 29.6517694981696
endloop
endfacet
facet normal -0.901872074132338 0.432003196631964 0.0
outer loop
vertex 30.9528081111985 2.85199520505206 29.6517694981696
vertex 30.7389963103697 2.52394292945329 26.6517694981696
vertex 30.7389963103697 2.52394292945329 29.6517694981696
endloop
endfacet
facet normal -0.759330873579795 0.650704713697807 0.0
outer loop
vertex 30.7389963103697 2.52394292945329 26.6517694981696
vertex 30.9528081111985 2.85199520505206 29.6517694981696
vertex 30.9528081111985 2.85199520505206 26.6517694981696
endloop
endfacet
facet normal -0.982952183246835 0.183861375634689 0.0
outer loop
vertex 31.0744282748703 3.22420793654797 29.6517694981696
vertex 30.9528081111985 2.85199520505206 26.6517694981696
vertex 30.9528081111985 2.85199520505206 29.6517694981696
endloop
endfacet
facet normal -0.901872074132338 0.432003196631964 0.0
outer loop
vertex 30.9528081111985 2.85199520505206 26.6517694981696
vertex 31.0744282748703 3.22420793654797 29.6517694981696
vertex 31.0744282748703 3.22420793654797 26.6517694981696
endloop
endfacet
facet normal -0.997045725478349 -0.0768102942668063 0.0
outer loop
vertex 31.0955685882175 3.61521544140021 29.6517694981696
vertex 31.0744282748703 3.22420793654797 26.6517694981696
vertex 31.0744282748703 3.22420793654797 29.6517694981696
endloop
endfacet
facet normal -0.982952183246835 0.183861375634689 0.0
outer loop
vertex 31.0744282748703 3.22420793654797 26.6517694981696
vertex 31.0955685882175 3.61521544140021 29.6517694981696
vertex 31.0955685882175 3.61521544140021 26.6517694981696
endloop
endfacet
facet normal -0.943192249214479 -0.332247469549029 0.0
outer loop
vertex 31.0147883738217 3.99837120432354 29.6517694981696
vertex 31.0955685882175 3.61521544140021 26.6517694981696
vertex 31.0955685882175 3.61521544140021 29.6517694981696
endloop
endfacet
facet normal -0.997045725478349 -0.0768102942668063 0.0
outer loop
vertex 31.0955685882175 3.61521544140021 26.6517694981696
vertex 31.0147883738217 3.99837120432354 29.6517694981696
vertex 31.0147883738217 3.99837120432354 26.6517694981696
endloop
endfacet
facet normal -0.825061779865531 -0.565042528846388 0.0
outer loop
vertex 30.8375926697983 4.34756379326958 29.6517694981696
vertex 31.0147883738217 3.99837120432354 26.6517694981696
vertex 31.0147883738217 3.99837120432354 29.6517694981696
endloop
endfacet
facet normal -0.943192249214479 -0.332247469549029 0.0
outer loop
vertex 31.0147883738217 3.99837120432354 26.6517694981696
vertex 30.8375926697983 4.34756379326958 29.6517694981696
vertex 30.8375926697983 4.34756379326958 26.6517694981696
endloop
endfacet
facet normal -0.650704713697809 -0.759330873579794 0.0
outer loop
vertex 30.5760570705467 4.63899631036969 29.6517694981696
vertex 30.8375926697983 4.34756379326958 26.6517694981696
vertex 30.8375926697983 4.34756379326958 29.6517694981696
endloop
endfacet
facet normal -0.825061779865531 -0.565042528846388 0.0
outer loop
vertex 30.8375926697983 4.34756379326958 26.6517694981696
vertex 30.5760570705467 4.63899631036969 29.6517694981696
vertex 30.5760570705467 4.63899631036969 26.6517694981696
endloop
endfacet
facet normal -0.650704713697809 -0.759330873579794 0.0
outer loop
vertex 30.5760570705467 4.63899631036969 29.6517694981696
vertex 30.2480047949479 4.85280811119851 26.6517694981696
vertex 30.5760570705467 4.63899631036969 26.6517694981696
endloop
endfacet
facet normal -0.432003196631963 -0.901872074132338 0.0
outer loop
vertex 30.2480047949479 4.85280811119851 26.6517694981696
vertex 30.5760570705467 4.63899631036969 29.6517694981696
vertex 30.2480047949479 4.85280811119851 29.6517694981696
endloop
endfacet
facet normal -0.432003196631963 -0.901872074132338 0.0
outer loop
vertex 30.2480047949479 4.85280811119851 29.6517694981696
vertex 29.875792063452 4.97442827487025 26.6517694981696
vertex 30.2480047949479 4.85280811119851 26.6517694981696
endloop
endfacet
facet normal -0.183861375634685 -0.982952183246836 0.0
outer loop
vertex 29.875792063452 4.97442827487025 26.6517694981696
vertex 30.2480047949479 4.85280811119851 29.6517694981696
vertex 29.875792063452 4.97442827487025 29.6517694981696
endloop
endfacet
facet normal -0.183861375634685 -0.982952183246836 0.0
outer loop
vertex 29.875792063452 4.97442827487025 29.6517694981696
vertex 29.4847845585998 4.99556858821752 26.6517694981696
vertex 29.875792063452 4.97442827487025 26.6517694981696
endloop
endfacet
facet normal 0.0768102942668042 -0.997045725478349 0.0
outer loop
vertex 29.4847845585998 4.99556858821752 26.6517694981696
vertex 29.875792063452 4.97442827487025 29.6517694981696
vertex 29.4847845585998 4.99556858821752 29.6517694981696
endloop
endfacet
facet normal 0.0768102942668042 -0.997045725478349 0.0
outer loop
vertex 29.4847845585998 4.99556858821752 29.6517694981696
vertex 29.1016287956765 4.91478837382172 26.6517694981696
vertex 29.4847845585998 4.99556858821752 26.6517694981696
endloop
endfacet
facet normal 0.332247469549027 -0.943192249214479 0.0
outer loop
vertex 29.1016287956765 4.91478837382172 26.6517694981696
vertex 29.4847845585998 4.99556858821752 29.6517694981696
vertex 29.1016287956765 4.91478837382172 29.6517694981696
endloop
endfacet
facet normal 0.332247469549027 -0.943192249214479 0.0
outer loop
vertex 29.1016287956765 4.91478837382172 29.6517694981696
vertex 28.7524362067304 4.7375926697983 26.6517694981696
vertex 29.1016287956765 4.91478837382172 26.6517694981696
endloop
endfacet
facet normal 0.565042528846387 -0.825061779865532 0.0
outer loop
vertex 28.7524362067304 4.7375926697983 26.6517694981696
vertex 29.1016287956765 4.91478837382172 29.6517694981696
vertex 28.7524362067304 4.7375926697983 29.6517694981696
endloop
endfacet
facet normal 0.565042528846387 -0.825061779865532 0.0
outer loop
vertex 28.7524362067304 4.7375926697983 29.6517694981696
vertex 28.4610036896303 4.47605707054671 26.6517694981696
vertex 28.7524362067304 4.7375926697983 26.6517694981696
endloop
endfacet
facet normal 0.759330873579796 -0.650704713697807 0.0
outer loop
vertex 28.4610036896303 4.47605707054671 26.6517694981696
vertex 28.7524362067304 4.7375926697983 29.6517694981696
vertex 28.4610036896303 4.47605707054671 29.6517694981696
endloop
endfacet
facet normal 0.759330873579796 -0.650704713697807 0.0
outer loop
vertex 28.4610036896303 4.47605707054671 26.6517694981696
vertex 28.2471918888015 4.14800479494794 29.6517694981696
vertex 28.2471918888015 4.14800479494794 26.6517694981696
endloop
endfacet
facet normal 0.901872074132338 -0.432003196631964 0.0
outer loop
vertex 28.2471918888015 4.14800479494794 29.6517694981696
vertex 28.4610036896303 4.47605707054671 26.6517694981696
vertex 28.4610036896303 4.47605707054671 29.6517694981696
endloop
endfacet
facet normal 0.901872074132338 -0.432003196631964 0.0
outer loop
vertex 28.2471918888015 4.14800479494794 26.6517694981696
vertex 28.1255717251297 3.77579206345203 29.6517694981696
vertex 28.1255717251297 3.77579206345203 26.6517694981696
endloop
endfacet
facet normal 0.982952183246835 -0.183861375634689 0.0
outer loop
vertex 28.1255717251297 3.77579206345203 29.6517694981696
vertex 28.2471918888015 4.14800479494794 26.6517694981696
vertex 28.2471918888015 4.14800479494794 29.6517694981696
endloop
endfacet
facet normal 0.982952183246835 -0.183861375634689 0.0
outer loop
vertex 28.1255717251297 3.77579206345203 26.6517694981696
vertex 28.1044314117825 3.38478455859979 29.6517694981696
vertex 28.1044314117825 3.38478455859979 26.6517694981696
endloop
endfacet
facet normal 0.997045725478348 0.0768102942668131 0.0
outer loop
vertex 28.1044314117825 3.38478455859979 29.6517694981696
vertex 28.1255717251297 3.77579206345203 26.6517694981696
vertex 28.1255717251297 3.77579206345203 29.6517694981696
endloop
endfacet
facet normal -0.258819045102527 0.965925826289067 0.0
outer loop
vertex 3.88822856765378 48.5511112605664 29.6517694981696
vertex 4.25 48.7009618943233 26.6517694981696
vertex 3.88822856765378 48.5511112605664 26.6517694981696
endloop
endfacet
facet normal -0.499999999999998 0.86602540378444 0.0
outer loop
vertex 4.25 48.7009618943233 26.6517694981696
vertex 3.88822856765378 48.5511112605664 29.6517694981696
vertex 4.25 48.7009618943233 29.6517694981696
endloop
endfacet
facet normal 0.258819045102527 0.965925826289067 0.0
outer loop
vertex 3.11177143234622 48.5511112605664 29.6517694981696
vertex 3.5 48.5 26.6517694981696
vertex 3.11177143234622 48.5511112605664 26.6517694981696
endloop
endfacet
facet normal 1.69311088017291e-16 1.0 0.0
outer loop
vertex 3.5 48.5 26.6517694981696
vertex 3.11177143234622 48.5511112605664 29.6517694981696
vertex 3.5 48.5 29.6517694981696
endloop
endfacet
facet normal 0.258819045102527 -0.965925826289067 0.0
outer loop
vertex 3.11177143234622 51.4488887394336 29.6517694981696
vertex 2.75 51.2990381056767 26.6517694981696
vertex 3.11177143234622 51.4488887394336 26.6517694981696
endloop
endfacet
facet normal 0.499999999999998 -0.86602540378444 0.0
outer loop
vertex 2.75 51.2990381056767 26.6517694981696
vertex 3.11177143234622 51.4488887394336 29.6517694981696
vertex 2.75 51.2990381056767 29.6517694981696
endloop
endfacet
facet normal -0.707106781186547 -0.707106781186548 0.0
outer loop
vertex 4.56066017177982 51.0606601717798 29.6517694981696
vertex 4.25 51.2990381056767 26.6517694981696
vertex 4.56066017177982 51.0606601717798 26.6517694981696
endloop
endfacet
facet normal -0.500000000000009 -0.866025403784433 0.0
outer loop
vertex 4.25 51.2990381056767 26.6517694981696
vertex 4.56066017177982 51.0606601717798 29.6517694981696
vertex 4.25 51.2990381056767 29.6517694981696
endloop
endfacet
facet normal -0.258819045102526 -0.965925826289067 0.0
outer loop
vertex 3.88822856765378 51.4488887394336 29.6517694981696
vertex 3.5 51.5 26.6517694981696
vertex 3.88822856765378 51.4488887394336 26.6517694981696
endloop
endfacet
facet normal 1.41062869648091e-14 -1.0 0.0
outer loop
vertex 3.5 51.5 26.6517694981696
vertex 3.88822856765378 51.4488887394336 29.6517694981696
vertex 3.5 51.5 29.6517694981696
endloop
endfacet
facet normal 0.965925826289068 0.258819045102522 0.0
outer loop
vertex 2.0511112605664 49.6117714323462 26.6517694981696
vertex 2.20096189432334 49.25 29.6517694981696
vertex 2.20096189432334 49.25 26.6517694981696
endloop
endfacet
facet normal 0.866025403784439 0.499999999999999 0.0
outer loop
vertex 2.20096189432334 49.25 29.6517694981696
vertex 2.0511112605664 49.6117714323462 26.6517694981696
vertex 2.0511112605664 49.6117714323462 29.6517694981696
endloop
endfacet
facet normal 0.965925826289068 -0.258819045102521 0.0
outer loop
vertex 2.0511112605664 50.3882285676538 26.6517694981696
vertex 2.0 50.0 29.6517694981696
vertex 2.0 50.0 26.6517694981696
endloop
endfacet
facet normal 1.0 -9.44577648938572e-16 0.0
outer loop
vertex 2.0 50.0 29.6517694981696
vertex 2.0511112605664 50.3882285676538 26.6517694981696
vertex 2.0511112605664 50.3882285676538 29.6517694981696
endloop
endfacet
facet normal 0.499999999999998 0.86602540378444 0.0
outer loop
vertex 2.75 48.7009618943233 29.6517694981696
vertex 3.11177143234622 48.5511112605664 26.6517694981696
vertex 2.75 48.7009618943233 26.6517694981696
endloop
endfacet
facet normal 0.258819045102527 0.965925826289067 0.0
outer loop
vertex 3.11177143234622 48.5511112605664 26.6517694981696
vertex 2.75 48.7009618943233 29.6517694981696
vertex 3.11177143234622 48.5511112605664 29.6517694981696
endloop
endfacet
facet normal -1.0 9.44577648938572e-16 0.0
outer loop
vertex 5.0 50.0 29.6517694981696
vertex 4.9488887394336 49.6117714323462 26.6517694981696
vertex 4.9488887394336 49.6117714323462 29.6517694981696
endloop
endfacet
facet normal -0.965925826289069 0.25881904510252 0.0
outer loop
vertex 4.9488887394336 49.6117714323462 26.6517694981696
vertex 5.0 50.0 29.6517694981696
vertex 5.0 50.0 26.6517694981696
endloop
endfacet
facet normal 0.866025403784438 -0.5 0.0
outer loop
vertex 2.20096189432334 50.75 26.6517694981696
vertex 2.0511112605664 50.3882285676538 29.6517694981696
vertex 2.0511112605664 50.3882285676538 26.6517694981696
endloop
endfacet
facet normal 0.965925826289068 -0.258819045102521 0.0
outer loop
vertex 2.0511112605664 50.3882285676538 29.6517694981696
vertex 2.20096189432334 50.75 26.6517694981696
vertex 2.20096189432334 50.75 29.6517694981696
endloop
endfacet
facet normal -0.965925826289069 0.25881904510252 0.0
outer loop
vertex 4.9488887394336 49.6117714323462 29.6517694981696
vertex 4.79903810567666 49.25 26.6517694981696
vertex 4.79903810567666 49.25 29.6517694981696
endloop
endfacet
facet normal -0.866025403784441 0.499999999999996 0.0
outer loop
vertex 4.79903810567666 49.25 26.6517694981696
vertex 4.9488887394336 49.6117714323462 29.6517694981696
vertex 4.9488887394336 49.6117714323462 26.6517694981696
endloop
endfacet
facet normal 1.41062869648091e-14 -1.0 0.0
outer loop
vertex 3.5 51.5 29.6517694981696
vertex 3.11177143234622 51.4488887394336 26.6517694981696
vertex 3.5 51.5 26.6517694981696
endloop
endfacet
facet normal 0.258819045102527 -0.965925826289067 0.0
outer loop
vertex 3.11177143234622 51.4488887394336 26.6517694981696
vertex 3.5 51.5 29.6517694981696
vertex 3.11177143234622 51.4488887394336 29.6517694981696
endloop
endfacet
facet normal -0.500000000000009 -0.866025403784433 0.0
outer loop
vertex 4.25 51.2990381056767 29.6517694981696
vertex 3.88822856765378 51.4488887394336 26.6517694981696
vertex 4.25 51.2990381056767 26.6517694981696
endloop
endfacet
facet normal -0.258819045102526 -0.965925826289067 0.0
outer loop
vertex 3.88822856765378 51.4488887394336 26.6517694981696
vertex 4.25 51.2990381056767 29.6517694981696
vertex 3.88822856765378 51.4488887394336 29.6517694981696
endloop
endfacet
facet normal 0.213495775832079 0.976943986982805 0.0
outer loop
vertex 3.17975633625188 2.03458401952579 29.6517694981696
vertex 3.56994593922457 2.00163169895183 26.6517694981696
vertex 3.17975633625188 2.03458401952579 26.6517694981696
endloop
endfacet
facet normal -0.0466306261497122 0.998912200698783 0.0
outer loop
vertex 3.56994593922457 2.00163169895183 26.6517694981696
vertex 3.17975633625188 2.03458401952579 29.6517694981696
vertex 3.56994593922457 2.00163169895183 29.6517694981696
endloop
endfacet
facet normal -0.866025403784441 0.499999999999996 0.0
outer loop
vertex 4.79903810567666 49.25 29.6517694981696
vertex 4.56066017177982 48.9393398282202 26.6517694981696
vertex 4.56066017177982 48.9393398282202 29.6517694981696
endloop
endfacet
facet normal -0.707106781186546 0.707106781186549 0.0
outer loop
vertex 4.56066017177982 48.9393398282202 26.6517694981696
vertex 4.79903810567666 49.25 29.6517694981696
vertex 4.79903810567666 49.25 26.6517694981696
endloop
endfacet
facet normal 0.0 0.0 -1.0
outer loop
vertex 23.1 50.5 26.6517694981696
vertex 28.1511112605664 49.6117714323462 26.6517694981696
vertex 30.1 43.5 26.6517694981696
endloop
endfacet
facet normal 0.0 0.0 -1.0
outer loop
vertex 28.1511112605664 49.6117714323462 26.6517694981696
vertex 23.1 50.5 26.6517694981696
vertex 28.1 50.0 26.6517694981696
endloop
endfacet
facet normal 0.0 0.0 -1.0
outer loop
vertex 30.1 43.5 26.6517694981696
vertex 28.1511112605664 49.6117714323462 26.6517694981696
vertex 28.3009618943233 49.25 26.6517694981696
endloop
endfacet
facet normal 0.0 0.0 -1.0
outer loop
vertex 30.1 43.5 26.6517694981696
vertex 28.3009618943233 49.25 26.6517694981696
vertex 28.5393398282202 48.9393398282202 26.6517694981696
endloop
endfacet
facet normal 0.0 0.0 -1.0
outer loop
vertex 30.1 43.5 26.6517694981696
vertex 28.5393398282202 48.9393398282202 26.6517694981696
vertex 28.85 48.7009618943233 26.6517694981696
endloop
endfacet
facet normal 0.0 0.0 -1.0
outer loop
vertex 30.1 43.5 26.6517694981696
vertex 28.85 48.7009618943233 26.6517694981696
vertex 29.2117714323462 48.5511112605664 26.6517694981696
endloop
endfacet
facet normal 0.0 0.0 -1.0
outer loop
vertex 30.1 43.5 26.6517694981696
vertex 29.2117714323462 48.5511112605664 26.6517694981696
vertex 29.6 48.5 26.6517694981696
endloop
endfacet
facet normal 0.0 0.0 -1.0
outer loop
vertex 30.1 43.5 26.6517694981696
vertex 29.6 48.5 26.6517694981696
vertex 29.9882285676538 48.5511112605664 26.6517694981696
endloop
endfacet
facet normal 0.0 0.0 -1.0
outer loop
vertex 30.1 43.5 26.6517694981696
vertex 29.9882285676538 48.5511112605664 26.6517694981696
vertex 30.35 48.7009618943233 26.6517694981696
endloop
endfacet
facet normal 0.0 0.0 -1.0
outer loop
vertex 30.1 43.5 26.6517694981696
vertex 30.35 48.7009618943233 26.6517694981696
vertex 30.1 10.0 26.6517694981696
endloop
endfacet
facet normal 0.0 0.0 -1.0
outer loop
vertex 30.1 10.0 26.6517694981696
vertex 30.35 48.7009618943233 26.6517694981696
vertex 30.2480047949479 4.85280811119851 26.6517694981696
endloop
endfacet
facet normal 0.0 0.0 -1.0
outer loop
vertex 30.2480047949479 4.85280811119851 26.6517694981696
vertex 30.35 48.7009618943233 26.6517694981696
vertex 30.5760570705467 4.63899631036969 26.6517694981696
endloop
endfacet
facet normal 0.0 0.0 -1.0
outer loop
vertex 30.5760570705467 4.63899631036969 26.6517694981696
vertex 30.35 48.7009618943233 26.6517694981696
vertex 30.6606601717798 48.9393398282202 26.6517694981696
endloop
endfacet
facet normal 0.0 0.0 -1.0
outer loop
vertex 30.5760570705467 4.63899631036969 26.6517694981696
vertex 30.6606601717798 48.9393398282202 26.6517694981696
vertex 30.8375926697983 4.34756379326958 26.6517694981696
endloop
endfacet
facet normal 0.0 0.0 -1.0
outer loop
vertex 30.8375926697983 4.34756379326958 26.6517694981696
vertex 30.6606601717798 48.9393398282202 26.6517694981696
vertex 30.8990381056767 49.25 26.6517694981696
endloop
endfacet
facet normal 0.0 0.0 -1.0
outer loop
vertex 30.8375926697983 4.34756379326958 26.6517694981696
vertex 30.8990381056767 49.25 26.6517694981696
vertex 31.0147883738217 3.99837120432354 26.6517694981696
endloop
endfacet
facet normal 0.0 0.0 -1.0
outer loop
vertex 31.0147883738217 3.99837120432354 26.6517694981696
vertex 30.8990381056767 49.25 26.6517694981696
vertex 31.0488887394336 49.6117714323462 26.6517694981696
endloop
endfacet
facet normal 0.0 0.0 -1.0
outer loop
vertex 31.0147883738217 3.99837120432354 26.6517694981696
vertex 31.0488887394336 49.6117714323462 26.6517694981696
vertex 31.0955685882175 3.61521544140021 26.6517694981696
endloop
endfacet
facet normal 0.0 0.0 -1.0
outer loop
vertex 31.0955685882175 3.61521544140021 26.6517694981696
vertex 31.0488887394336 49.6117714323462 26.6517694981696
vertex 31.1 50.0 26.6517694981696
endloop
endfacet
facet normal 0.0 0.0 -1.0
outer loop
vertex 0.0 53.5 26.6517694981696
vertex 2.0 50.0 26.6517694981696
vertex 0.0 0.0 26.6517694981696
endloop
endfacet
facet normal 0.0 0.0 -1.0
outer loop
vertex 2.0 50.0 26.6517694981696
vertex 0.0 53.5 26.6517694981696
vertex 2.0511112605664 50.3882285676538 26.6517694981696
endloop
endfacet
facet normal 0.0 0.0 -1.0
outer loop
vertex 2.0511112605664 50.3882285676538 26.6517694981696
vertex 0.0 53.5 26.6517694981696
vertex 2.20096189432334 50.75 26.6517694981696
endloop
endfacet
facet normal 0.0 0.0 -1.0
outer loop
vertex 2.20096189432334 50.75 26.6517694981696
vertex 0.0 53.5 26.6517694981696
vertex 2.43933982822018 51.0606601717798 26.6517694981696
endloop
endfacet
facet normal 0.0 0.0 -1.0
outer loop
vertex 2.43933982822018 51.0606601717798 26.6517694981696
vertex 0.0 53.5 26.6517694981696
vertex 2.75 51.2990381056767 26.6517694981696
endloop
endfacet
facet normal 0.0 0.0 -1.0
outer loop
vertex 2.75 51.2990381056767 26.6517694981696
vertex 0.0 53.5 26.6517694981696
vertex 3.11177143234622 51.4488887394336 26.6517694981696
endloop
endfacet
facet normal 0.0 0.0 -1.0
outer loop
vertex 3.11177143234622 51.4488887394336 26.6517694981696
vertex 0.0 53.5 26.6517694981696
vertex 3.5 51.5 26.6517694981696
endloop
endfacet
facet normal 0.0 0.0 -1.0
outer loop
vertex 3.5 51.5 26.6517694981696
vertex 0.0 53.5 26.6517694981696
vertex 33.1 53.5 26.6517694981696
endloop
endfacet
facet normal 0.0 0.0 -1.0
outer loop
vertex 3.5 51.5 26.6517694981696
vertex 33.1 53.5 26.6517694981696
vertex 3.88822856765378 51.4488887394336 26.6517694981696
endloop
endfacet
facet normal 0.0 0.0 -1.0
outer loop
vertex 3.88822856765378 51.4488887394336 26.6517694981696
vertex 33.1 53.5 26.6517694981696
vertex 4.25 51.2990381056767 26.6517694981696
endloop
endfacet
facet normal 0.0 0.0 -1.0
outer loop
vertex 4.25 51.2990381056767 26.6517694981696
vertex 33.1 53.5 26.6517694981696
vertex 4.56066017177982 51.0606601717798 26.6517694981696
endloop
endfacet
facet normal 0.0 0.0 -1.0
outer loop
vertex 4.56066017177982 51.0606601717798 26.6517694981696
vertex 33.1 53.5 26.6517694981696
vertex 4.79903810567666 50.75 26.6517694981696
endloop
endfacet
facet normal 0.0 0.0 -1.0
outer loop
vertex 4.79903810567666 50.75 26.6517694981696
vertex 33.1 53.5 26.6517694981696
vertex 4.9488887394336 50.3882285676538 26.6517694981696
endloop
endfacet
facet normal 0.0 0.0 -1.0
outer loop
vertex 4.9488887394336 50.3882285676538 26.6517694981696
vertex 33.1 53.5 26.6517694981696
vertex 5.0 50.0 26.6517694981696
endloop
endfacet
facet normal 0.0 0.0 -1.0
outer loop
vertex 5.0 50.0 26.6517694981696
vertex 33.1 53.5 26.6517694981696
vertex 10.0 50.5 26.6517694981696
endloop
endfacet
facet normal 0.0 0.0 -1.0
outer loop
vertex 10.0 50.5 26.6517694981696
vertex 33.1 53.5 26.6517694981696
vertex 23.1 50.5 26.6517694981696
endloop
endfacet
facet normal 0.0 0.0 -1.0
outer loop
vertex 23.1 50.5 26.6517694981696
vertex 33.1 53.5 26.6517694981696
vertex 28.85 51.2990381056767 26.6517694981696
endloop
endfacet
facet normal 0.0 0.0 -1.0
outer loop
vertex 23.1 50.5 26.6517694981696
vertex 28.85 51.2990381056767 26.6517694981696
vertex 28.5393398282202 51.0606601717798 26.6517694981696
endloop
endfacet
facet normal 0.0 0.0 -1.0
outer loop
vertex 23.1 50.5 26.6517694981696
vertex 28.5393398282202 51.0606601717798 26.6517694981696
vertex 28.3009618943233 50.75 26.6517694981696
endloop
endfacet
facet normal 0.0 0.0 -1.0
outer loop
vertex 23.1 50.5 26.6517694981696
vertex 28.3009618943233 50.75 26.6517694981696
vertex 28.1511112605664 50.3882285676538 26.6517694981696
endloop
endfacet
facet normal 0.0 0.0 -1.0
outer loop
vertex 23.1 50.5 26.6517694981696
vertex 28.1511112605664 50.3882285676538 26.6517694981696
vertex 28.1 50.0 26.6517694981696
endloop
endfacet
facet normal 0.0 0.0 -1.0
outer loop
vertex 28.85 51.2990381056767 26.6517694981696
vertex 33.1 53.5 26.6517694981696
vertex 29.2117714323462 51.4488887394336 26.6517694981696
endloop
endfacet
facet normal 0.0 0.0 -1.0
outer loop
vertex 29.2117714323462 51.4488887394336 26.6517694981696
vertex 33.1 53.5 26.6517694981696
vertex 29.6 51.5 26.6517694981696
endloop
endfacet
facet normal 0.0 0.0 -1.0
outer loop
vertex 29.6 51.5 26.6517694981696
vertex 33.1 53.5 26.6517694981696
vertex 29.9882285676538 51.4488887394336 26.6517694981696
endloop
endfacet
facet normal 0.0 0.0 -1.0
outer loop
vertex 29.9882285676538 51.4488887394336 26.6517694981696
vertex 33.1 53.5 26.6517694981696
vertex 30.35 51.2990381056767 26.6517694981696
endloop
endfacet
facet normal 0.0 0.0 -1.0
outer loop
vertex 30.35 51.2990381056767 26.6517694981696
vertex 33.1 53.5 26.6517694981696
vertex 30.6606601717798 51.0606601717798 26.6517694981696
endloop
endfacet
facet normal 0.0 0.0 -1.0
outer loop
vertex 30.6606601717798 51.0606601717798 26.6517694981696
vertex 33.1 53.5 26.6517694981696
vertex 30.8990381056767 50.75 26.6517694981696
endloop
endfacet
facet normal 0.0 0.0 -1.0
outer loop
vertex 30.8990381056767 50.75 26.6517694981696
vertex 33.1 53.5 26.6517694981696
vertex 31.0488887394336 50.3882285676538 26.6517694981696
endloop
endfacet
facet normal 0.0 0.0 -1.0
outer loop
vertex 31.0488887394336 50.3882285676538 26.6517694981696
vertex 33.1 53.5 26.6517694981696
vertex 31.1 50.0 26.6517694981696
endloop
endfacet
facet normal 0.0 0.0 -1.0
outer loop
vertex 0.0 0.0 26.6517694981696
vertex 3.56994593922457 2.00163169895183 26.6517694981696
vertex 33.1 0.0 26.6517694981696
endloop
endfacet
facet normal 0.0 0.0 -1.0
outer loop
vertex 3.56994593922457 2.00163169895183 26.6517694981696
vertex 0.0 0.0 26.6517694981696
vertex 3.17975633625188 2.03458401952579 26.6517694981696
endloop
endfacet
facet normal 0.0 0.0 -1.0
outer loop
vertex 3.17975633625188 2.03458401952579 26.6517694981696
vertex 0.0 0.0 26.6517694981696
vertex 2.81139080973595 2.16740201745467 26.6517694981696
endloop
endfacet
facet normal 0.0 0.0 -1.0
outer loop
vertex 2.81139080973595 2.16740201745467 26.6517694981696
vertex 0.0 0.0 26.6517694981696
vertex 2.48995286155602 2.39103436567172 26.6517694981696
endloop
endfacet
facet normal 0.0 0.0 -1.0
outer loop
vertex 2.48995286155602 2.39103436567172 26.6517694981696
vertex 0.0 0.0 26.6517694981696
vertex 2.23734795667924 2.69024088921587 26.6517694981696
endloop
endfacet
facet normal 0.0 0.0 -1.0
outer loop
vertex 2.23734795667924 2.69024088921587 26.6517694981696
vertex 0.0 0.0 26.6517694981696
vertex 2.0707907019236 3.04463115796977 26.6517694981696
endloop
endfacet
facet normal 0.0 0.0 -1.0
outer loop
vertex 2.0707907019236 3.04463115796977 26.6517694981696
vertex 0.0 0.0 26.6517694981696
vertex 2.00163169895183 3.43005406077543 26.6517694981696
endloop
endfacet
facet normal 0.0 0.0 -1.0
outer loop
vertex 2.00163169895183 3.43005406077543 26.6517694981696
vertex 0.0 0.0 26.6517694981696
vertex 2.0 50.0 26.6517694981696
endloop
endfacet
facet normal 0.0 0.0 -1.0
outer loop
vertex 33.1 0.0 26.6517694981696
vertex 3.56994593922457 2.00163169895183 26.6517694981696
vertex 3.95536884203023 2.0707907019236 26.6517694981696
endloop
endfacet
facet normal 0.0 0.0 -1.0
outer loop
vertex 33.1 0.0 26.6517694981696
vertex 3.95536884203023 2.0707907019236 26.6517694981696
vertex 4.30975911078412 2.23734795667924 26.6517694981696
endloop
endfacet
facet normal 0.0 0.0 -1.0
outer loop
vertex 33.1 0.0 26.6517694981696
vertex 4.30975911078412 2.23734795667924 26.6517694981696
vertex 4.60896563432828 2.48995286155602 26.6517694981696
endloop
endfacet
facet normal 0.0 0.0 -1.0
outer loop
vertex 33.1 0.0 26.6517694981696
vertex 4.60896563432828 2.48995286155602 26.6517694981696
vertex 4.83259798254533 2.81139080973595 26.6517694981696
endloop
endfacet
facet normal 0.0 0.0 -1.0
outer loop
vertex 33.1 0.0 26.6517694981696
vertex 4.83259798254533 2.81139080973595 26.6517694981696
vertex 4.96541598047421 3.17975633625188 26.6517694981696
endloop
endfacet
facet normal 0.0 0.0 -1.0
outer loop
vertex 33.1 0.0 26.6517694981696
vertex 4.96541598047421 3.17975633625188 26.6517694981696
vertex 4.99836830104817 3.56994593922457 26.6517694981696
endloop
endfacet
facet normal 0.0 0.0 -1.0
outer loop
vertex 33.1 0.0 26.6517694981696
vertex 4.99836830104817 3.56994593922457 26.6517694981696
vertex 10.0 3.0 26.6517694981696
endloop
endfacet
facet normal 0.0 0.0 -1.0
outer loop
vertex 33.1 0.0 26.6517694981696
vertex 10.0 3.0 26.6517694981696
vertex 23.1 3.0 26.6517694981696
endloop
endfacet
facet normal 0.0 0.0 -1.0
outer loop
vertex 33.1 0.0 26.6517694981696
vertex 23.1 3.0 26.6517694981696
vertex 28.9519952050521 2.14719188880149 26.6517694981696
endloop
endfacet
facet normal 0.0 0.0 -1.0
outer loop
vertex 28.9519952050521 2.14719188880149 26.6517694981696
vertex 23.1 3.0 26.6517694981696
vertex 28.6239429294533 2.36100368963031 26.6517694981696
endloop
endfacet
facet normal 0.0 0.0 -1.0
outer loop
vertex 28.6239429294533 2.36100368963031 26.6517694981696
vertex 23.1 3.0 26.6517694981696
vertex 28.3624073302017 2.65243620673042 26.6517694981696
endloop
endfacet
facet normal 0.0 0.0 -1.0
outer loop
vertex 28.3624073302017 2.65243620673042 26.6517694981696
vertex 23.1 3.0 26.6517694981696
vertex 28.1852116261783 3.00162879567646 26.6517694981696
endloop
endfacet
facet normal 0.0 0.0 -1.0
outer loop
vertex 28.1852116261783 3.00162879567646 26.6517694981696
vertex 23.1 3.0 26.6517694981696
vertex 28.1044314117825 3.38478455859979 26.6517694981696
endloop
endfacet
facet normal 0.0 0.0 -1.0
outer loop
vertex 33.1 0.0 26.6517694981696
vertex 28.9519952050521 2.14719188880149 26.6517694981696
vertex 29.324207936548 2.02557172512975 26.6517694981696
endloop
endfacet
facet normal 0.0 0.0 -1.0
outer loop
vertex 33.1 0.0 26.6517694981696
vertex 29.324207936548 2.02557172512975 26.6517694981696
vertex 29.7152154414002 2.00443141178248 26.6517694981696
endloop
endfacet
facet normal 0.0 0.0 -1.0
outer loop
vertex 33.1 0.0 26.6517694981696
vertex 29.7152154414002 2.00443141178248 26.6517694981696
vertex 30.0983712043235 2.08521162617828 26.6517694981696
endloop
endfacet
facet normal 0.0 0.0 -1.0
outer loop
vertex 33.1 0.0 26.6517694981696
vertex 30.0983712043235 2.08521162617828 26.6517694981696
vertex 30.4475637932696 2.2624073302017 26.6517694981696
endloop
endfacet
facet normal 0.0 0.0 -1.0
outer loop
vertex 33.1 0.0 26.6517694981696
vertex 30.4475637932696 2.2624073302017 26.6517694981696
vertex 30.7389963103697 2.52394292945329 26.6517694981696
endloop
endfacet
facet normal 0.0 0.0 -1.0
outer loop
vertex 33.1 0.0 26.6517694981696
vertex 30.7389963103697 2.52394292945329 26.6517694981696
vertex 30.9528081111985 2.85199520505206 26.6517694981696
endloop
endfacet
facet normal 0.0 0.0 -1.0
outer loop
vertex 33.1 0.0 26.6517694981696
vertex 30.9528081111985 2.85199520505206 26.6517694981696
vertex 31.0744282748703 3.22420793654797 26.6517694981696
endloop
endfacet
facet normal 0.0 0.0 -1.0
outer loop
vertex 33.1 0.0 26.6517694981696
vertex 31.0744282748703 3.22420793654797 26.6517694981696
vertex 31.0955685882175 3.61521544140021 26.6517694981696
endloop
endfacet
facet normal 0.0 0.0 -1.0
outer loop
vertex 33.1 0.0 26.6517694981696
vertex 31.0955685882175 3.61521544140021 26.6517694981696
vertex 31.1 50.0 26.6517694981696
endloop
endfacet
facet normal 0.0 0.0 -1.0
outer loop
vertex 33.1 0.0 26.6517694981696
vertex 31.1 50.0 26.6517694981696
vertex 33.1 53.5 26.6517694981696
endloop
endfacet
facet normal 0.0 0.0 -1.0
outer loop
vertex 23.1 3.0 26.6517694981696
vertex 28.1255717251297 3.77579206345203 26.6517694981696
vertex 28.1044314117825 3.38478455859979 26.6517694981696
endloop
endfacet
facet normal 0.0 0.0 -1.0
outer loop
vertex 28.1255717251297 3.77579206345203 26.6517694981696
vertex 23.1 3.0 26.6517694981696
vertex 30.1 10.0 26.6517694981696
endloop
endfacet
facet normal 0.0 0.0 -1.0
outer loop
vertex 28.1255717251297 3.77579206345203 26.6517694981696
vertex 30.1 10.0 26.6517694981696
vertex 28.2471918888015 4.14800479494794 26.6517694981696
endloop
endfacet
facet normal 0.0 0.0 -1.0
outer loop
vertex 28.2471918888015 4.14800479494794 26.6517694981696
vertex 30.1 10.0 26.6517694981696
vertex 28.4610036896303 4.47605707054671 26.6517694981696
endloop
endfacet
facet normal 0.0 0.0 -1.0
outer loop
vertex 28.4610036896303 4.47605707054671 26.6517694981696
vertex 30.1 10.0 26.6517694981696
vertex 28.7524362067304 4.7375926697983 26.6517694981696
endloop
endfacet
facet normal 0.0 0.0 -1.0
outer loop
vertex 28.7524362067304 4.7375926697983 26.6517694981696
vertex 30.1 10.0 26.6517694981696
vertex 29.1016287956765 4.91478837382172 26.6517694981696
endloop
endfacet
facet normal 0.0 0.0 -1.0
outer loop
vertex 29.1016287956765 4.91478837382172 26.6517694981696
vertex 30.1 10.0 26.6517694981696
vertex 29.4847845585998 4.99556858821752 26.6517694981696
endloop
endfacet
facet normal 0.0 0.0 -1.0
outer loop
vertex 29.4847845585998 4.99556858821752 26.6517694981696
vertex 30.1 10.0 26.6517694981696
vertex 29.875792063452 4.97442827487025 26.6517694981696
endloop
endfacet
facet normal 0.0 0.0 -1.0
outer loop
vertex 29.875792063452 4.97442827487025 26.6517694981696
vertex 30.1 10.0 26.6517694981696
vertex 30.2480047949479 4.85280811119851 26.6517694981696
endloop
endfacet
facet normal 0.0 0.0 -1.0
outer loop
vertex 2.0511112605664 49.6117714323462 26.6517694981696
vertex 2.00163169895183 3.43005406077543 26.6517694981696
vertex 2.0 50.0 26.6517694981696
endloop
endfacet
facet normal 0.0 0.0 -1.0
outer loop
vertex 2.00163169895183 3.43005406077543 26.6517694981696
vertex 2.0511112605664 49.6117714323462 26.6517694981696
vertex 2.03458401952579 3.82024366374812 26.6517694981696
endloop
endfacet
facet normal 0.0 0.0 -1.0
outer loop
vertex 2.03458401952579 3.82024366374812 26.6517694981696
vertex 2.0511112605664 49.6117714323462 26.6517694981696
vertex 2.16740201745467 4.18860919026405 26.6517694981696
endloop
endfacet
facet normal 0.0 0.0 -1.0
outer loop
vertex 2.16740201745467 4.18860919026405 26.6517694981696
vertex 2.0511112605664 49.6117714323462 26.6517694981696
vertex 2.20096189432334 49.25 26.6517694981696
endloop
endfacet
facet normal 0.0 0.0 -1.0
outer loop
vertex 2.16740201745467 4.18860919026405 26.6517694981696
vertex 2.20096189432334 49.25 26.6517694981696
vertex 2.39103436567172 4.51004713844398 26.6517694981696
endloop
endfacet
facet normal 0.0 0.0 -1.0
outer loop
vertex 2.39103436567172 4.51004713844398 26.6517694981696
vertex 2.20096189432334 49.25 26.6517694981696
vertex 2.43933982822018 48.9393398282202 26.6517694981696
endloop
endfacet
facet normal 0.0 0.0 -1.0
outer loop
vertex 2.39103436567172 4.51004713844398 26.6517694981696
vertex 2.43933982822018 48.9393398282202 26.6517694981696
vertex 2.69024088921587 4.76265204332076 26.6517694981696
endloop
endfacet
facet normal 0.0 0.0 -1.0
outer loop
vertex 2.69024088921587 4.76265204332076 26.6517694981696
vertex 2.43933982822018 48.9393398282202 26.6517694981696
vertex 2.75 48.7009618943233 26.6517694981696
endloop
endfacet
facet normal 0.0 0.0 -1.0
outer loop
vertex 2.69024088921587 4.76265204332076 26.6517694981696
vertex 2.75 48.7009618943233 26.6517694981696
vertex 3.0 10.0 26.6517694981696
endloop
endfacet
facet normal 0.0 0.0 -1.0
outer loop
vertex 2.69024088921587 4.76265204332076 26.6517694981696
vertex 3.0 10.0 26.6517694981696
vertex 3.04463115796977 4.9292092980764 26.6517694981696
endloop
endfacet
facet normal 0.0 0.0 -1.0
outer loop
vertex 3.0 10.0 26.6517694981696
vertex 2.75 48.7009618943233 26.6517694981696
vertex 3.0 43.5 26.6517694981696
endloop
endfacet
facet normal 0.0 0.0 -1.0
outer loop
vertex 3.04463115796977 4.9292092980764 26.6517694981696
vertex 3.0 10.0 26.6517694981696
vertex 3.43005406077543 4.99836830104817 26.6517694981696
endloop
endfacet
facet normal 0.0 0.0 -1.0
outer loop
vertex 3.43005406077543 4.99836830104817 26.6517694981696
vertex 3.0 10.0 26.6517694981696
vertex 3.82024366374812 4.96541598047421 26.6517694981696
endloop
endfacet
facet normal 0.0 0.0 -1.0
outer loop
vertex 3.82024366374812 4.96541598047421 26.6517694981696
vertex 3.0 10.0 26.6517694981696
vertex 10.0 3.0 26.6517694981696
endloop
endfacet
facet normal 0.0 0.0 -1.0
outer loop
vertex 3.82024366374812 4.96541598047421 26.6517694981696
vertex 10.0 3.0 26.6517694981696
vertex 4.18860919026405 4.83259798254533 26.6517694981696
endloop
endfacet
facet normal 0.0 0.0 -1.0
outer loop
vertex 4.18860919026405 4.83259798254533 26.6517694981696
vertex 10.0 3.0 26.6517694981696
vertex 4.51004713844398 4.60896563432828 26.6517694981696
endloop
endfacet
facet normal 0.0 0.0 -1.0
outer loop
vertex 4.51004713844398 4.60896563432828 26.6517694981696
vertex 10.0 3.0 26.6517694981696
vertex 4.76265204332076 4.30975911078413 26.6517694981696
endloop
endfacet
facet normal 0.0 0.0 -1.0
outer loop
vertex 4.76265204332076 4.30975911078413 26.6517694981696
vertex 10.0 3.0 26.6517694981696
vertex 4.9292092980764 3.95536884203023 26.6517694981696
endloop
endfacet
facet normal 0.0 0.0 -1.0
outer loop
vertex 4.9292092980764 3.95536884203023 26.6517694981696
vertex 10.0 3.0 26.6517694981696
vertex 4.99836830104817 3.56994593922457 26.6517694981696
endloop
endfacet
facet normal 0.0 0.0 -1.0
outer loop
vertex 3.11177143234622 48.5511112605664 26.6517694981696
vertex 3.0 43.5 26.6517694981696
vertex 2.75 48.7009618943233 26.6517694981696
endloop
endfacet
facet normal 0.0 0.0 -1.0
outer loop
vertex 3.0 43.5 26.6517694981696
vertex 3.11177143234622 48.5511112605664 26.6517694981696
vertex 3.5 48.5 26.6517694981696
endloop
endfacet
facet normal 0.0 0.0 -1.0
outer loop
vertex 3.0 43.5 26.6517694981696
vertex 3.5 48.5 26.6517694981696
vertex 3.88822856765378 48.5511112605664 26.6517694981696
endloop
endfacet
facet normal 0.0 0.0 -1.0
outer loop
vertex 3.0 43.5 26.6517694981696
vertex 3.88822856765378 48.5511112605664 26.6517694981696
vertex 10.0 50.5 26.6517694981696
endloop
endfacet
facet normal 0.0 0.0 -1.0
outer loop
vertex 10.0 50.5 26.6517694981696
vertex 3.88822856765378 48.5511112605664 26.6517694981696
vertex 4.25 48.7009618943233 26.6517694981696
endloop
endfacet
facet normal 0.0 0.0 -1.0
outer loop
vertex 10.0 50.5 26.6517694981696
vertex 4.25 48.7009618943233 26.6517694981696
vertex 4.56066017177982 48.9393398282202 26.6517694981696
endloop
endfacet
facet normal 0.0 0.0 -1.0
outer loop
vertex 10.0 50.5 26.6517694981696
vertex 4.56066017177982 48.9393398282202 26.6517694981696
vertex 4.79903810567666 49.25 26.6517694981696
endloop
endfacet
facet normal 0.0 0.0 -1.0
outer loop
vertex 10.0 50.5 26.6517694981696
vertex 4.79903810567666 49.25 26.6517694981696
vertex 4.9488887394336 49.6117714323462 26.6517694981696
endloop
endfacet
facet normal 0.0 0.0 -1.0
outer loop
vertex 10.0 50.5 26.6517694981696
vertex 4.9488887394336 49.6117714323462 26.6517694981696
vertex 5.0 50.0 26.6517694981696
endloop
endfacet
facet normal -0.0 -1.0 -0.0
outer loop
vertex 23.1 50.5 29.6517694981696
vertex 10.0 50.5 26.6517694981696
vertex 23.1 50.5 26.6517694981696
endloop
endfacet
facet normal -0.0 -1.0 -0.0
outer loop
vertex 10.0 50.5 26.6517694981696
vertex 23.1 50.5 29.6517694981696
vertex 10.0 50.5 29.6517694981696
endloop
endfacet
facet normal -0.707106781186547 -0.707106781186547 -0.0
outer loop
vertex 23.1 50.5 29.6517694981696
vertex 30.1 43.5 26.6517694981696
vertex 30.1 43.5 29.6517694981696
endloop
endfacet
facet normal -0.707106781186547 -0.707106781186547 -0.0
outer loop
vertex 30.1 43.5 26.6517694981696
vertex 23.1 50.5 29.6517694981696
vertex 23.1 50.5 26.6517694981696
endloop
endfacet
facet normal 0.707106781186547 -0.707106781186547 -0.0
outer loop
vertex 10.0 50.5 26.6517694981696
vertex 3.0 43.5 29.6517694981696
vertex 3.0 43.5 26.6517694981696
endloop
endfacet
facet normal 0.707106781186547 -0.707106781186547 -0.0
outer loop
vertex 3.0 43.5 29.6517694981696
vertex 10.0 50.5 26.6517694981696
vertex 10.0 50.5 29.6517694981696
endloop
endfacet
facet normal 1.0 0.0 0.0
outer loop
vertex 3.0 43.5 26.6517694981696
vertex 3.0 10.0 29.6517694981696
vertex 3.0 10.0 26.6517694981696
endloop
endfacet
facet normal 1.0 0.0 0.0
outer loop
vertex 3.0 10.0 29.6517694981696
vertex 3.0 43.5 26.6517694981696
vertex 3.0 43.5 29.6517694981696
endloop
endfacet
facet normal 0.707106781186547 0.707106781186548 0.0
outer loop
vertex 3.0 10.0 29.6517694981696
vertex 10.0 3.0 26.6517694981696
vertex 3.0 10.0 26.6517694981696
endloop
endfacet
facet normal 0.707106781186547 0.707106781186548 0.0
outer loop
vertex 10.0 3.0 26.6517694981696
vertex 3.0 10.0 29.6517694981696
vertex 10.0 3.0 29.6517694981696
endloop
endfacet
facet normal -0.0 1.0 -0.0
outer loop
vertex 10.0 3.0 29.6517694981696
vertex 23.1 3.0 26.6517694981696
vertex 10.0 3.0 26.6517694981696
endloop
endfacet
facet normal -0.0 1.0 -0.0
outer loop
vertex 23.1 3.0 26.6517694981696
vertex 10.0 3.0 29.6517694981696
vertex 23.1 3.0 29.6517694981696
endloop
endfacet
facet normal -0.707106781186547 0.707106781186547 -0.0
outer loop
vertex 30.1 10.0 29.6517694981696
vertex 23.1 3.0 26.6517694981696
vertex 23.1 3.0 29.6517694981696
endloop
endfacet
facet normal -0.707106781186547 0.707106781186547 -0.0
outer loop
vertex 23.1 3.0 26.6517694981696
vertex 30.1 10.0 29.6517694981696
vertex 30.1 10.0 26.6517694981696
endloop
endfacet
facet normal 0.539839407189417 -0.84176802888051 0.0
outer loop
vertex 2.69024088921587 4.76265204332076 29.6517694981696
vertex 2.39103436567172 4.51004713844398 26.6517694981696
vertex 2.69024088921587 4.76265204332076 26.6517694981696
endloop
endfacet
facet normal 0.739310422885524 -0.67336475896265 0.0
outer loop
vertex 2.39103436567172 4.51004713844398 26.6517694981696
vertex 2.69024088921587 4.76265204332076 29.6517694981696
vertex 2.39103436567172 4.51004713844398 29.6517694981696
endloop
endfacet
facet normal 0.303579228020153 -0.952806198717603 0.0
outer loop
vertex 3.04463115796977 4.9292092980764 29.6517694981696
vertex 2.69024088921587 4.76265204332076 26.6517694981696
vertex 3.04463115796977 4.9292092980764 26.6517694981696
endloop
endfacet
facet normal 0.539839407189417 -0.84176802888051 0.0
outer loop
vertex 2.69024088921587 4.76265204332076 26.6517694981696
vertex 3.04463115796977 4.9292092980764 29.6517694981696
vertex 2.69024088921587 4.76265204332076 29.6517694981696
endloop
endfacet
facet normal 0.0466306261497128 -0.998912200698783 0.0
outer loop
vertex 3.43005406077543 4.99836830104817 29.6517694981696
vertex 3.04463115796977 4.9292092980764 26.6517694981696
vertex 3.43005406077543 4.99836830104817 26.6517694981696
endloop
endfacet
facet normal 0.303579228020153 -0.952806198717603 0.0
outer loop
vertex 3.04463115796977 4.9292092980764 26.6517694981696
vertex 3.43005406077543 4.99836830104817 29.6517694981696
vertex 3.04463115796977 4.9292092980764 29.6517694981696
endloop
endfacet
facet normal -0.213495775832079 -0.976943986982805 0.0
outer loop
vertex 3.82024366374812 4.96541598047421 29.6517694981696
vertex 3.43005406077543 4.99836830104817 26.6517694981696
vertex 3.82024366374812 4.96541598047421 26.6517694981696
endloop
endfacet
facet normal 0.0466306261497128 -0.998912200698783 0.0
outer loop
vertex 3.43005406077543 4.99836830104817 26.6517694981696
vertex 3.82024366374812 4.96541598047421 29.6517694981696
vertex 3.43005406077543 4.99836830104817 29.6517694981696
endloop
endfacet
facet normal -0.459072793509367 -0.888398655030222 0.0
outer loop
vertex 4.18860919026405 4.83259798254533 29.6517694981696
vertex 3.82024366374812 4.96541598047421 26.6517694981696
vertex 4.18860919026405 4.83259798254533 26.6517694981696
endloop
endfacet
facet normal -0.213495775832079 -0.976943986982805 0.0
outer loop
vertex 3.82024366374812 4.96541598047421 26.6517694981696
vertex 4.18860919026405 4.83259798254533 29.6517694981696
vertex 3.82024366374812 4.96541598047421 29.6517694981696
endloop
endfacet
facet normal -0.673364758962651 -0.739310422885523 0.0
outer loop
vertex 4.51004713844398 4.60896563432828 29.6517694981696
vertex 4.18860919026405 4.83259798254533 26.6517694981696
vertex 4.51004713844398 4.60896563432828 26.6517694981696
endloop
endfacet
facet normal -0.459072793509367 -0.888398655030222 0.0
outer loop
vertex 4.18860919026405 4.83259798254533 26.6517694981696
vertex 4.51004713844398 4.60896563432828 29.6517694981696
vertex 4.18860919026405 4.83259798254533 29.6517694981696
endloop
endfacet
facet normal 0.998912200698783 0.0466306261497122 0.0
outer loop
vertex 2.00163169895183 3.43005406077543 26.6517694981696
vertex 2.0707907019236 3.04463115796977 29.6517694981696
vertex 2.0707907019236 3.04463115796977 26.6517694981696
endloop
endfacet
facet normal 0.952806198717602 0.303579228020154 0.0
outer loop
vertex 2.0707907019236 3.04463115796977 29.6517694981696
vertex 2.00163169895183 3.43005406077543 26.6517694981696
vertex 2.00163169895183 3.43005406077543 29.6517694981696
endloop
endfacet
facet normal 0.952806198717602 0.303579228020154 0.0
outer loop
vertex 2.0707907019236 3.04463115796977 26.6517694981696
vertex 2.23734795667924 2.69024088921587 29.6517694981696
vertex 2.23734795667924 2.69024088921587 26.6517694981696
endloop
endfacet
facet normal 0.84176802888051 0.539839407189417 0.0
outer loop
vertex 2.23734795667924 2.69024088921587 29.6517694981696
vertex 2.0707907019236 3.04463115796977 26.6517694981696
vertex 2.0707907019236 3.04463115796977 29.6517694981696
endloop
endfacet
facet normal 0.707106781186548 -0.707106781186547 0.0
outer loop
vertex 2.43933982822018 51.0606601717798 26.6517694981696
vertex 2.20096189432334 50.75 29.6517694981696
vertex 2.20096189432334 50.75 26.6517694981696
endloop
endfacet
facet normal 0.866025403784438 -0.5 0.0
outer loop
vertex 2.20096189432334 50.75 29.6517694981696
vertex 2.43933982822018 51.0606601717798 26.6517694981696
vertex 2.43933982822018 51.0606601717798 29.6517694981696
endloop
endfacet
facet normal -0.952806198717603 -0.303579228020153 0.0
outer loop
vertex 4.9292092980764 3.95536884203023 29.6517694981696
vertex 4.99836830104817 3.56994593922457 26.6517694981696
vertex 4.99836830104817 3.56994593922457 29.6517694981696
endloop
endfacet
facet normal -0.998912200698783 -0.046630626149712 0.0
outer loop
vertex 4.99836830104817 3.56994593922457 26.6517694981696
vertex 4.9292092980764 3.95536884203023 29.6517694981696
vertex 4.9292092980764 3.95536884203023 26.6517694981696
endloop
endfacet
facet normal 0.976943986982805 -0.21349577583208 0.0
outer loop
vertex 2.03458401952579 3.82024366374812 26.6517694981696
vertex 2.00163169895183 3.43005406077543 29.6517694981696
vertex 2.00163169895183 3.43005406077543 26.6517694981696
endloop
endfacet
facet normal 0.998912200698783 0.0466306261497122 0.0
outer loop
vertex 2.00163169895183 3.43005406077543 29.6517694981696
vertex 2.03458401952579 3.82024366374812 26.6517694981696
vertex 2.03458401952579 3.82024366374812 29.6517694981696
endloop
endfacet
facet normal -0.0466306261497122 0.998912200698783 0.0
outer loop
vertex 3.56994593922457 2.00163169895183 29.6517694981696
vertex 3.95536884203023 2.0707907019236 26.6517694981696
vertex 3.56994593922457 2.00163169895183 26.6517694981696
endloop
endfacet
facet normal -0.303579228020154 0.952806198717603 0.0
outer loop
vertex 3.95536884203023 2.0707907019236 26.6517694981696
vertex 3.56994593922457 2.00163169895183 29.6517694981696
vertex 3.95536884203023 2.0707907019236 29.6517694981696
endloop
endfacet
facet normal -0.841768028880509 -0.539839407189418 0.0
outer loop
vertex 4.76265204332076 4.30975911078413 29.6517694981696
vertex 4.9292092980764 3.95536884203023 26.6517694981696
vertex 4.9292092980764 3.95536884203023 29.6517694981696
endloop
endfacet
facet normal -0.952806198717603 -0.303579228020153 0.0
outer loop
vertex 4.9292092980764 3.95536884203023 26.6517694981696
vertex 4.76265204332076 4.30975911078413 29.6517694981696
vertex 4.76265204332076 4.30975911078413 26.6517694981696
endloop
endfacet
facet normal 1.0 -9.44577648938572e-16 0.0
outer loop
vertex 2.0 50.0 26.6517694981696
vertex 2.0511112605664 49.6117714323462 29.6517694981696
vertex 2.0511112605664 49.6117714323462 26.6517694981696
endloop
endfacet
facet normal 0.965925826289068 0.258819045102522 0.0
outer loop
vertex 2.0511112605664 49.6117714323462 29.6517694981696
vertex 2.0 50.0 26.6517694981696
vertex 2.0 50.0 29.6517694981696
endloop
endfacet
facet normal 0.707106781186546 0.707106781186549 0.0
outer loop
vertex 2.43933982822018 48.9393398282202 29.6517694981696
vertex 2.75 48.7009618943233 26.6517694981696
vertex 2.43933982822018 48.9393398282202 26.6517694981696
endloop
endfacet
facet normal 0.499999999999998 0.86602540378444 0.0
outer loop
vertex 2.75 48.7009618943233 26.6517694981696
vertex 2.43933982822018 48.9393398282202 29.6517694981696
vertex 2.75 48.7009618943233 29.6517694981696
endloop
endfacet
facet normal -0.707106781186547 -0.707106781186548 0.0
outer loop
vertex 4.56066017177982 51.0606601717798 29.6517694981696
vertex 4.79903810567666 50.75 26.6517694981696
vertex 4.79903810567666 50.75 29.6517694981696
endloop
endfacet
facet normal -0.866025403784436 -0.500000000000004 0.0
outer loop
vertex 4.79903810567666 50.75 26.6517694981696
vertex 4.56066017177982 51.0606601717798 29.6517694981696
vertex 4.56066017177982 51.0606601717798 26.6517694981696
endloop
endfacet
facet normal 0.499999999999998 -0.86602540378444 0.0
outer loop
vertex 2.75 51.2990381056767 29.6517694981696
vertex 2.43933982822018 51.0606601717798 26.6517694981696
vertex 2.75 51.2990381056767 26.6517694981696
endloop
endfacet
facet normal 0.707106781186548 -0.707106781186547 0.0
outer loop
vertex 2.43933982822018 51.0606601717798 26.6517694981696
vertex 2.75 51.2990381056767 29.6517694981696
vertex 2.43933982822018 51.0606601717798 29.6517694981696
endloop
endfacet
facet normal 0.459072793509366 0.888398655030222 0.0
outer loop
vertex 2.81139080973595 2.16740201745467 29.6517694981696
vertex 3.17975633625188 2.03458401952579 26.6517694981696
vertex 2.81139080973595 2.16740201745467 26.6517694981696
endloop
endfacet
facet normal 0.213495775832079 0.976943986982805 0.0
outer loop
vertex 3.17975633625188 2.03458401952579 26.6517694981696
vertex 2.81139080973595 2.16740201745467 29.6517694981696
vertex 3.17975633625188 2.03458401952579 29.6517694981696
endloop
endfacet
facet normal -0.499999999999998 0.86602540378444 0.0
outer loop
vertex 4.25 48.7009618943233 29.6517694981696
vertex 4.56066017177982 48.9393398282202 26.6517694981696
vertex 4.25 48.7009618943233 26.6517694981696
endloop
endfacet
facet normal -0.707106781186546 0.707106781186549 0.0
outer loop
vertex 4.56066017177982 48.9393398282202 26.6517694981696
vertex 4.25 48.7009618943233 29.6517694981696
vertex 4.56066017177982 48.9393398282202 29.6517694981696
endloop
endfacet
facet normal -0.965925826289068 -0.258819045102522 0.0
outer loop
vertex 4.9488887394336 50.3882285676538 29.6517694981696
vertex 5.0 50.0 26.6517694981696
vertex 5.0 50.0 29.6517694981696
endloop
endfacet
facet normal -1.0 9.44577648938572e-16 0.0
outer loop
vertex 5.0 50.0 26.6517694981696
vertex 4.9488887394336 50.3882285676538 29.6517694981696
vertex 4.9488887394336 50.3882285676538 26.6517694981696
endloop
endfacet
facet normal 0.0 0.0 1.0
outer loop
vertex 2.75 48.7009618943233 29.6517694981696
vertex 3.0 43.5 29.6517694981696
vertex 3.11177143234622 48.5511112605664 29.6517694981696
endloop
endfacet
facet normal 0.0 0.0 1.0
outer loop
vertex 3.0 43.5 29.6517694981696
vertex 2.75 48.7009618943233 29.6517694981696
vertex 3.0 10.0 29.6517694981696
endloop
endfacet
facet normal 0.0 0.0 1.0
outer loop
vertex 3.11177143234622 48.5511112605664 29.6517694981696
vertex 3.0 43.5 29.6517694981696
vertex 3.5 48.5 29.6517694981696
endloop
endfacet
facet normal 0.0 0.0 1.0
outer loop
vertex 3.5 48.5 29.6517694981696
vertex 3.0 43.5 29.6517694981696
vertex 3.88822856765378 48.5511112605664 29.6517694981696
endloop
endfacet
facet normal 0.0 0.0 1.0
outer loop
vertex 3.88822856765378 48.5511112605664 29.6517694981696
vertex 3.0 43.5 29.6517694981696
vertex 10.0 50.5 29.6517694981696
endloop
endfacet
facet normal 0.0 0.0 1.0
outer loop
vertex 3.88822856765378 48.5511112605664 29.6517694981696
vertex 10.0 50.5 29.6517694981696
vertex 4.25 48.7009618943233 29.6517694981696
endloop
endfacet
facet normal 0.0 0.0 1.0
outer loop
vertex 4.25 48.7009618943233 29.6517694981696
vertex 10.0 50.5 29.6517694981696
vertex 4.56066017177982 48.9393398282202 29.6517694981696
endloop
endfacet
facet normal 0.0 0.0 1.0
outer loop
vertex 4.56066017177982 48.9393398282202 29.6517694981696
vertex 10.0 50.5 29.6517694981696
vertex 4.79903810567666 49.25 29.6517694981696
endloop
endfacet
facet normal 0.0 0.0 1.0
outer loop
vertex 4.79903810567666 49.25 29.6517694981696
vertex 10.0 50.5 29.6517694981696
vertex 4.9488887394336 49.6117714323462 29.6517694981696
endloop
endfacet
facet normal 0.0 0.0 1.0
outer loop
vertex 4.9488887394336 49.6117714323462 29.6517694981696
vertex 10.0 50.5 29.6517694981696
vertex 5.0 50.0 29.6517694981696
endloop
endfacet
facet normal 0.0 0.0 1.0
outer loop
vertex 2.00163169895183 3.43005406077543 29.6517694981696
vertex 2.0511112605664 49.6117714323462 29.6517694981696
vertex 2.0 50.0 29.6517694981696
endloop
endfacet
facet normal 0.0 0.0 1.0
outer loop
vertex 2.0511112605664 49.6117714323462 29.6517694981696
vertex 2.00163169895183 3.43005406077543 29.6517694981696
vertex 2.03458401952579 3.82024366374812 29.6517694981696
endloop
endfacet
facet normal 0.0 0.0 1.0
outer loop
vertex 2.0511112605664 49.6117714323462 29.6517694981696
vertex 2.03458401952579 3.82024366374812 29.6517694981696
vertex 2.16740201745467 4.18860919026405 29.6517694981696
endloop
endfacet
facet normal 0.0 0.0 1.0
outer loop
vertex 2.0511112605664 49.6117714323462 29.6517694981696
vertex 2.16740201745467 4.18860919026405 29.6517694981696
vertex 2.20096189432334 49.25 29.6517694981696
endloop
endfacet
facet normal 0.0 0.0 1.0
outer loop
vertex 2.20096189432334 49.25 29.6517694981696
vertex 2.16740201745467 4.18860919026405 29.6517694981696
vertex 2.39103436567172 4.51004713844398 29.6517694981696
endloop
endfacet
facet normal 0.0 0.0 1.0
outer loop
vertex 2.20096189432334 49.25 29.6517694981696
vertex 2.39103436567172 4.51004713844398 29.6517694981696
vertex 2.43933982822018 48.9393398282202 29.6517694981696
endloop
endfacet
facet normal 0.0 0.0 1.0
outer loop
vertex 2.43933982822018 48.9393398282202 29.6517694981696
vertex 2.39103436567172 4.51004713844398 29.6517694981696
vertex 2.69024088921587 4.76265204332076 29.6517694981696
endloop
endfacet
facet normal 0.0 0.0 1.0
outer loop
vertex 2.43933982822018 48.9393398282202 29.6517694981696
vertex 2.69024088921587 4.76265204332076 29.6517694981696
vertex 2.75 48.7009618943233 29.6517694981696
endloop
endfacet
facet normal 0.0 0.0 1.0
outer loop
vertex 2.75 48.7009618943233 29.6517694981696
vertex 2.69024088921587 4.76265204332076 29.6517694981696
vertex 3.0 10.0 29.6517694981696
endloop
endfacet
facet normal 0.0 0.0 1.0
outer loop
vertex 3.0 10.0 29.6517694981696
vertex 2.69024088921587 4.76265204332076 29.6517694981696
vertex 3.04463115796977 4.9292092980764 29.6517694981696
endloop
endfacet
facet normal 0.0 0.0 1.0
outer loop
vertex 3.0 10.0 29.6517694981696
vertex 3.04463115796977 4.9292092980764 29.6517694981696
vertex 3.43005406077543 4.99836830104817 29.6517694981696
endloop
endfacet
facet normal 0.0 0.0 1.0
outer loop
vertex 3.0 10.0 29.6517694981696
vertex 3.43005406077543 4.99836830104817 29.6517694981696
vertex 3.82024366374812 4.96541598047421 29.6517694981696
endloop
endfacet
facet normal 0.0 0.0 1.0
outer loop
vertex 3.0 10.0 29.6517694981696
vertex 3.82024366374812 4.96541598047421 29.6517694981696
vertex 10.0 3.0 29.6517694981696
endloop
endfacet
facet normal 0.0 0.0 1.0
outer loop
vertex 10.0 3.0 29.6517694981696
vertex 3.82024366374812 4.96541598047421 29.6517694981696
vertex 4.18860919026405 4.83259798254533 29.6517694981696
endloop
endfacet
facet normal 0.0 0.0 1.0
outer loop
vertex 10.0 3.0 29.6517694981696
vertex 4.18860919026405 4.83259798254533 29.6517694981696
vertex 4.51004713844398 4.60896563432828 29.6517694981696
endloop
endfacet
facet normal 0.0 0.0 1.0
outer loop
vertex 10.0 3.0 29.6517694981696
vertex 4.51004713844398 4.60896563432828 29.6517694981696
vertex 4.76265204332076 4.30975911078413 29.6517694981696
endloop
endfacet
facet normal 0.0 0.0 1.0
outer loop
vertex 10.0 3.0 29.6517694981696
vertex 4.76265204332076 4.30975911078413 29.6517694981696
vertex 4.9292092980764 3.95536884203023 29.6517694981696
endloop
endfacet
facet normal 0.0 0.0 1.0
outer loop
vertex 10.0 3.0 29.6517694981696
vertex 4.9292092980764 3.95536884203023 29.6517694981696
vertex 4.99836830104817 3.56994593922457 29.6517694981696
endloop
endfacet
facet normal 0.0 0.0 1.0
outer loop
vertex 23.1 3.0 29.6517694981696
vertex 28.1255717251297 3.77579206345203 29.6517694981696
vertex 30.1 10.0 29.6517694981696
endloop
endfacet
facet normal 0.0 0.0 1.0
outer loop
vertex 28.1255717251297 3.77579206345203 29.6517694981696
vertex 23.1 3.0 29.6517694981696
vertex 28.1044314117825 3.38478455859979 29.6517694981696
endloop
endfacet
facet normal 0.0 0.0 1.0
outer loop
vertex 30.1 10.0 29.6517694981696
vertex 28.1255717251297 3.77579206345203 29.6517694981696
vertex 28.2471918888015 4.14800479494794 29.6517694981696
endloop
endfacet
facet normal 0.0 0.0 1.0
outer loop
vertex 30.1 10.0 29.6517694981696
vertex 28.2471918888015 4.14800479494794 29.6517694981696
vertex 28.4610036896303 4.47605707054671 29.6517694981696
endloop
endfacet
facet normal 0.0 0.0 1.0
outer loop
vertex 30.1 10.0 29.6517694981696
vertex 28.4610036896303 4.47605707054671 29.6517694981696
vertex 28.7524362067304 4.7375926697983 29.6517694981696
endloop
endfacet
facet normal 0.0 0.0 1.0
outer loop
vertex 30.1 10.0 29.6517694981696
vertex 28.7524362067304 4.7375926697983 29.6517694981696
vertex 29.1016287956765 4.91478837382172 29.6517694981696
endloop
endfacet
facet normal 0.0 0.0 1.0
outer loop
vertex 30.1 10.0 29.6517694981696
vertex 29.1016287956765 4.91478837382172 29.6517694981696
vertex 29.4847845585998 4.99556858821752 29.6517694981696
endloop
endfacet
facet normal 0.0 0.0 1.0
outer loop
vertex 30.1 10.0 29.6517694981696
vertex 29.4847845585998 4.99556858821752 29.6517694981696
vertex 29.875792063452 4.97442827487025 29.6517694981696
endloop
endfacet
facet normal 0.0 0.0 1.0
outer loop
vertex 30.1 10.0 29.6517694981696
vertex 29.875792063452 4.97442827487025 29.6517694981696
vertex 30.2480047949479 4.85280811119851 29.6517694981696
endloop
endfacet
facet normal 0.0 0.0 1.0
outer loop
vertex 30.1 10.0 29.6517694981696
vertex 30.2480047949479 4.85280811119851 29.6517694981696
vertex 30.1 43.5 29.6517694981696
endloop
endfacet
facet normal 0.0 0.0 1.0
outer loop
vertex 0.0 0.0 29.6517694981696
vertex 2.00163169895183 3.43005406077543 29.6517694981696
vertex 0.0 53.5 29.6517694981696
endloop
endfacet
facet normal 0.0 0.0 1.0
outer loop
vertex 2.00163169895183 3.43005406077543 29.6517694981696
vertex 0.0 0.0 29.6517694981696
vertex 2.0707907019236 3.04463115796977 29.6517694981696
endloop
endfacet
facet normal 0.0 0.0 1.0
outer loop
vertex 2.0707907019236 3.04463115796977 29.6517694981696
vertex 0.0 0.0 29.6517694981696
vertex 2.23734795667924 2.69024088921587 29.6517694981696
endloop
endfacet
facet normal 0.0 0.0 1.0
outer loop
vertex 2.23734795667924 2.69024088921587 29.6517694981696
vertex 0.0 0.0 29.6517694981696
vertex 2.48995286155602 2.39103436567172 29.6517694981696
endloop
endfacet
facet normal 0.0 0.0 1.0
outer loop
vertex 2.48995286155602 2.39103436567172 29.6517694981696
vertex 0.0 0.0 29.6517694981696
vertex 2.81139080973595 2.16740201745467 29.6517694981696
endloop
endfacet
facet normal 0.0 0.0 1.0
outer loop
vertex 2.81139080973595 2.16740201745467 29.6517694981696
vertex 0.0 0.0 29.6517694981696
vertex 3.17975633625188 2.03458401952579 29.6517694981696
endloop
endfacet
facet normal 0.0 0.0 1.0
outer loop
vertex 3.17975633625188 2.03458401952579 29.6517694981696
vertex 0.0 0.0 29.6517694981696
vertex 3.56994593922457 2.00163169895183 29.6517694981696
endloop
endfacet
facet normal 0.0 0.0 1.0
outer loop
vertex 3.56994593922457 2.00163169895183 29.6517694981696
vertex 0.0 0.0 29.6517694981696
vertex 33.1 0.0 29.6517694981696
endloop
endfacet
facet normal 0.0 0.0 1.0
outer loop
vertex 0.0 53.5 29.6517694981696
vertex 2.00163169895183 3.43005406077543 29.6517694981696
vertex 2.0 50.0 29.6517694981696
endloop
endfacet
facet normal 0.0 0.0 1.0
outer loop
vertex 3.56994593922457 2.00163169895183 29.6517694981696
vertex 33.1 0.0 29.6517694981696
vertex 3.95536884203023 2.0707907019236 29.6517694981696
endloop
endfacet
facet normal 0.0 0.0 1.0
outer loop
vertex 3.95536884203023 2.0707907019236 29.6517694981696
vertex 33.1 0.0 29.6517694981696
vertex 4.30975911078412 2.23734795667924 29.6517694981696
endloop
endfacet
facet normal 0.0 0.0 1.0
outer loop
vertex 4.30975911078412 2.23734795667924 29.6517694981696
vertex 33.1 0.0 29.6517694981696
vertex 4.60896563432828 2.48995286155602 29.6517694981696
endloop
endfacet
facet normal 0.0 0.0 1.0
outer loop
vertex 4.60896563432828 2.48995286155602 29.6517694981696
vertex 33.1 0.0 29.6517694981696
vertex 4.83259798254533 2.81139080973595 29.6517694981696
endloop
endfacet
facet normal 0.0 0.0 1.0
outer loop
vertex 4.83259798254533 2.81139080973595 29.6517694981696
vertex 33.1 0.0 29.6517694981696
vertex 4.96541598047421 3.17975633625188 29.6517694981696
endloop
endfacet
facet normal 0.0 0.0 1.0
outer loop
vertex 4.96541598047421 3.17975633625188 29.6517694981696
vertex 33.1 0.0 29.6517694981696
vertex 4.99836830104817 3.56994593922457 29.6517694981696
endloop
endfacet
facet normal 0.0 0.0 1.0
outer loop
vertex 4.99836830104817 3.56994593922457 29.6517694981696
vertex 33.1 0.0 29.6517694981696
vertex 10.0 3.0 29.6517694981696
endloop
endfacet
facet normal 0.0 0.0 1.0
outer loop
vertex 10.0 3.0 29.6517694981696
vertex 33.1 0.0 29.6517694981696
vertex 23.1 3.0 29.6517694981696
endloop
endfacet
facet normal 0.0 0.0 1.0
outer loop
vertex 23.1 3.0 29.6517694981696
vertex 33.1 0.0 29.6517694981696
vertex 28.9519952050521 2.14719188880149 29.6517694981696
endloop
endfacet
facet normal 0.0 0.0 1.0
outer loop
vertex 23.1 3.0 29.6517694981696
vertex 28.9519952050521 2.14719188880149 29.6517694981696
vertex 28.6239429294533 2.36100368963031 29.6517694981696
endloop
endfacet
facet normal 0.0 0.0 1.0
outer loop
vertex 23.1 3.0 29.6517694981696
vertex 28.6239429294533 2.36100368963031 29.6517694981696
vertex 28.3624073302017 2.65243620673042 29.6517694981696
endloop
endfacet
facet normal 0.0 0.0 1.0
outer loop
vertex 23.1 3.0 29.6517694981696
vertex 28.3624073302017 2.65243620673042 29.6517694981696
vertex 28.1852116261783 3.00162879567646 29.6517694981696
endloop
endfacet
facet normal 0.0 0.0 1.0
outer loop
vertex 23.1 3.0 29.6517694981696
vertex 28.1852116261783 3.00162879567646 29.6517694981696
vertex 28.1044314117825 3.38478455859979 29.6517694981696
endloop
endfacet
facet normal 0.0 0.0 1.0
outer loop
vertex 28.9519952050521 2.14719188880149 29.6517694981696
vertex 33.1 0.0 29.6517694981696
vertex 29.324207936548 2.02557172512975 29.6517694981696
endloop
endfacet
facet normal 0.0 0.0 1.0
outer loop
vertex 29.324207936548 2.02557172512975 29.6517694981696
vertex 33.1 0.0 29.6517694981696
vertex 29.7152154414002 2.00443141178248 29.6517694981696
endloop
endfacet
facet normal 0.0 0.0 1.0
outer loop
vertex 29.7152154414002 2.00443141178248 29.6517694981696
vertex 33.1 0.0 29.6517694981696
vertex 30.0983712043235 2.08521162617828 29.6517694981696
endloop
endfacet
facet normal 0.0 0.0 1.0
outer loop
vertex 30.0983712043235 2.08521162617828 29.6517694981696
vertex 33.1 0.0 29.6517694981696
vertex 30.4475637932696 2.2624073302017 29.6517694981696
endloop
endfacet
facet normal 0.0 0.0 1.0
outer loop
vertex 30.4475637932696 2.2624073302017 29.6517694981696
vertex 33.1 0.0 29.6517694981696
vertex 30.7389963103697 2.52394292945329 29.6517694981696
endloop
endfacet
facet normal 0.0 0.0 1.0
outer loop
vertex 30.7389963103697 2.52394292945329 29.6517694981696
vertex 33.1 0.0 29.6517694981696
vertex 30.9528081111985 2.85199520505206 29.6517694981696
endloop
endfacet
facet normal 0.0 0.0 1.0
outer loop
vertex 30.9528081111985 2.85199520505206 29.6517694981696
vertex 33.1 0.0 29.6517694981696
vertex 31.0744282748703 3.22420793654797 29.6517694981696
endloop
endfacet
facet normal 0.0 0.0 1.0
outer loop
vertex 31.0744282748703 3.22420793654797 29.6517694981696
vertex 33.1 0.0 29.6517694981696
vertex 31.0955685882175 3.61521544140021 29.6517694981696
endloop
endfacet
facet normal 0.0 0.0 1.0
outer loop
vertex 31.0955685882175 3.61521544140021 29.6517694981696
vertex 33.1 0.0 29.6517694981696
vertex 31.1 50.0 29.6517694981696
endloop
endfacet
facet normal 0.0 0.0 1.0
outer loop
vertex 0.0 53.5 29.6517694981696
vertex 3.5 51.5 29.6517694981696
vertex 33.1 53.5 29.6517694981696
endloop
endfacet
facet normal 0.0 0.0 1.0
outer loop
vertex 3.5 51.5 29.6517694981696
vertex 0.0 53.5 29.6517694981696
vertex 3.11177143234622 51.4488887394336 29.6517694981696
endloop
endfacet
facet normal 0.0 0.0 1.0
outer loop
vertex 3.11177143234622 51.4488887394336 29.6517694981696
vertex 0.0 53.5 29.6517694981696
vertex 2.75 51.2990381056767 29.6517694981696
endloop
endfacet
facet normal 0.0 0.0 1.0
outer loop
vertex 2.75 51.2990381056767 29.6517694981696
vertex 0.0 53.5 29.6517694981696
vertex 2.43933982822018 51.0606601717798 29.6517694981696
endloop
endfacet
facet normal 0.0 0.0 1.0
outer loop
vertex 2.43933982822018 51.0606601717798 29.6517694981696
vertex 0.0 53.5 29.6517694981696
vertex 2.20096189432334 50.75 29.6517694981696
endloop
endfacet
facet normal 0.0 0.0 1.0
outer loop
vertex 2.20096189432334 50.75 29.6517694981696
vertex 0.0 53.5 29.6517694981696
vertex 2.0511112605664 50.3882285676538 29.6517694981696
endloop
endfacet
facet normal 0.0 0.0 1.0
outer loop
vertex 2.0511112605664 50.3882285676538 29.6517694981696
vertex 0.0 53.5 29.6517694981696
vertex 2.0 50.0 29.6517694981696
endloop
endfacet
facet normal 0.0 0.0 1.0
outer loop
vertex 33.1 53.5 29.6517694981696
vertex 3.5 51.5 29.6517694981696
vertex 3.88822856765378 51.4488887394336 29.6517694981696
endloop
endfacet
facet normal 0.0 0.0 1.0
outer loop
vertex 33.1 53.5 29.6517694981696
vertex 3.88822856765378 51.4488887394336 29.6517694981696
vertex 4.25 51.2990381056767 29.6517694981696
endloop
endfacet
facet normal 0.0 0.0 1.0
outer loop
vertex 33.1 53.5 29.6517694981696
vertex 4.25 51.2990381056767 29.6517694981696
vertex 4.56066017177982 51.0606601717798 29.6517694981696
endloop
endfacet
facet normal 0.0 0.0 1.0
outer loop
vertex 33.1 53.5 29.6517694981696
vertex 4.56066017177982 51.0606601717798 29.6517694981696
vertex 4.79903810567666 50.75 29.6517694981696
endloop
endfacet
facet normal 0.0 0.0 1.0
outer loop
vertex 33.1 53.5 29.6517694981696
vertex 4.79903810567666 50.75 29.6517694981696
vertex 4.9488887394336 50.3882285676538 29.6517694981696
endloop
endfacet
facet normal 0.0 0.0 1.0
outer loop
vertex 33.1 53.5 29.6517694981696
vertex 4.9488887394336 50.3882285676538 29.6517694981696
vertex 5.0 50.0 29.6517694981696
endloop
endfacet
facet normal 0.0 0.0 1.0
outer loop
vertex 33.1 53.5 29.6517694981696
vertex 5.0 50.0 29.6517694981696
vertex 10.0 50.5 29.6517694981696
endloop
endfacet
facet normal 0.0 0.0 1.0
outer loop
vertex 33.1 53.5 29.6517694981696
vertex 10.0 50.5 29.6517694981696
vertex 23.1 50.5 29.6517694981696
endloop
endfacet
facet normal 0.0 0.0 1.0
outer loop
vertex 33.1 53.5 29.6517694981696
vertex 23.1 50.5 29.6517694981696
vertex 28.85 51.2990381056767 29.6517694981696
endloop
endfacet
facet normal 0.0 0.0 1.0
outer loop
vertex 28.85 51.2990381056767 29.6517694981696
vertex 23.1 50.5 29.6517694981696
vertex 28.5393398282202 51.0606601717798 29.6517694981696
endloop
endfacet
facet normal 0.0 0.0 1.0
outer loop
vertex 28.5393398282202 51.0606601717798 29.6517694981696
vertex 23.1 50.5 29.6517694981696
vertex 28.3009618943233 50.75 29.6517694981696
endloop
endfacet
facet normal 0.0 0.0 1.0
outer loop
vertex 28.3009618943233 50.75 29.6517694981696
vertex 23.1 50.5 29.6517694981696
vertex 28.1511112605664 50.3882285676538 29.6517694981696
endloop
endfacet
facet normal 0.0 0.0 1.0
outer loop
vertex 28.1511112605664 50.3882285676538 29.6517694981696
vertex 23.1 50.5 29.6517694981696
vertex 28.1 50.0 29.6517694981696
endloop
endfacet
facet normal 0.0 0.0 1.0
outer loop
vertex 33.1 53.5 29.6517694981696
vertex 28.85 51.2990381056767 29.6517694981696
vertex 29.2117714323462 51.4488887394336 29.6517694981696
endloop
endfacet
facet normal 0.0 0.0 1.0
outer loop
vertex 33.1 53.5 29.6517694981696
vertex 29.2117714323462 51.4488887394336 29.6517694981696
vertex 29.6 51.5 29.6517694981696
endloop
endfacet
facet normal 0.0 0.0 1.0
outer loop
vertex 33.1 53.5 29.6517694981696
vertex 29.6 51.5 29.6517694981696
vertex 29.9882285676538 51.4488887394336 29.6517694981696
endloop
endfacet
facet normal 0.0 0.0 1.0
outer loop
vertex 33.1 53.5 29.6517694981696
vertex 29.9882285676538 51.4488887394336 29.6517694981696
vertex 30.35 51.2990381056767 29.6517694981696
endloop
endfacet
facet normal 0.0 0.0 1.0
outer loop
vertex 33.1 53.5 29.6517694981696
vertex 30.35 51.2990381056767 29.6517694981696
vertex 30.6606601717798 51.0606601717798 29.6517694981696
endloop
endfacet
facet normal 0.0 0.0 1.0
outer loop
vertex 33.1 53.5 29.6517694981696
vertex 30.6606601717798 51.0606601717798 29.6517694981696
vertex 30.8990381056767 50.75 29.6517694981696
endloop
endfacet
facet normal 0.0 0.0 1.0
outer loop
vertex 33.1 53.5 29.6517694981696
vertex 30.8990381056767 50.75 29.6517694981696
vertex 31.0488887394336 50.3882285676538 29.6517694981696
endloop
endfacet
facet normal 0.0 0.0 1.0
outer loop
vertex 33.1 53.5 29.6517694981696
vertex 31.0488887394336 50.3882285676538 29.6517694981696
vertex 31.1 50.0 29.6517694981696
endloop
endfacet
facet normal 0.0 0.0 1.0
outer loop
vertex 33.1 53.5 29.6517694981696
vertex 31.1 50.0 29.6517694981696
vertex 33.1 0.0 29.6517694981696
endloop
endfacet
facet normal 0.0 0.0 1.0
outer loop
vertex 23.1 50.5 29.6517694981696
vertex 28.1511112605664 49.6117714323462 29.6517694981696
vertex 28.1 50.0 29.6517694981696
endloop
endfacet
facet normal 0.0 0.0 1.0
outer loop
vertex 28.1511112605664 49.6117714323462 29.6517694981696
vertex 23.1 50.5 29.6517694981696
vertex 30.1 43.5 29.6517694981696
endloop
endfacet
facet normal 0.0 0.0 1.0
outer loop
vertex 28.1511112605664 49.6117714323462 29.6517694981696
vertex 30.1 43.5 29.6517694981696
vertex 28.3009618943233 49.25 29.6517694981696
endloop
endfacet
facet normal 0.0 0.0 1.0
outer loop
vertex 28.3009618943233 49.25 29.6517694981696
vertex 30.1 43.5 29.6517694981696
vertex 28.5393398282202 48.9393398282202 29.6517694981696
endloop
endfacet
facet normal 0.0 0.0 1.0
outer loop
vertex 28.5393398282202 48.9393398282202 29.6517694981696
vertex 30.1 43.5 29.6517694981696
vertex 28.85 48.7009618943233 29.6517694981696
endloop
endfacet
facet normal 0.0 0.0 1.0
outer loop
vertex 28.85 48.7009618943233 29.6517694981696
vertex 30.1 43.5 29.6517694981696
vertex 29.2117714323462 48.5511112605664 29.6517694981696
endloop
endfacet
facet normal 0.0 0.0 1.0
outer loop
vertex 29.2117714323462 48.5511112605664 29.6517694981696
vertex 30.1 43.5 29.6517694981696
vertex 29.6 48.5 29.6517694981696
endloop
endfacet
facet normal 0.0 0.0 1.0
outer loop
vertex 29.6 48.5 29.6517694981696
vertex 30.1 43.5 29.6517694981696
vertex 29.9882285676538 48.5511112605664 29.6517694981696
endloop
endfacet
facet normal 0.0 0.0 1.0
outer loop
vertex 29.9882285676538 48.5511112605664 29.6517694981696
vertex 30.1 43.5 29.6517694981696
vertex 30.35 48.7009618943233 29.6517694981696
endloop
endfacet
facet normal 0.0 0.0 1.0
outer loop
vertex 30.35 48.7009618943233 29.6517694981696
vertex 30.1 43.5 29.6517694981696
vertex 30.2480047949479 4.85280811119851 29.6517694981696
endloop
endfacet
facet normal 0.0 0.0 1.0
outer loop
vertex 30.35 48.7009618943233 29.6517694981696
vertex 30.2480047949479 4.85280811119851 29.6517694981696
vertex 30.5760570705467 4.63899631036969 29.6517694981696
endloop
endfacet
facet normal 0.0 0.0 1.0
outer loop
vertex 30.35 48.7009618943233 29.6517694981696
vertex 30.5760570705467 4.63899631036969 29.6517694981696
vertex 30.6606601717798 48.9393398282202 29.6517694981696
endloop
endfacet
facet normal 0.0 0.0 1.0
outer loop
vertex 30.6606601717798 48.9393398282202 29.6517694981696
vertex 30.5760570705467 4.63899631036969 29.6517694981696
vertex 30.8375926697983 4.34756379326958 29.6517694981696
endloop
endfacet
facet normal 0.0 0.0 1.0
outer loop
vertex 30.6606601717798 48.9393398282202 29.6517694981696
vertex 30.8375926697983 4.34756379326958 29.6517694981696
vertex 30.8990381056767 49.25 29.6517694981696
endloop
endfacet
facet normal 0.0 0.0 1.0
outer loop
vertex 30.8990381056767 49.25 29.6517694981696
vertex 30.8375926697983 4.34756379326958 29.6517694981696
vertex 31.0147883738217 3.99837120432354 29.6517694981696
endloop
endfacet
facet normal 0.0 0.0 1.0
outer loop
vertex 30.8990381056767 49.25 29.6517694981696
vertex 31.0147883738217 3.99837120432354 29.6517694981696
vertex 31.0488887394336 49.6117714323462 29.6517694981696
endloop
endfacet
facet normal 0.0 0.0 1.0
outer loop
vertex 31.0488887394336 49.6117714323462 29.6517694981696
vertex 31.0147883738217 3.99837120432354 29.6517694981696
vertex 31.0955685882175 3.61521544140021 29.6517694981696
endloop
endfacet
facet normal 0.0 0.0 1.0
outer loop
vertex 31.0488887394336 49.6117714323462 29.6517694981696
vertex 31.0955685882175 3.61521544140021 29.6517694981696
vertex 31.1 50.0 29.6517694981696
endloop
endfacet
facet normal 0.866025403784439 0.499999999999999 0.0
outer loop
vertex 2.20096189432334 49.25 26.6517694981696
vertex 2.43933982822018 48.9393398282202 29.6517694981696
vertex 2.43933982822018 48.9393398282202 26.6517694981696
endloop
endfacet
facet normal 0.707106781186546 0.707106781186549 0.0
outer loop
vertex 2.43933982822018 48.9393398282202 29.6517694981696
vertex 2.20096189432334 49.25 26.6517694981696
vertex 2.20096189432334 49.25 29.6517694981696
endloop
endfacet
facet normal 1.0 0.0 0.0
outer loop
vertex 33.1 53.5 26.6517694981696
vertex 33.1 0.0 29.6517694981696
vertex 33.1 0.0 26.6517694981696
endloop
endfacet
facet normal 1.0 0.0 0.0
outer loop
vertex 33.1 0.0 29.6517694981696
vertex 33.1 53.5 26.6517694981696
vertex 33.1 53.5 29.6517694981696
endloop
endfacet
facet normal -0.0 -1.0 -0.0
outer loop
vertex 33.1 0.0 29.6517694981696
vertex 0.0 0.0 26.6517694981696
vertex 33.1 0.0 26.6517694981696
endloop
endfacet
facet normal -0.0 -1.0 -0.0
outer loop
vertex 0.0 0.0 26.6517694981696
vertex 33.1 0.0 29.6517694981696
vertex 0.0 0.0 29.6517694981696
endloop
endfacet
facet normal -0.0 1.0 0.0
outer loop
vertex 0.0 53.5 29.6517694981696
vertex 33.1 53.5 26.6517694981696
vertex 0.0 53.5 26.6517694981696
endloop
endfacet
facet normal -0.0 1.0 0.0
outer loop
vertex 33.1 53.5 26.6517694981696
vertex 0.0 53.5 29.6517694981696
vertex 33.1 53.5 29.6517694981696
endloop
endfacet
facet normal -1.0 0.0 0.0
outer loop
vertex 0.0 53.5 29.6517694981696
vertex 0.0 0.0 26.6517694981696
vertex 0.0 0.0 29.6517694981696
endloop
endfacet
facet normal -1.0 0.0 0.0
outer loop
vertex 0.0 0.0 26.6517694981696
vertex 0.0 53.5 29.6517694981696
vertex 0.0 53.5 26.6517694981696
endloop
endfacet
facet normal 0.739310422885524 -0.67336475896265 0.0
outer loop
vertex 2.39103436567172 4.51004713844398 26.6517694981696
vertex 2.16740201745467 4.18860919026405 29.6517694981696
vertex 2.16740201745467 4.18860919026405 26.6517694981696
endloop
endfacet
facet normal 0.888398655030222 -0.459072793509366 0.0
outer loop
vertex 2.16740201745467 4.18860919026405 29.6517694981696
vertex 2.39103436567172 4.51004713844398 26.6517694981696
vertex 2.39103436567172 4.51004713844398 29.6517694981696
endloop
endfacet
facet normal 0.888398655030222 -0.459072793509366 0.0
outer loop
vertex 2.16740201745467 4.18860919026405 26.6517694981696
vertex 2.03458401952579 3.82024366374812 29.6517694981696
vertex 2.03458401952579 3.82024366374812 26.6517694981696
endloop
endfacet
facet normal 0.976943986982805 -0.21349577583208 0.0
outer loop
vertex 2.03458401952579 3.82024366374812 29.6517694981696
vertex 2.16740201745467 4.18860919026405 26.6517694981696
vertex 2.16740201745467 4.18860919026405 29.6517694981696
endloop
endfacet
facet normal -0.998912200698783 -0.046630626149712 0.0
outer loop
vertex 4.99836830104817 3.56994593922457 29.6517694981696
vertex 4.96541598047421 3.17975633625188 26.6517694981696
vertex 4.96541598047421 3.17975633625188 29.6517694981696
endloop
endfacet
facet normal -0.976943986982805 0.213495775832078 0.0
outer loop
vertex 4.96541598047421 3.17975633625188 26.6517694981696
vertex 4.99836830104817 3.56994593922457 29.6517694981696
vertex 4.99836830104817 3.56994593922457 26.6517694981696
endloop
endfacet
facet normal -1.0 0.0 -0.0
outer loop
vertex 30.1 43.5 29.6517694981696
vertex 30.1 10.0 26.6517694981696
vertex 30.1 10.0 29.6517694981696
endloop
endfacet
facet normal -1.0 0.0 -0.0
outer loop
vertex 30.1 10.0 26.6517694981696
vertex 30.1 43.5 29.6517694981696
vertex 30.1 43.5 26.6517694981696
endloop
endfacet
facet normal -0.673364758962651 -0.739310422885523 0.0
outer loop
vertex 4.51004713844398 4.60896563432828 29.6517694981696
vertex 4.76265204332076 4.30975911078413 26.6517694981696
vertex 4.76265204332076 4.30975911078413 29.6517694981696
endloop
endfacet
facet normal -0.841768028880509 -0.539839407189418 0.0
outer loop
vertex 4.76265204332076 4.30975911078413 26.6517694981696
vertex 4.51004713844398 4.60896563432828 29.6517694981696
vertex 4.51004713844398 4.60896563432828 26.6517694981696
endloop
endfacet
facet normal 0.84176802888051 0.539839407189417 0.0
outer loop
vertex 2.23734795667924 2.69024088921587 26.6517694981696
vertex 2.48995286155602 2.39103436567172 29.6517694981696
vertex 2.48995286155602 2.39103436567172 26.6517694981696
endloop
endfacet
facet normal 0.673364758962651 0.739310422885523 0.0
outer loop
vertex 2.48995286155602 2.39103436567172 29.6517694981696
vertex 2.23734795667924 2.69024088921587 26.6517694981696
vertex 2.23734795667924 2.69024088921587 29.6517694981696
endloop
endfacet
facet normal 1.69311088017291e-16 1.0 0.0
outer loop
vertex 3.5 48.5 29.6517694981696
vertex 3.88822856765378 48.5511112605664 26.6517694981696
vertex 3.5 48.5 26.6517694981696
endloop
endfacet
facet normal -0.258819045102527 0.965925826289067 0.0
outer loop
vertex 3.88822856765378 48.5511112605664 26.6517694981696
vertex 3.5 48.5 29.6517694981696
vertex 3.88822856765378 48.5511112605664 29.6517694981696
endloop
endfacet
facet normal 0.673364758962651 0.739310422885523 0.0
outer loop
vertex 2.48995286155602 2.39103436567172 29.6517694981696
vertex 2.81139080973595 2.16740201745467 26.6517694981696
vertex 2.48995286155602 2.39103436567172 26.6517694981696
endloop
endfacet
facet normal 0.459072793509366 0.888398655030222 0.0
outer loop
vertex 2.81139080973595 2.16740201745467 26.6517694981696
vertex 2.48995286155602 2.39103436567172 29.6517694981696
vertex 2.81139080973595 2.16740201745467 29.6517694981696
endloop
endfacet
facet normal -0.303579228020154 0.952806198717603 0.0
outer loop
vertex 3.95536884203023 2.0707907019236 29.6517694981696
vertex 4.30975911078412 2.23734795667924 26.6517694981696
vertex 3.95536884203023 2.0707907019236 26.6517694981696
endloop
endfacet
facet normal -0.539839407189417 0.84176802888051 0.0
outer loop
vertex 4.30975911078412 2.23734795667924 26.6517694981696
vertex 3.95536884203023 2.0707907019236 29.6517694981696
vertex 4.30975911078412 2.23734795667924 29.6517694981696
endloop
endfacet
facet normal -0.539839407189417 0.84176802888051 0.0
outer loop
vertex 4.30975911078412 2.23734795667924 29.6517694981696
vertex 4.60896563432828 2.48995286155602 26.6517694981696
vertex 4.30975911078412 2.23734795667924 26.6517694981696
endloop
endfacet
facet normal -0.739310422885523 0.673364758962651 0.0
outer loop
vertex 4.60896563432828 2.48995286155602 26.6517694981696
vertex 4.30975911078412 2.23734795667924 29.6517694981696
vertex 4.60896563432828 2.48995286155602 29.6517694981696
endloop
endfacet
facet normal -0.888398655030222 0.459072793509366 0.0
outer loop
vertex 4.83259798254533 2.81139080973595 29.6517694981696
vertex 4.60896563432828 2.48995286155602 26.6517694981696
vertex 4.60896563432828 2.48995286155602 29.6517694981696
endloop
endfacet
facet normal -0.739310422885523 0.673364758962651 0.0
outer loop
vertex 4.60896563432828 2.48995286155602 26.6517694981696
vertex 4.83259798254533 2.81139080973595 29.6517694981696
vertex 4.83259798254533 2.81139080973595 26.6517694981696
endloop
endfacet
facet normal -0.976943986982805 0.213495775832078 0.0
outer loop
vertex 4.96541598047421 3.17975633625188 29.6517694981696
vertex 4.83259798254533 2.81139080973595 26.6517694981696
vertex 4.83259798254533 2.81139080973595 29.6517694981696
endloop
endfacet
facet normal -0.888398655030222 0.459072793509366 0.0
outer loop
vertex 4.83259798254533 2.81139080973595 26.6517694981696
vertex 4.96541598047421 3.17975633625188 29.6517694981696
vertex 4.96541598047421 3.17975633625188 26.6517694981696
endloop
endfacet
endsolid protoboard002
