solid protoboard003
facet normal -1.0 0.0 0.0
outer loop
vertex 24.2939547957683 50.5 14.1831426781602
vertex 24.2939547957683 0.0 12.7831426781602
vertex 24.2939547957683 0.0 14.1831426781602
endloop
endfacet
facet normal -1.0 0.0 0.0
outer loop
vertex 24.2939547957683 0.0 12.7831426781602
vertex 24.2939547957683 50.5 14.1831426781602
vertex 24.2939547957683 10.5 12.7831426781602
endloop
endfacet
facet normal -1.0 0.0 0.0
outer loop
vertex 24.2939547957683 10.5 12.7831426781602
vertex 24.2939547957683 50.5 11.1831426781602
vertex 24.2939547957683 10.5 11.1831426781602
endloop
endfacet
facet normal -1.0 0.0 0.0
outer loop
vertex 24.2939547957683 50.5 11.1831426781602
vertex 24.2939547957683 10.5 12.7831426781602
vertex 24.2939547957683 50.5 14.1831426781602
endloop
endfacet
facet normal 1.0 0.0 0.0
outer loop
vertex 33.0939547957682 53.5 11.1831426781602
vertex 33.0939547957682 1.04449565725807e-17 14.1831426781602
vertex 33.0939547957682 1.04449565725807e-17 11.1831426781602
endloop
endfacet
facet normal 1.0 0.0 0.0
outer loop
vertex 33.0939547957682 1.04449565725807e-17 14.1831426781602
vertex 33.0939547957682 53.5 11.1831426781602
vertex 33.0939547957682 53.5 14.1831426781602
endloop
endfacet
facet normal -0.0 -0.0 1.0
outer loop
vertex 33.0939547957682 1.04449565725807e-17 14.1831426781602
vertex 24.2939547957683 50.5 14.1831426781602
vertex 24.2939547957683 0.0 14.1831426781602
endloop
endfacet
facet normal -0.0 -0.0 1.0
outer loop
vertex 8.79395479576827 1.04449565725807e-17 14.1831426781602
vertex -0.00604520423173094 53.5 14.1831426781602
vertex -0.00604520423173094 1.04449565725807e-17 14.1831426781602
endloop
endfacet
facet normal -0.0 -0.0 1.0
outer loop
vertex -0.00604520423173094 53.5 14.1831426781602
vertex 8.79395479576827 1.04449565725807e-17 14.1831426781602
vertex 8.79395479576827 50.5 14.1831426781602
endloop
endfacet
facet normal -0.0 -0.0 1.0
outer loop
vertex -0.00604520423173094 53.5 14.1831426781602
vertex 8.79395479576827 50.5 14.1831426781602
vertex 33.0939547957682 53.5 14.1831426781602
endloop
endfacet
facet normal -0.0 -0.0 1.0
outer loop
vertex 33.0939547957682 53.5 14.1831426781602
vertex 8.79395479576827 50.5 14.1831426781602
vertex 24.2939547957683 50.5 14.1831426781602
endloop
endfacet
facet normal -0.0 -0.0 1.0
outer loop
vertex 33.0939547957682 53.5 14.1831426781602
vertex 24.2939547957683 50.5 14.1831426781602
vertex 33.0939547957682 1.04449565725807e-17 14.1831426781602
endloop
endfacet
facet normal 1.0 -0.0 -0.0
outer loop
vertex 8.79395479576827 50.5 11.1831426781602
vertex 8.79395479576827 10.5 12.7831426781602
vertex 8.79395479576827 10.5 11.1831426781602
endloop
endfacet
facet normal 1.0 -0.0 -0.0
outer loop
vertex 8.79395479576827 10.5 12.7831426781602
vertex 8.79395479576827 1.04449565725807e-17 14.1831426781602
vertex 8.79395479576827 1.04449565725807e-17 12.7831426781602
endloop
endfacet
facet normal 1.0 -0.0 -0.0
outer loop
vertex 8.79395479576827 1.04449565725807e-17 14.1831426781602
vertex 8.79395479576827 10.5 12.7831426781602
vertex 8.79395479576827 50.5 14.1831426781602
endloop
endfacet
facet normal 1.0 -0.0 -0.0
outer loop
vertex 8.79395479576827 50.5 14.1831426781602
vertex 8.79395479576827 10.5 12.7831426781602
vertex 8.79395479576827 50.5 11.1831426781602
endloop
endfacet
facet normal 1.24946169709457e-18 -1.0 2.07385086523165e-19
outer loop
vertex 33.0939547957682 1.04449565725807e-17 14.1831426781602
vertex 25.2939547957683 0.0 11.1831426781602
vertex 33.0939547957682 1.04449565725807e-17 11.1831426781602
endloop
endfacet
facet normal 1.24946169709457e-18 -1.0 2.07385086523165e-19
outer loop
vertex 25.2939547957683 0.0 11.1831426781602
vertex 33.0939547957682 1.04449565725807e-17 14.1831426781602
vertex 25.2939547957683 0.0 12.7831426781602
endloop
endfacet
facet normal 1.24946169709457e-18 -1.0 2.07385086523165e-19
outer loop
vertex 25.2939547957683 0.0 12.7831426781602
vertex 33.0939547957682 1.04449565725807e-17 14.1831426781602
vertex 24.2939547957683 0.0 12.7831426781602
endloop
endfacet
facet normal 1.24946169709457e-18 -1.0 2.07385086523165e-19
outer loop
vertex 24.2939547957683 0.0 12.7831426781602
vertex 33.0939547957682 1.04449565725807e-17 14.1831426781602
vertex 24.2939547957683 0.0 14.1831426781602
endloop
endfacet
facet normal 0.0 -1.0 0.0
outer loop
vertex 24.2939547957683 50.5 14.1831426781602
vertex 8.79395479576827 50.5 11.1831426781602
vertex 24.2939547957683 50.5 11.1831426781602
endloop
endfacet
facet normal 0.0 -1.0 0.0
outer loop
vertex 8.79395479576827 50.5 11.1831426781602
vertex 24.2939547957683 50.5 14.1831426781602
vertex 8.79395479576827 50.5 14.1831426781602
endloop
endfacet
facet normal -7.49556290572992e-18 3.28667579610707e-17 -1.0
outer loop
vertex -0.00604520423173094 53.5 11.1831426781602
vertex 8.79395479576827 50.5 11.1831426781602
vertex -0.00604520423173094 1.04449565725807e-17 11.1831426781602
endloop
endfacet
facet normal -7.49556290572992e-18 3.28667579610707e-17 -1.0
outer loop
vertex 8.79395479576827 50.5 11.1831426781602
vertex -0.00604520423173094 53.5 11.1831426781602
vertex 33.0939547957682 53.5 11.1831426781602
endloop
endfacet
facet normal -7.49556290572992e-18 3.28667579610707e-17 -1.0
outer loop
vertex -0.00604520423173094 1.04449565725807e-17 11.1831426781602
vertex 8.79395479576827 50.5 11.1831426781602
vertex 7.79395479576827 10.5 11.1831426781602
endloop
endfacet
facet normal -7.49556290572992e-18 3.28667579610707e-17 -1.0
outer loop
vertex 8.79395479576827 50.5 11.1831426781602
vertex 33.0939547957682 53.5 11.1831426781602
vertex 24.2939547957683 50.5 11.1831426781602
endloop
endfacet
facet normal -7.49556290572992e-18 3.28667579610707e-17 -1.0
outer loop
vertex 24.2939547957683 50.5 11.1831426781602
vertex 33.0939547957682 53.5 11.1831426781602
vertex 24.2939547957683 10.5 11.1831426781602
endloop
endfacet
facet normal -7.49556290572992e-18 3.28667579610707e-17 -1.0
outer loop
vertex 24.2939547957683 10.5 11.1831426781602
vertex 33.0939547957682 53.5 11.1831426781602
vertex 25.2939547957683 10.5 11.1831426781602
endloop
endfacet
facet normal -7.49556290572992e-18 3.28667579610707e-17 -1.0
outer loop
vertex 25.2939547957683 10.5 11.1831426781602
vertex 33.0939547957682 53.5 11.1831426781602
vertex 25.2939547957683 0.0 11.1831426781602
endloop
endfacet
facet normal -7.49556290572992e-18 3.28667579610707e-17 -1.0
outer loop
vertex 25.2939547957683 0.0 11.1831426781602
vertex 33.0939547957682 53.5 11.1831426781602
vertex 33.0939547957682 1.04449565725807e-17 11.1831426781602
endloop
endfacet
facet normal -7.49556290572992e-18 3.28667579610707e-17 -1.0
outer loop
vertex 8.79395479576827 10.5 11.1831426781602
vertex 7.79395479576827 10.5 11.1831426781602
vertex 8.79395479576827 50.5 11.1831426781602
endloop
endfacet
facet normal -7.49556290572992e-18 3.28667579610707e-17 -1.0
outer loop
vertex 7.79395479576827 1.04449565725807e-17 11.1831426781602
vertex -0.00604520423173094 1.04449565725807e-17 11.1831426781602
vertex 7.79395479576827 10.5 11.1831426781602
endloop
endfacet
facet normal -0.0 1.0 -0.0
outer loop
vertex -0.00604520423173094 53.5 14.1831426781602
vertex 33.0939547957682 53.5 11.1831426781602
vertex -0.00604520423173094 53.5 11.1831426781602
endloop
endfacet
facet normal -0.0 1.0 -0.0
outer loop
vertex 33.0939547957682 53.5 11.1831426781602
vertex -0.00604520423173094 53.5 14.1831426781602
vertex 33.0939547957682 53.5 14.1831426781602
endloop
endfacet
facet normal 1.0 0.0 0.0
outer loop
vertex 7.79395479576827 10.5 11.1831426781602
vertex 7.79395479576827 1.04449565725807e-17 12.7831426781602
vertex 7.79395479576827 1.04449565725807e-17 11.1831426781602
endloop
endfacet
facet normal 1.0 0.0 0.0
outer loop
vertex 7.79395479576827 1.04449565725807e-17 12.7831426781602
vertex 7.79395479576827 10.5 11.1831426781602
vertex 7.79395479576827 10.5 12.7831426781602
endloop
endfacet
facet normal 0.0 0.0 -1.0
outer loop
vertex 25.2939547957683 10.5 12.7831426781602
vertex 24.2939547957683 0.0 12.7831426781602
vertex 24.2939547957683 10.5 12.7831426781602
endloop
endfacet
facet normal 0.0 0.0 -1.0
outer loop
vertex 24.2939547957683 0.0 12.7831426781602
vertex 25.2939547957683 10.5 12.7831426781602
vertex 25.2939547957683 0.0 12.7831426781602
endloop
endfacet
facet normal 0.0 -1.0 0.0
outer loop
vertex 8.79395479576827 10.5 12.7831426781602
vertex 7.79395479576827 10.5 11.1831426781602
vertex 8.79395479576827 10.5 11.1831426781602
endloop
endfacet
facet normal 0.0 -1.0 0.0
outer loop
vertex 7.79395479576827 10.5 11.1831426781602
vertex 8.79395479576827 10.5 12.7831426781602
vertex 7.79395479576827 10.5 12.7831426781602
endloop
endfacet
facet normal 0.0 0.0 -1.0
outer loop
vertex 8.79395479576827 10.5 12.7831426781602
vertex 7.79395479576827 1.04449565725807e-17 12.7831426781602
vertex 7.79395479576827 10.5 12.7831426781602
endloop
endfacet
facet normal 0.0 0.0 -1.0
outer loop
vertex 7.79395479576827 1.04449565725807e-17 12.7831426781602
vertex 8.79395479576827 10.5 12.7831426781602
vertex 8.79395479576827 1.04449565725807e-17 12.7831426781602
endloop
endfacet
facet normal 0.0 -1.0 0.0
outer loop
vertex 8.79395479576827 1.04449565725807e-17 14.1831426781602
vertex 7.79395479576827 1.04449565725807e-17 12.7831426781602
vertex 8.79395479576827 1.04449565725807e-17 12.7831426781602
endloop
endfacet
facet normal 0.0 -1.0 0.0
outer loop
vertex 7.79395479576827 1.04449565725807e-17 12.7831426781602
vertex -0.00604520423173094 1.04449565725807e-17 11.1831426781602
vertex 7.79395479576827 1.04449565725807e-17 11.1831426781602
endloop
endfacet
facet normal 0.0 -1.0 0.0
outer loop
vertex -0.00604520423173094 1.04449565725807e-17 11.1831426781602
vertex 7.79395479576827 1.04449565725807e-17 12.7831426781602
vertex -0.00604520423173094 1.04449565725807e-17 14.1831426781602
endloop
endfacet
facet normal 0.0 -1.0 0.0
outer loop
vertex -0.00604520423173094 1.04449565725807e-17 14.1831426781602
vertex 7.79395479576827 1.04449565725807e-17 12.7831426781602
vertex 8.79395479576827 1.04449565725807e-17 14.1831426781602
endloop
endfacet
facet normal -1.0 0.0 0.0
outer loop
vertex -0.00604520423173094 53.5 14.1831426781602
vertex -0.00604520423173094 1.04449565725807e-17 11.1831426781602
vertex -0.00604520423173094 1.04449565725807e-17 14.1831426781602
endloop
endfacet
facet normal -1.0 0.0 0.0
outer loop
vertex -0.00604520423173094 1.04449565725807e-17 11.1831426781602
vertex -0.00604520423173094 53.5 14.1831426781602
vertex -0.00604520423173094 53.5 11.1831426781602
endloop
endfacet
facet normal -1.0 0.0 0.0
outer loop
vertex 25.2939547957683 10.5 12.7831426781602
vertex 25.2939547957683 0.0 11.1831426781602
vertex 25.2939547957683 0.0 12.7831426781602
endloop
endfacet
facet normal -1.0 0.0 0.0
outer loop
vertex 25.2939547957683 0.0 11.1831426781602
vertex 25.2939547957683 10.5 12.7831426781602
vertex 25.2939547957683 10.5 11.1831426781602
endloop
endfacet
facet normal 0.0 -1.0 8.81239525796218e-16
outer loop
vertex 25.2939547957683 10.5 12.7831426781602
vertex 24.2939547957683 10.5 11.1831426781602
vertex 25.2939547957683 10.5 11.1831426781602
endloop
endfacet
facet normal 0.0 -1.0 8.81239525796218e-16
outer loop
vertex 24.2939547957683 10.5 11.1831426781602
vertex 25.2939547957683 10.5 12.7831426781602
vertex 24.2939547957683 10.5 12.7831426781602
endloop
endfacet
endsolid protoboard003
