solid protoboard
facet normal 0.0 0.0 -1.0
outer loop
vertex 33.1 53.5 0.0
vertex 0.0 0.0 0.0
vertex 0.0 53.5 0.0
endloop
endfacet
facet normal 0.0 0.0 -1.0
outer loop
vertex 0.0 0.0 0.0
vertex 33.1 53.5 0.0
vertex 33.1 0.0 0.0
endloop
endfacet
facet normal 1.0 0.0 0.0
outer loop
vertex 33.1 53.5 0.0
vertex 33.1 0.0 1.56
vertex 33.1 0.0 0.0
endloop
endfacet
facet normal 1.0 0.0 0.0
outer loop
vertex 33.1 0.0 1.56
vertex 33.1 53.5 0.0
vertex 33.1 53.5 1.56
endloop
endfacet
facet normal 0.0 -1.0 0.0
outer loop
vertex 29.1 0.0 6.56
vertex 24.1 0.0 1.56
vertex 29.1 0.0 1.56
endloop
endfacet
facet normal 0.0 -1.0 0.0
outer loop
vertex 24.1 0.0 1.56
vertex 29.1 0.0 6.56
vertex 24.1 0.0 6.56
endloop
endfacet
facet normal 0.0 -1.0 0.0
outer loop
vertex 9.0 0.0 6.31
vertex 4.0 0.0 1.56
vertex 9.0 0.0 1.56
endloop
endfacet
facet normal 0.0 -1.0 0.0
outer loop
vertex 4.0 0.0 1.56
vertex 9.0 0.0 6.31
vertex 4.0 0.0 6.31
endloop
endfacet
facet normal 0.0 -1.0 0.0
outer loop
vertex 33.1 0.0 1.56
vertex 0.0 0.0 0.0
vertex 33.1 0.0 0.0
endloop
endfacet
facet normal 0.0 -1.0 0.0
outer loop
vertex 0.0 0.0 0.0
vertex 33.1 0.0 1.56
vertex 0.0 0.0 1.56
endloop
endfacet
facet normal 0.0 -1.0 0.0
outer loop
vertex 0.0 0.0 1.56
vertex 33.1 0.0 1.56
vertex 29.1 0.0 1.56
endloop
endfacet
facet normal 0.0 -1.0 0.0
outer loop
vertex 0.0 0.0 1.56
vertex 29.1 0.0 1.56
vertex 24.1 0.0 1.56
endloop
endfacet
facet normal 0.0 -1.0 0.0
outer loop
vertex 0.0 0.0 1.56
vertex 24.1 0.0 1.56
vertex 9.0 0.0 1.56
endloop
endfacet
facet normal 0.0 -1.0 0.0
outer loop
vertex 0.0 0.0 1.56
vertex 9.0 0.0 1.56
vertex 4.0 0.0 1.56
endloop
endfacet
facet normal -1.0 0.0 0.0
outer loop
vertex 0.0 53.5 1.56
vertex 0.0 0.0 0.0
vertex 0.0 0.0 1.56
endloop
endfacet
facet normal -1.0 0.0 0.0
outer loop
vertex 0.0 0.0 0.0
vertex 0.0 53.5 1.56
vertex 0.0 53.5 0.0
endloop
endfacet
facet normal -0.0 1.0 0.0
outer loop
vertex 0.0 53.5 1.56
vertex 33.1 53.5 0.0
vertex 0.0 53.5 0.0
endloop
endfacet
facet normal -0.0 1.0 0.0
outer loop
vertex 33.1 53.5 0.0
vertex 0.0 53.5 1.56
vertex 33.1 53.5 1.56
endloop
endfacet
facet normal -0.0 -0.0 1.0
outer loop
vertex 24.1 0.0 1.56
vertex 9.0 25.0 1.56
vertex 9.0 0.0 1.56
endloop
endfacet
facet normal -0.0 -0.0 1.0
outer loop
vertex 33.1 0.0 1.56
vertex 29.1 25.0 1.56
vertex 29.1 0.0 1.56
endloop
endfacet
facet normal -0.0 -0.0 1.0
outer loop
vertex 4.0 0.0 1.56
vertex 0.0 53.5 1.56
vertex 0.0 0.0 1.56
endloop
endfacet
facet normal -0.0 -0.0 1.0
outer loop
vertex 0.0 53.5 1.56
vertex 4.0 0.0 1.56
vertex 4.0 25.0 1.56
endloop
endfacet
facet normal -0.0 -0.0 1.0
outer loop
vertex 0.0 53.5 1.56
vertex 4.0 25.0 1.56
vertex 33.1 53.5 1.56
endloop
endfacet
facet normal -0.0 -0.0 1.0
outer loop
vertex 33.1 53.5 1.56
vertex 4.0 25.0 1.56
vertex 9.0 25.0 1.56
endloop
endfacet
facet normal -0.0 -0.0 1.0
outer loop
vertex 33.1 53.5 1.56
vertex 9.0 25.0 1.56
vertex 24.1 25.0 1.56
endloop
endfacet
facet normal -0.0 -0.0 1.0
outer loop
vertex 24.1 25.0 1.56
vertex 9.0 25.0 1.56
vertex 24.1 0.0 1.56
endloop
endfacet
facet normal -0.0 -0.0 1.0
outer loop
vertex 33.1 53.5 1.56
vertex 24.1 25.0 1.56
vertex 29.1 25.0 1.56
endloop
endfacet
facet normal -0.0 -0.0 1.0
outer loop
vertex 33.1 53.5 1.56
vertex 29.1 25.0 1.56
vertex 33.1 0.0 1.56
endloop
endfacet
facet normal 0.0 0.0 1.0
outer loop
vertex 9.0 0.0 6.31
vertex 4.0 25.0 6.31
vertex 4.0 0.0 6.31
endloop
endfacet
facet normal 0.0 0.0 1.0
outer loop
vertex 4.0 25.0 6.31
vertex 9.0 0.0 6.31
vertex 9.0 25.0 6.31
endloop
endfacet
facet normal 1.0 -0.0 0.0
outer loop
vertex 9.0 25.0 1.56
vertex 9.0 0.0 6.31
vertex 9.0 0.0 1.56
endloop
endfacet
facet normal 1.0 -0.0 0.0
outer loop
vertex 9.0 0.0 6.31
vertex 9.0 25.0 1.56
vertex 9.0 25.0 6.31
endloop
endfacet
facet normal 0.0 1.0 0.0
outer loop
vertex 4.0 25.0 6.31
vertex 9.0 25.0 1.56
vertex 4.0 25.0 1.56
endloop
endfacet
facet normal 0.0 1.0 0.0
outer loop
vertex 9.0 25.0 1.56
vertex 4.0 25.0 6.31
vertex 9.0 25.0 6.31
endloop
endfacet
facet normal -1.0 -0.0 -0.0
outer loop
vertex 4.0 25.0 6.31
vertex 4.0 0.0 1.56
vertex 4.0 0.0 6.31
endloop
endfacet
facet normal -1.0 -0.0 -0.0
outer loop
vertex 4.0 0.0 1.56
vertex 4.0 25.0 6.31
vertex 4.0 25.0 1.56
endloop
endfacet
facet normal 0.0 0.0 1.0
outer loop
vertex 29.1 0.0 6.56
vertex 24.1 25.0 6.56
vertex 24.1 0.0 6.56
endloop
endfacet
facet normal 0.0 0.0 1.0
outer loop
vertex 24.1 25.0 6.56
vertex 29.1 0.0 6.56
vertex 29.1 25.0 6.56
endloop
endfacet
facet normal 1.0 -0.0 0.0
outer loop
vertex 29.1 25.0 1.56
vertex 29.1 0.0 6.56
vertex 29.1 0.0 1.56
endloop
endfacet
facet normal 1.0 -0.0 0.0
outer loop
vertex 29.1 0.0 6.56
vertex 29.1 25.0 1.56
vertex 29.1 25.0 6.56
endloop
endfacet
facet normal 0.0 1.0 0.0
outer loop
vertex 24.1 25.0 6.56
vertex 29.1 25.0 1.56
vertex 24.1 25.0 1.56
endloop
endfacet
facet normal 0.0 1.0 0.0
outer loop
vertex 29.1 25.0 1.56
vertex 24.1 25.0 6.56
vertex 29.1 25.0 6.56
endloop
endfacet
facet normal -1.0 -0.0 -0.0
outer loop
vertex 24.1 25.0 6.56
vertex 24.1 0.0 1.56
vertex 24.1 0.0 6.56
endloop
endfacet
facet normal -1.0 -0.0 -0.0
outer loop
vertex 24.1 0.0 1.56
vertex 24.1 25.0 6.56
vertex 24.1 25.0 1.56
endloop
endfacet
endsolid protoboard
