solid widerboard-test
facet normal -0.99144486137381 0.130526192220052 0.0
outer loop
vertex 0.0342205545047587 62.5221047688802 0.0
vertex 0.0 62.0 -2.7
vertex 0.0 62.0 0.0
endloop
endfacet
facet normal -0.997858923238603 0.0654031292301438 0.0
outer loop
vertex 0.0 62.0 -2.7
vertex 0.0342205545047587 62.5221047688802 0.0
vertex 0.0342205545047587 62.5221047688802 -2.7
endloop
endfacet
facet normal -0.965925826289069 0.258819045102519 0.0
outer loop
vertex 0.136296694843727 63.0352761804101 0.0
vertex 0.0342205545047587 62.5221047688802 -2.7
vertex 0.0342205545047587 62.5221047688802 0.0
endloop
endfacet
facet normal -0.99144486137381 0.130526192220052 0.0
outer loop
vertex 0.0342205545047587 62.5221047688802 -2.7
vertex 0.136296694843727 63.0352761804101 0.0
vertex 0.136296694843727 63.0352761804101 -2.7
endloop
endfacet
facet normal -0.923879532511286 0.382683432365092 0.0
outer loop
vertex 0.304481869954854 63.5307337294604 0.0
vertex 0.136296694843727 63.0352761804101 -2.7
vertex 0.136296694843727 63.0352761804101 0.0
endloop
endfacet
facet normal -0.965925826289069 0.258819045102519 0.0
outer loop
vertex 0.136296694843727 63.0352761804101 -2.7
vertex 0.304481869954854 63.5307337294604 0.0
vertex 0.304481869954854 63.5307337294604 -2.7
endloop
endfacet
facet normal -0.866025403784436 0.500000000000004 0.0
outer loop
vertex 0.535898384862247 64.0 0.0
vertex 0.304481869954854 63.5307337294604 -2.7
vertex 0.304481869954854 63.5307337294604 0.0
endloop
endfacet
facet normal -0.923879532511286 0.382683432365092 0.0
outer loop
vertex 0.304481869954854 63.5307337294604 -2.7
vertex 0.535898384862247 64.0 0.0
vertex 0.535898384862247 64.0 -2.7
endloop
endfacet
facet normal -0.793353340291235 0.608761429008721 0.0
outer loop
vertex 0.826586638835061 64.4350457160349 0.0
vertex 0.535898384862247 64.0 -2.7
vertex 0.535898384862247 64.0 0.0
endloop
endfacet
facet normal -0.866025403784436 0.500000000000004 0.0
outer loop
vertex 0.535898384862247 64.0 -2.7
vertex 0.826586638835061 64.4350457160349 0.0
vertex 0.826586638835061 64.4350457160349 -2.7
endloop
endfacet
facet normal -0.707106781186551 0.707106781186544 0.0
outer loop
vertex 1.17157287525381 64.8284271247462 0.0
vertex 0.826586638835061 64.4350457160349 -2.7
vertex 0.826586638835061 64.4350457160349 0.0
endloop
endfacet
facet normal -0.793353340291235 0.608761429008721 0.0
outer loop
vertex 0.826586638835061 64.4350457160349 -2.7
vertex 1.17157287525381 64.8284271247462 0.0
vertex 1.17157287525381 64.8284271247462 -2.7
endloop
endfacet
facet normal -0.707106781186551 0.707106781186544 0.0
outer loop
vertex 1.17157287525381 64.8284271247462 0.0
vertex 1.56495428396512 65.1734133611649 -2.7
vertex 1.17157287525381 64.8284271247462 -2.7
endloop
endfacet
facet normal -0.608761429008724 0.793353340291233 0.0
outer loop
vertex 1.56495428396512 65.1734133611649 -2.7
vertex 1.17157287525381 64.8284271247462 0.0
vertex 1.56495428396512 65.1734133611649 0.0
endloop
endfacet
facet normal -0.608761429008724 0.793353340291233 0.0
outer loop
vertex 1.56495428396512 65.1734133611649 0.0
vertex 2.0 65.4641016151377 -2.7
vertex 1.56495428396512 65.1734133611649 -2.7
endloop
endfacet
facet normal -0.499999999999999 0.866025403784439 0.0
outer loop
vertex 2.0 65.4641016151377 -2.7
vertex 1.56495428396512 65.1734133611649 0.0
vertex 2.0 65.4641016151377 0.0
endloop
endfacet
facet normal -0.499999999999999 0.866025403784439 0.0
outer loop
vertex 2.0 65.4641016151377 0.0
vertex 2.46926627053964 65.6955181300451 -2.7
vertex 2.0 65.4641016151377 -2.7
endloop
endfacet
facet normal -0.382683432365081 0.92387953251129 0.0
outer loop
vertex 2.46926627053964 65.6955181300451 -2.7
vertex 2.0 65.4641016151377 0.0
vertex 2.46926627053964 65.6955181300451 0.0
endloop
endfacet
facet normal -0.382683432365081 0.92387953251129 0.0
outer loop
vertex 2.46926627053964 65.6955181300451 0.0
vertex 2.96472381958992 65.8637033051563 -2.7
vertex 2.46926627053964 65.6955181300451 -2.7
endloop
endfacet
facet normal -0.258819045102519 0.965925826289069 0.0
outer loop
vertex 2.96472381958992 65.8637033051563 -2.7
vertex 2.46926627053964 65.6955181300451 0.0
vertex 2.96472381958992 65.8637033051563 0.0
endloop
endfacet
facet normal -0.258819045102519 0.965925826289069 0.0
outer loop
vertex 2.96472381958992 65.8637033051563 0.0
vertex 3.4778952311198 65.9657794454952 -2.7
vertex 2.96472381958992 65.8637033051563 -2.7
endloop
endfacet
facet normal -0.130526192220051 0.99144486137381 0.0
outer loop
vertex 3.4778952311198 65.9657794454952 -2.7
vertex 2.96472381958992 65.8637033051563 0.0
vertex 3.4778952311198 65.9657794454952 0.0
endloop
endfacet
facet normal -0.130526192220051 0.99144486137381 0.0
outer loop
vertex 3.4778952311198 65.9657794454952 0.0
vertex 4.00000000000001 66.0 -2.7
vertex 3.4778952311198 65.9657794454952 -2.7
endloop
endfacet
facet normal -0.0654031292301302 0.997858923238604 0.0
outer loop
vertex 4.00000000000001 66.0 -2.7
vertex 3.4778952311198 65.9657794454952 0.0
vertex 4.00000000000001 66.0 0.0
endloop
endfacet
facet normal -2.96838577110305e-16 1.0 0.0
outer loop
vertex 4.00000000000001 66.0 0.0
vertex 42.0 66.0 -2.7
vertex 4.00000000000001 66.0 -2.7
endloop
endfacet
facet normal -2.96838577110305e-16 1.0 0.0
outer loop
vertex 42.0 66.0 -2.7
vertex 4.00000000000001 66.0 0.0
vertex 42.0 66.0 0.0
endloop
endfacet
facet normal 0.0654031292301519 0.997858923238603 0.0
outer loop
vertex 42.0 66.0 0.0
vertex 42.5221047688802 65.9657794454952 -2.7
vertex 42.0 66.0 -2.7
endloop
endfacet
facet normal 0.130526192220051 0.99144486137381 0.0
outer loop
vertex 42.5221047688802 65.9657794454952 -2.7
vertex 42.0 66.0 0.0
vertex 42.5221047688802 65.9657794454952 0.0
endloop
endfacet
facet normal 0.130526192220051 0.99144486137381 0.0
outer loop
vertex 42.5221047688802 65.9657794454952 0.0
vertex 43.0352761804101 65.8637033051563 -2.7
vertex 42.5221047688802 65.9657794454952 -2.7
endloop
endfacet
facet normal 0.258819045102519 0.965925826289069 0.0
outer loop
vertex 43.0352761804101 65.8637033051563 -2.7
vertex 42.5221047688802 65.9657794454952 0.0
vertex 43.0352761804101 65.8637033051563 0.0
endloop
endfacet
facet normal 0.258819045102519 0.965925826289069 0.0
outer loop
vertex 43.0352761804101 65.8637033051563 0.0
vertex 43.5307337294604 65.6955181300451 -2.7
vertex 43.0352761804101 65.8637033051563 -2.7
endloop
endfacet
facet normal 0.382683432365091 0.923879532511286 0.0
outer loop
vertex 43.5307337294604 65.6955181300451 -2.7
vertex 43.0352761804101 65.8637033051563 0.0
vertex 43.5307337294604 65.6955181300451 0.0
endloop
endfacet
facet normal 0.382683432365091 0.923879532511286 0.0
outer loop
vertex 43.5307337294604 65.6955181300451 0.0
vertex 44.0 65.4641016151377 -2.7
vertex 43.5307337294604 65.6955181300451 -2.7
endloop
endfacet
facet normal 0.499999999999999 0.866025403784439 0.0
outer loop
vertex 44.0 65.4641016151377 -2.7
vertex 43.5307337294604 65.6955181300451 0.0
vertex 44.0 65.4641016151377 0.0
endloop
endfacet
facet normal 0.499999999999999 0.866025403784439 0.0
outer loop
vertex 44.0 65.4641016151377 0.0
vertex 44.4350457160349 65.1734133611649 -2.7
vertex 44.0 65.4641016151377 -2.7
endloop
endfacet
facet normal 0.608761429008718 0.793353340291237 0.0
outer loop
vertex 44.4350457160349 65.1734133611649 -2.7
vertex 44.0 65.4641016151377 0.0
vertex 44.4350457160349 65.1734133611649 0.0
endloop
endfacet
facet normal 0.608761429008718 0.793353340291237 0.0
outer loop
vertex 44.4350457160349 65.1734133611649 0.0
vertex 44.8284271247462 64.8284271247462 -2.7
vertex 44.4350457160349 65.1734133611649 -2.7
endloop
endfacet
facet normal 0.707106781186547 0.707106781186547 0.0
outer loop
vertex 44.8284271247462 64.8284271247462 -2.7
vertex 44.4350457160349 65.1734133611649 0.0
vertex 44.8284271247462 64.8284271247462 0.0
endloop
endfacet
facet normal 0.707106781186547 0.707106781186547 0.0
outer loop
vertex 44.8284271247462 64.8284271247462 -2.7
vertex 45.1734133611649 64.4350457160349 0.0
vertex 45.1734133611649 64.4350457160349 -2.7
endloop
endfacet
facet normal 0.793353340291234 0.608761429008721 0.0
outer loop
vertex 45.1734133611649 64.4350457160349 0.0
vertex 44.8284271247462 64.8284271247462 -2.7
vertex 44.8284271247462 64.8284271247462 0.0
endloop
endfacet
facet normal 0.793353340291234 0.608761429008721 0.0
outer loop
vertex 45.1734133611649 64.4350457160349 -2.7
vertex 45.4641016151378 64.0 0.0
vertex 45.4641016151378 64.0 -2.7
endloop
endfacet
facet normal 0.86602540378444 0.499999999999998 0.0
outer loop
vertex 45.4641016151378 64.0 0.0
vertex 45.1734133611649 64.4350457160349 -2.7
vertex 45.1734133611649 64.4350457160349 0.0
endloop
endfacet
facet normal 0.86602540378444 0.499999999999998 0.0
outer loop
vertex 45.4641016151378 64.0 -2.7
vertex 45.6955181300451 63.5307337294604 0.0
vertex 45.6955181300451 63.5307337294604 -2.7
endloop
endfacet
facet normal 0.923879532511289 0.382683432365083 0.0
outer loop
vertex 45.6955181300451 63.5307337294604 0.0
vertex 45.4641016151378 64.0 -2.7
vertex 45.4641016151378 64.0 0.0
endloop
endfacet
facet normal 0.923879532511289 0.382683432365083 0.0
outer loop
vertex 45.6955181300451 63.5307337294604 -2.7
vertex 45.8637033051563 63.0352761804101 0.0
vertex 45.8637033051563 63.0352761804101 -2.7
endloop
endfacet
facet normal 0.965925826289068 0.258819045102522 0.0
outer loop
vertex 45.8637033051563 63.0352761804101 0.0
vertex 45.6955181300451 63.5307337294604 -2.7
vertex 45.6955181300451 63.5307337294604 0.0
endloop
endfacet
facet normal 0.965925826289068 0.258819045102522 0.0
outer loop
vertex 45.8637033051563 63.0352761804101 -2.7
vertex 45.9657794454952 62.5221047688802 0.0
vertex 45.9657794454952 62.5221047688802 -2.7
endloop
endfacet
facet normal 0.991444861373811 0.130526192220047 0.0
outer loop
vertex 45.9657794454952 62.5221047688802 0.0
vertex 45.8637033051563 63.0352761804101 -2.7
vertex 45.8637033051563 63.0352761804101 0.0
endloop
endfacet
facet normal 0.991444861373811 0.130526192220047 0.0
outer loop
vertex 45.9657794454952 62.5221047688802 -2.7
vertex 46.0 62.0 0.0
vertex 46.0 62.0 -2.7
endloop
endfacet
facet normal 0.997858923238604 0.0654031292301304 0.0
outer loop
vertex 46.0 62.0 0.0
vertex 45.9657794454952 62.5221047688802 -2.7
vertex 45.9657794454952 62.5221047688802 0.0
endloop
endfacet
facet normal -1.0 0.0 0.0
outer loop
vertex 0.0 62.0 0.0
vertex 0.0 32.95 -2.7
vertex 0.0 32.95 0.0
endloop
endfacet
facet normal -1.0 0.0 0.0
outer loop
vertex 0.0 32.95 -2.7
vertex 0.0 62.0 0.0
vertex 0.0 62.0 -2.7
endloop
endfacet
facet normal 0.0 -1.0 0.0
outer loop
vertex 46.0 32.95 0.0
vertex 0.0 32.95 -2.7
vertex 46.0 32.95 -2.7
endloop
endfacet
facet normal 0.0 -1.0 0.0
outer loop
vertex 0.0 32.95 -2.7
vertex 46.0 32.95 0.0
vertex 0.0 32.95 0.0
endloop
endfacet
facet normal -0.0 -0.0 1.0
outer loop
vertex 0.0 32.95 -2.7
vertex 20.5760455605131 45.9252336988759 -2.7
vertex 0.0 62.0 -2.7
endloop
endfacet
facet normal -0.0 -0.0 1.0
outer loop
vertex 20.5760455605131 45.9252336988759 -2.7
vertex 0.0 32.95 -2.7
vertex 21.3120974083155 45.3838974509999 -2.7
endloop
endfacet
facet normal -0.0 -0.0 1.0
outer loop
vertex 21.3120974083155 45.3838974509999 -2.7
vertex 0.0 32.95 -2.7
vertex 46.0 32.95 -2.7
endloop
endfacet
facet normal -0.0 -0.0 1.0
outer loop
vertex 0.0 62.0 -2.7
vertex 20.5760455605131 45.9252336988759 -2.7
vertex 0.0342205545047587 62.5221047688802 -2.7
endloop
endfacet
facet normal -0.0 -0.0 1.0
outer loop
vertex 0.0342205545047587 62.5221047688802 -2.7
vertex 20.5760455605131 45.9252336988759 -2.7
vertex 0.136296694843727 63.0352761804101 -2.7
endloop
endfacet
facet normal -0.0 -0.0 1.0
outer loop
vertex 0.136296694843727 63.0352761804101 -2.7
vertex 20.5760455605131 45.9252336988759 -2.7
vertex 0.304481869954854 63.5307337294604 -2.7
endloop
endfacet
facet normal -0.0 -0.0 1.0
outer loop
vertex 0.304481869954854 63.5307337294604 -2.7
vertex 20.5760455605131 45.9252336988759 -2.7
vertex 0.535898384862247 64.0 -2.7
endloop
endfacet
facet normal -0.0 -0.0 1.0
outer loop
vertex 0.535898384862247 64.0 -2.7
vertex 20.5760455605131 45.9252336988759 -2.7
vertex 0.826586638835061 64.4350457160349 -2.7
endloop
endfacet
facet normal -0.0 -0.0 1.0
outer loop
vertex 0.826586638835061 64.4350457160349 -2.7
vertex 20.5760455605131 45.9252336988759 -2.7
vertex 1.17157287525381 64.8284271247462 -2.7
endloop
endfacet
facet normal -0.0 -0.0 1.0
outer loop
vertex 1.17157287525381 64.8284271247462 -2.7
vertex 20.5760455605131 45.9252336988759 -2.7
vertex 1.56495428396512 65.1734133611649 -2.7
endloop
endfacet
facet normal -0.0 -0.0 1.0
outer loop
vertex 1.56495428396512 65.1734133611649 -2.7
vertex 20.5760455605131 45.9252336988759 -2.7
vertex 2.0 65.4641016151377 -2.7
endloop
endfacet
facet normal -0.0 -0.0 1.0
outer loop
vertex 2.0 65.4641016151377 -2.7
vertex 20.5760455605131 45.9252336988759 -2.7
vertex 2.46926627053964 65.6955181300451 -2.7
endloop
endfacet
facet normal -0.0 -0.0 1.0
outer loop
vertex 2.46926627053964 65.6955181300451 -2.7
vertex 20.5760455605131 45.9252336988759 -2.7
vertex 2.96472381958992 65.8637033051563 -2.7
endloop
endfacet
facet normal -0.0 -0.0 1.0
outer loop
vertex 2.96472381958992 65.8637033051563 -2.7
vertex 20.5760455605131 45.9252336988759 -2.7
vertex 3.4778952311198 65.9657794454952 -2.7
endloop
endfacet
facet normal -0.0 -0.0 1.0
outer loop
vertex 3.4778952311198 65.9657794454952 -2.7
vertex 20.5760455605131 45.9252336988759 -2.7
vertex 4.00000000000001 66.0 -2.7
endloop
endfacet
facet normal -0.0 -0.0 1.0
outer loop
vertex 4.00000000000001 66.0 -2.7
vertex 20.5760455605131 45.9252336988759 -2.7
vertex 20.0051822019876 46.6386285978 -2.7
endloop
endfacet
facet normal -0.0 -0.0 1.0
outer loop
vertex 4.00000000000001 66.0 -2.7
vertex 20.0051822019876 46.6386285978 -2.7
vertex 19.6384107272262 47.4754654643512 -2.7
endloop
endfacet
facet normal -0.0 -0.0 1.0
outer loop
vertex 4.00000000000001 66.0 -2.7
vertex 19.6384107272262 47.4754654643512 -2.7
vertex 19.5007260061155 48.3787152490123 -2.7
endloop
endfacet
facet normal -0.0 -0.0 1.0
outer loop
vertex 21.3120974083155 45.3838974509999 -2.7
vertex 46.0 32.95 -2.7
vertex 22.1631770283503 45.0515110248642 -2.7
endloop
endfacet
facet normal -0.0 -0.0 1.0
outer loop
vertex 22.1631770283503 45.0515110248642 -2.7
vertex 46.0 32.95 -2.7
vertex 23.0 44.9586374408337 -2.7
endloop
endfacet
facet normal -0.0 -0.0 1.0
outer loop
vertex 23.0 44.9586374408337 -2.7
vertex 46.0 32.95 -2.7
vertex 23.0712847509877 44.9507260061155 -2.7
endloop
endfacet
facet normal -0.0 -0.0 1.0
outer loop
vertex 23.0712847509877 44.9507260061155 -2.7
vertex 46.0 32.95 -2.7
vertex 23.9745345356488 45.0884107272262 -2.7
endloop
endfacet
facet normal -0.0 -0.0 1.0
outer loop
vertex 23.9745345356488 45.0884107272262 -2.7
vertex 46.0 32.95 -2.7
vertex 24.8113714022 45.4551822019876 -2.7
endloop
endfacet
facet normal -0.0 -0.0 1.0
outer loop
vertex 24.8113714022 45.4551822019876 -2.7
vertex 46.0 32.95 -2.7
vertex 25.5247663011241 46.0260455605131 -2.7
endloop
endfacet
facet normal -0.0 -0.0 1.0
outer loop
vertex 25.5247663011241 46.0260455605131 -2.7
vertex 46.0 32.95 -2.7
vertex 26.0661025490001 46.7620974083155 -2.7
endloop
endfacet
facet normal -0.0 -0.0 1.0
outer loop
vertex 26.0661025490001 46.7620974083155 -2.7
vertex 46.0 32.95 -2.7
vertex 26.3984889751358 47.6131770283503 -2.7
endloop
endfacet
facet normal -0.0 -0.0 1.0
outer loop
vertex 26.3984889751358 47.6131770283503 -2.7
vertex 46.0 32.95 -2.7
vertex 26.4992739938845 48.5212847509877 -2.7
endloop
endfacet
facet normal -0.0 -0.0 1.0
outer loop
vertex 26.4992739938845 48.5212847509877 -2.7
vertex 46.0 32.95 -2.7
vertex 42.0 66.0 -2.7
endloop
endfacet
facet normal -0.0 -0.0 1.0
outer loop
vertex 42.0 66.0 -2.7
vertex 46.0 32.95 -2.7
vertex 42.5221047688802 65.9657794454952 -2.7
endloop
endfacet
facet normal -0.0 -0.0 1.0
outer loop
vertex 42.5221047688802 65.9657794454952 -2.7
vertex 46.0 32.95 -2.7
vertex 43.0352761804101 65.8637033051563 -2.7
endloop
endfacet
facet normal -0.0 -0.0 1.0
outer loop
vertex 43.0352761804101 65.8637033051563 -2.7
vertex 46.0 32.95 -2.7
vertex 43.5307337294604 65.6955181300451 -2.7
endloop
endfacet
facet normal -0.0 -0.0 1.0
outer loop
vertex 43.5307337294604 65.6955181300451 -2.7
vertex 46.0 32.95 -2.7
vertex 44.0 65.4641016151377 -2.7
endloop
endfacet
facet normal -0.0 -0.0 1.0
outer loop
vertex 44.0 65.4641016151377 -2.7
vertex 46.0 32.95 -2.7
vertex 44.4350457160349 65.1734133611649 -2.7
endloop
endfacet
facet normal -0.0 -0.0 1.0
outer loop
vertex 44.4350457160349 65.1734133611649 -2.7
vertex 46.0 32.95 -2.7
vertex 44.8284271247462 64.8284271247462 -2.7
endloop
endfacet
facet normal -0.0 -0.0 1.0
outer loop
vertex 44.8284271247462 64.8284271247462 -2.7
vertex 46.0 32.95 -2.7
vertex 45.1734133611649 64.4350457160349 -2.7
endloop
endfacet
facet normal -0.0 -0.0 1.0
outer loop
vertex 45.1734133611649 64.4350457160349 -2.7
vertex 46.0 32.95 -2.7
vertex 45.4641016151378 64.0 -2.7
endloop
endfacet
facet normal -0.0 -0.0 1.0
outer loop
vertex 45.4641016151378 64.0 -2.7
vertex 46.0 32.95 -2.7
vertex 45.6955181300451 63.5307337294604 -2.7
endloop
endfacet
facet normal -0.0 -0.0 1.0
outer loop
vertex 45.6955181300451 63.5307337294604 -2.7
vertex 46.0 32.95 -2.7
vertex 45.8637033051563 63.0352761804101 -2.7
endloop
endfacet
facet normal -0.0 -0.0 1.0
outer loop
vertex 45.8637033051563 63.0352761804101 -2.7
vertex 46.0 32.95 -2.7
vertex 45.9657794454952 62.5221047688802 -2.7
endloop
endfacet
facet normal -0.0 -0.0 1.0
outer loop
vertex 45.9657794454952 62.5221047688802 -2.7
vertex 46.0 32.95 -2.7
vertex 46.0 62.0 -2.7
endloop
endfacet
facet normal -0.0 -0.0 1.0
outer loop
vertex 4.00000000000001 66.0 -2.7
vertex 21.1886285978 51.4448177980124 -2.7
vertex 42.0 66.0 -2.7
endloop
endfacet
facet normal -0.0 -0.0 1.0
outer loop
vertex 21.1886285978 51.4448177980124 -2.7
vertex 4.00000000000001 66.0 -2.7
vertex 20.4752336988759 50.8739544394869 -2.7
endloop
endfacet
facet normal -0.0 -0.0 1.0
outer loop
vertex 20.4752336988759 50.8739544394869 -2.7
vertex 4.00000000000001 66.0 -2.7
vertex 19.9338974509999 50.1379025916845 -2.7
endloop
endfacet
facet normal -0.0 -0.0 1.0
outer loop
vertex 19.9338974509999 50.1379025916845 -2.7
vertex 4.00000000000001 66.0 -2.7
vertex 19.6015110248642 49.2868229716497 -2.7
endloop
endfacet
facet normal -0.0 -0.0 1.0
outer loop
vertex 19.6015110248642 49.2868229716497 -2.7
vertex 4.00000000000001 66.0 -2.7
vertex 19.5007260061155 48.3787152490123 -2.7
endloop
endfacet
facet normal -0.0 -0.0 1.0
outer loop
vertex 42.0 66.0 -2.7
vertex 21.1886285978 51.4448177980124 -2.7
vertex 22.0254654643512 51.8115892727738 -2.7
endloop
endfacet
facet normal -0.0 -0.0 1.0
outer loop
vertex 42.0 66.0 -2.7
vertex 22.0254654643512 51.8115892727738 -2.7
vertex 22.9287152490123 51.9492739938845 -2.7
endloop
endfacet
facet normal -0.0 -0.0 1.0
outer loop
vertex 42.0 66.0 -2.7
vertex 22.9287152490123 51.9492739938845 -2.7
vertex 23.0 51.9413625591663 -2.7
endloop
endfacet
facet normal -0.0 -0.0 1.0
outer loop
vertex 42.0 66.0 -2.7
vertex 23.0 51.9413625591663 -2.7
vertex 23.8368229716497 51.8484889751358 -2.7
endloop
endfacet
facet normal -0.0 -0.0 1.0
outer loop
vertex 42.0 66.0 -2.7
vertex 23.8368229716497 51.8484889751358 -2.7
vertex 24.6879025916845 51.5161025490001 -2.7
endloop
endfacet
facet normal -0.0 -0.0 1.0
outer loop
vertex 42.0 66.0 -2.7
vertex 24.6879025916845 51.5161025490001 -2.7
vertex 25.4239544394869 50.9747663011241 -2.7
endloop
endfacet
facet normal -0.0 -0.0 1.0
outer loop
vertex 42.0 66.0 -2.7
vertex 25.4239544394869 50.9747663011241 -2.7
vertex 25.9948177980124 50.2613714022 -2.7
endloop
endfacet
facet normal -0.0 -0.0 1.0
outer loop
vertex 42.0 66.0 -2.7
vertex 25.9948177980124 50.2613714022 -2.7
vertex 26.3615892727738 49.4245345356488 -2.7
endloop
endfacet
facet normal -0.0 -0.0 1.0
outer loop
vertex 42.0 66.0 -2.7
vertex 26.3615892727738 49.4245345356488 -2.7
vertex 26.4992739938845 48.5212847509877 -2.7
endloop
endfacet
facet normal 1.0 -0.0 -0.0
outer loop
vertex 46.0 62.0 -2.7
vertex 46.0 32.95 0.0
vertex 46.0 32.95 -2.7
endloop
endfacet
facet normal 1.0 -0.0 -0.0
outer loop
vertex 46.0 32.95 0.0
vertex 46.0 62.0 -2.7
vertex 46.0 62.0 0.0
endloop
endfacet
facet normal -0.0 -0.0 1.0
outer loop
vertex 22.0254654643512 51.8115892727738 0.0
vertex 21.5 55.952897800838 0.0
vertex 21.1886285978 51.4448177980124 0.0
endloop
endfacet
facet normal -0.0 -0.0 1.0
outer loop
vertex 21.5 55.952897800838 0.0
vertex 22.0254654643512 51.8115892727738 0.0
vertex 24.5 55.952897800838 0.0
endloop
endfacet
facet normal -0.0 -0.0 1.0
outer loop
vertex 24.5 55.952897800838 0.0
vertex 22.0254654643512 51.8115892727738 0.0
vertex 22.9287152490123 51.9492739938845 0.0
endloop
endfacet
facet normal -0.0 -0.0 1.0
outer loop
vertex 24.5 55.952897800838 0.0
vertex 22.9287152490123 51.9492739938845 0.0
vertex 23.0 51.9413625591663 0.0
endloop
endfacet
facet normal -0.0 -0.0 1.0
outer loop
vertex 24.5 55.952897800838 0.0
vertex 23.0 51.9413625591663 0.0
vertex 23.8368229716497 51.8484889751358 0.0
endloop
endfacet
facet normal -0.0 -0.0 1.0
outer loop
vertex 24.5 55.952897800838 0.0
vertex 23.8368229716497 51.8484889751358 0.0
vertex 24.6879025916845 51.5161025490001 0.0
endloop
endfacet
facet normal -0.0 -0.0 1.0
outer loop
vertex 24.5 55.952897800838 0.0
vertex 24.6879025916845 51.5161025490001 0.0
vertex 24.5 57.952897800838 0.0
endloop
endfacet
facet normal -0.0 -0.0 1.0
outer loop
vertex 0.0 32.95 0.0
vertex 20.5760455605131 45.9252336988759 0.0
vertex 0.0 62.0 0.0
endloop
endfacet
facet normal -0.0 -0.0 1.0
outer loop
vertex 20.5760455605131 45.9252336988759 0.0
vertex 0.0 32.95 0.0
vertex 21.3120974083155 45.3838974509999 0.0
endloop
endfacet
facet normal -0.0 -0.0 1.0
outer loop
vertex 21.3120974083155 45.3838974509999 0.0
vertex 0.0 32.95 0.0
vertex 46.0 32.95 0.0
endloop
endfacet
facet normal -0.0 -0.0 1.0
outer loop
vertex 0.0 62.0 0.0
vertex 20.5760455605131 45.9252336988759 0.0
vertex 0.0342205545047587 62.5221047688802 0.0
endloop
endfacet
facet normal -0.0 -0.0 1.0
outer loop
vertex 0.0342205545047587 62.5221047688802 0.0
vertex 20.5760455605131 45.9252336988759 0.0
vertex 0.136296694843727 63.0352761804101 0.0
endloop
endfacet
facet normal -0.0 -0.0 1.0
outer loop
vertex 0.136296694843727 63.0352761804101 0.0
vertex 20.5760455605131 45.9252336988759 0.0
vertex 0.304481869954854 63.5307337294604 0.0
endloop
endfacet
facet normal -0.0 -0.0 1.0
outer loop
vertex 0.304481869954854 63.5307337294604 0.0
vertex 20.5760455605131 45.9252336988759 0.0
vertex 0.535898384862247 64.0 0.0
endloop
endfacet
facet normal -0.0 -0.0 1.0
outer loop
vertex 0.535898384862247 64.0 0.0
vertex 20.5760455605131 45.9252336988759 0.0
vertex 0.826586638835061 64.4350457160349 0.0
endloop
endfacet
facet normal -0.0 -0.0 1.0
outer loop
vertex 0.826586638835061 64.4350457160349 0.0
vertex 20.5760455605131 45.9252336988759 0.0
vertex 1.17157287525381 64.8284271247462 0.0
endloop
endfacet
facet normal -0.0 -0.0 1.0
outer loop
vertex 1.17157287525381 64.8284271247462 0.0
vertex 20.5760455605131 45.9252336988759 0.0
vertex 1.56495428396512 65.1734133611649 0.0
endloop
endfacet
facet normal -0.0 -0.0 1.0
outer loop
vertex 1.56495428396512 65.1734133611649 0.0
vertex 20.5760455605131 45.9252336988759 0.0
vertex 2.0 65.4641016151377 0.0
endloop
endfacet
facet normal -0.0 -0.0 1.0
outer loop
vertex 2.0 65.4641016151377 0.0
vertex 20.5760455605131 45.9252336988759 0.0
vertex 2.46926627053964 65.6955181300451 0.0
endloop
endfacet
facet normal -0.0 -0.0 1.0
outer loop
vertex 2.46926627053964 65.6955181300451 0.0
vertex 20.5760455605131 45.9252336988759 0.0
vertex 2.96472381958992 65.8637033051563 0.0
endloop
endfacet
facet normal -0.0 -0.0 1.0
outer loop
vertex 2.96472381958992 65.8637033051563 0.0
vertex 20.5760455605131 45.9252336988759 0.0
vertex 3.4778952311198 65.9657794454952 0.0
endloop
endfacet
facet normal -0.0 -0.0 1.0
outer loop
vertex 3.4778952311198 65.9657794454952 0.0
vertex 20.5760455605131 45.9252336988759 0.0
vertex 4.00000000000001 66.0 0.0
endloop
endfacet
facet normal -0.0 -0.0 1.0
outer loop
vertex 4.00000000000001 66.0 0.0
vertex 20.5760455605131 45.9252336988759 0.0
vertex 20.0051822019876 46.6386285978 0.0
endloop
endfacet
facet normal -0.0 -0.0 1.0
outer loop
vertex 4.00000000000001 66.0 0.0
vertex 20.0051822019876 46.6386285978 0.0
vertex 19.6384107272262 47.4754654643512 0.0
endloop
endfacet
facet normal -0.0 -0.0 1.0
outer loop
vertex 4.00000000000001 66.0 0.0
vertex 19.6384107272262 47.4754654643512 0.0
vertex 19.5007260061155 48.3787152490123 0.0
endloop
endfacet
facet normal -0.0 -0.0 1.0
outer loop
vertex 21.3120974083155 45.3838974509999 0.0
vertex 46.0 32.95 0.0
vertex 22.1631770283503 45.0515110248642 0.0
endloop
endfacet
facet normal -0.0 -0.0 1.0
outer loop
vertex 22.1631770283503 45.0515110248642 0.0
vertex 46.0 32.95 0.0
vertex 23.0 44.9586374408337 0.0
endloop
endfacet
facet normal -0.0 -0.0 1.0
outer loop
vertex 23.0 44.9586374408337 0.0
vertex 46.0 32.95 0.0
vertex 23.0712847509877 44.9507260061155 0.0
endloop
endfacet
facet normal -0.0 -0.0 1.0
outer loop
vertex 23.0712847509877 44.9507260061155 0.0
vertex 46.0 32.95 0.0
vertex 23.9745345356488 45.0884107272262 0.0
endloop
endfacet
facet normal -0.0 -0.0 1.0
outer loop
vertex 23.9745345356488 45.0884107272262 0.0
vertex 46.0 32.95 0.0
vertex 24.8113714022 45.4551822019876 0.0
endloop
endfacet
facet normal -0.0 -0.0 1.0
outer loop
vertex 24.8113714022 45.4551822019876 0.0
vertex 46.0 32.95 0.0
vertex 25.5247663011241 46.0260455605131 0.0
endloop
endfacet
facet normal -0.0 -0.0 1.0
outer loop
vertex 25.5247663011241 46.0260455605131 0.0
vertex 46.0 32.95 0.0
vertex 26.0661025490001 46.7620974083155 0.0
endloop
endfacet
facet normal -0.0 -0.0 1.0
outer loop
vertex 26.0661025490001 46.7620974083155 0.0
vertex 46.0 32.95 0.0
vertex 26.3984889751358 47.6131770283503 0.0
endloop
endfacet
facet normal -0.0 -0.0 1.0
outer loop
vertex 26.3984889751358 47.6131770283503 0.0
vertex 46.0 32.95 0.0
vertex 26.4992739938845 48.5212847509877 0.0
endloop
endfacet
facet normal -0.0 -0.0 1.0
outer loop
vertex 26.4992739938845 48.5212847509877 0.0
vertex 46.0 32.95 0.0
vertex 42.0 66.0 0.0
endloop
endfacet
facet normal -0.0 -0.0 1.0
outer loop
vertex 42.0 66.0 0.0
vertex 46.0 32.95 0.0
vertex 42.5221047688802 65.9657794454952 0.0
endloop
endfacet
facet normal -0.0 -0.0 1.0
outer loop
vertex 42.5221047688802 65.9657794454952 0.0
vertex 46.0 32.95 0.0
vertex 43.0352761804101 65.8637033051563 0.0
endloop
endfacet
facet normal -0.0 -0.0 1.0
outer loop
vertex 43.0352761804101 65.8637033051563 0.0
vertex 46.0 32.95 0.0
vertex 43.5307337294604 65.6955181300451 0.0
endloop
endfacet
facet normal -0.0 -0.0 1.0
outer loop
vertex 43.5307337294604 65.6955181300451 0.0
vertex 46.0 32.95 0.0
vertex 44.0 65.4641016151377 0.0
endloop
endfacet
facet normal -0.0 -0.0 1.0
outer loop
vertex 44.0 65.4641016151377 0.0
vertex 46.0 32.95 0.0
vertex 44.4350457160349 65.1734133611649 0.0
endloop
endfacet
facet normal -0.0 -0.0 1.0
outer loop
vertex 44.4350457160349 65.1734133611649 0.0
vertex 46.0 32.95 0.0
vertex 44.8284271247462 64.8284271247462 0.0
endloop
endfacet
facet normal -0.0 -0.0 1.0
outer loop
vertex 44.8284271247462 64.8284271247462 0.0
vertex 46.0 32.95 0.0
vertex 45.1734133611649 64.4350457160349 0.0
endloop
endfacet
facet normal -0.0 -0.0 1.0
outer loop
vertex 45.1734133611649 64.4350457160349 0.0
vertex 46.0 32.95 0.0
vertex 45.4641016151378 64.0 0.0
endloop
endfacet
facet normal -0.0 -0.0 1.0
outer loop
vertex 45.4641016151378 64.0 0.0
vertex 46.0 32.95 0.0
vertex 45.6955181300451 63.5307337294604 0.0
endloop
endfacet
facet normal -0.0 -0.0 1.0
outer loop
vertex 45.6955181300451 63.5307337294604 0.0
vertex 46.0 32.95 0.0
vertex 45.8637033051563 63.0352761804101 0.0
endloop
endfacet
facet normal -0.0 -0.0 1.0
outer loop
vertex 45.8637033051563 63.0352761804101 0.0
vertex 46.0 32.95 0.0
vertex 45.9657794454952 62.5221047688802 0.0
endloop
endfacet
facet normal -0.0 -0.0 1.0
outer loop
vertex 45.9657794454952 62.5221047688802 0.0
vertex 46.0 32.95 0.0
vertex 46.0 62.0 0.0
endloop
endfacet
facet normal -0.0 -0.0 1.0
outer loop
vertex 4.00000000000001 66.0 0.0
vertex 21.5 57.952897800838 0.0
vertex 42.0 66.0 0.0
endloop
endfacet
facet normal -0.0 -0.0 1.0
outer loop
vertex 21.5 57.952897800838 0.0
vertex 4.00000000000001 66.0 0.0
vertex 19.6015110248642 49.2868229716497 0.0
endloop
endfacet
facet normal -0.0 -0.0 1.0
outer loop
vertex 19.6015110248642 49.2868229716497 0.0
vertex 4.00000000000001 66.0 0.0
vertex 19.5007260061155 48.3787152490123 0.0
endloop
endfacet
facet normal -0.0 -0.0 1.0
outer loop
vertex 21.5 57.952897800838 0.0
vertex 19.6015110248642 49.2868229716497 0.0
vertex 19.9338974509999 50.1379025916845 0.0
endloop
endfacet
facet normal -0.0 -0.0 1.0
outer loop
vertex 21.5 57.952897800838 0.0
vertex 19.9338974509999 50.1379025916845 0.0
vertex 20.4752336988759 50.8739544394869 0.0
endloop
endfacet
facet normal -0.0 -0.0 1.0
outer loop
vertex 21.5 57.952897800838 0.0
vertex 20.4752336988759 50.8739544394869 0.0
vertex 21.1886285978 51.4448177980124 0.0
endloop
endfacet
facet normal -0.0 -0.0 1.0
outer loop
vertex 21.5 57.952897800838 0.0
vertex 21.1886285978 51.4448177980124 0.0
vertex 21.5 55.952897800838 0.0
endloop
endfacet
facet normal -0.0 -0.0 1.0
outer loop
vertex 42.0 66.0 0.0
vertex 21.5 57.952897800838 0.0
vertex 24.5 57.952897800838 0.0
endloop
endfacet
facet normal -0.0 -0.0 1.0
outer loop
vertex 42.0 66.0 0.0
vertex 24.5 57.952897800838 0.0
vertex 24.6879025916845 51.5161025490001 0.0
endloop
endfacet
facet normal -0.0 -0.0 1.0
outer loop
vertex 42.0 66.0 0.0
vertex 24.6879025916845 51.5161025490001 0.0
vertex 25.4239544394869 50.9747663011241 0.0
endloop
endfacet
facet normal -0.0 -0.0 1.0
outer loop
vertex 42.0 66.0 0.0
vertex 25.4239544394869 50.9747663011241 0.0
vertex 25.9948177980124 50.2613714022 0.0
endloop
endfacet
facet normal -0.0 -0.0 1.0
outer loop
vertex 42.0 66.0 0.0
vertex 25.9948177980124 50.2613714022 0.0
vertex 26.3615892727738 49.4245345356488 0.0
endloop
endfacet
facet normal -0.0 -0.0 1.0
outer loop
vertex 42.0 66.0 0.0
vertex 26.3615892727738 49.4245345356488 0.0
vertex 26.4992739938845 48.5212847509877 0.0
endloop
endfacet
facet normal 0.239092277614202 0.97099685003879 0.0
outer loop
vertex 22.1631770283503 45.0515110248642 0.0
vertex 23.0 44.9586374408337 -2.7
vertex 22.1631770283503 45.0515110248642 -2.7
endloop
endfacet
facet normal 0.110306288541529 0.993897641967317 0.0
outer loop
vertex 23.0 44.9586374408337 -2.7
vertex 22.1631770283503 45.0515110248642 0.0
vertex 23.0 44.9586374408337 0.0
endloop
endfacet
facet normal 0.110306288541571 0.993897641967312 0.0
outer loop
vertex 23.0 44.9586374408337 0.0
vertex 23.0712847509877 44.9507260061155 -2.7
vertex 23.0 44.9586374408337 -2.7
endloop
endfacet
facet normal -0.020367071710744 0.999792569681296 0.0
outer loop
vertex 23.0712847509877 44.9507260061155 -2.7
vertex 23.0 44.9586374408337 0.0
vertex 23.0712847509877 44.9507260061155 0.0
endloop
endfacet
facet normal -0.020367071710744 0.999792569681296 0.0
outer loop
vertex 23.0712847509877 44.9507260061155 0.0
vertex 23.9745345356488 45.0884107272262 -2.7
vertex 23.0712847509877 44.9507260061155 -2.7
endloop
endfacet
facet normal -0.278438438756815 0.960454077935363 0.0
outer loop
vertex 23.9745345356488 45.0884107272262 -2.7
vertex 23.0712847509877 44.9507260061155 0.0
vertex 23.9745345356488 45.0884107272262 0.0
endloop
endfacet
facet normal -0.278438438756815 0.960454077935363 0.0
outer loop
vertex 23.9745345356488 45.0884107272262 0.0
vertex 24.8113714022 45.4551822019876 -2.7
vertex 23.9745345356488 45.0884107272262 -2.7
endloop
endfacet
facet normal -0.517534686342865 0.855662228003546 0.0
outer loop
vertex 24.8113714022 45.4551822019876 -2.7
vertex 23.9745345356488 45.0884107272262 0.0
vertex 24.8113714022 45.4551822019876 0.0
endloop
endfacet
facet normal -0.517534686342865 0.855662228003546 0.0
outer loop
vertex 24.8113714022 45.4551822019876 0.0
vertex 25.5247663011241 46.0260455605131 -2.7
vertex 24.8113714022 45.4551822019876 -2.7
endloop
endfacet
facet normal -0.721361800321159 0.692558411281977 0.0
outer loop
vertex 25.5247663011241 46.0260455605131 -2.7
vertex 24.8113714022 45.4551822019876 0.0
vertex 25.5247663011241 46.0260455605131 0.0
endloop
endfacet
facet normal -0.876029299714307 0.482257883338429 0.0
outer loop
vertex 26.0661025490001 46.7620974083155 0.0
vertex 25.5247663011241 46.0260455605131 -2.7
vertex 25.5247663011241 46.0260455605131 0.0
endloop
endfacet
facet normal -0.721361800321159 0.692558411281977 0.0
outer loop
vertex 25.5247663011241 46.0260455605131 -2.7
vertex 26.0661025490001 46.7620974083155 0.0
vertex 26.0661025490001 46.7620974083155 -2.7
endloop
endfacet
facet normal -0.970996850038791 0.239092277614201 0.0
outer loop
vertex 26.3984889751358 47.6131770283503 0.0
vertex 26.0661025490001 46.7620974083155 -2.7
vertex 26.0661025490001 46.7620974083155 0.0
endloop
endfacet
facet normal -0.876029299714307 0.482257883338429 0.0
outer loop
vertex 26.0661025490001 46.7620974083155 -2.7
vertex 26.3984889751358 47.6131770283503 0.0
vertex 26.3984889751358 47.6131770283503 -2.7
endloop
endfacet
facet normal -0.999792569681296 -0.0203670717107605 0.0
outer loop
vertex 26.4992739938845 48.5212847509877 0.0
vertex 26.3984889751358 47.6131770283503 -2.7
vertex 26.3984889751358 47.6131770283503 0.0
endloop
endfacet
facet normal -0.970996850038791 0.239092277614201 0.0
outer loop
vertex 26.3984889751358 47.6131770283503 -2.7
vertex 26.4992739938845 48.5212847509877 0.0
vertex 26.4992739938845 48.5212847509877 -2.7
endloop
endfacet
facet normal -0.960454077935364 -0.278438438756811 0.0
outer loop
vertex 26.3615892727738 49.4245345356488 0.0
vertex 26.4992739938845 48.5212847509877 -2.7
vertex 26.4992739938845 48.5212847509877 0.0
endloop
endfacet
facet normal -0.999792569681296 -0.0203670717107605 0.0
outer loop
vertex 26.4992739938845 48.5212847509877 -2.7
vertex 26.3615892727738 49.4245345356488 0.0
vertex 26.3615892727738 49.4245345356488 -2.7
endloop
endfacet
facet normal -0.855662228003545 -0.517534686342866 0.0
outer loop
vertex 25.9948177980124 50.2613714022 0.0
vertex 26.3615892727738 49.4245345356488 -2.7
vertex 26.3615892727738 49.4245345356488 0.0
endloop
endfacet
facet normal -0.960454077935364 -0.278438438756811 0.0
outer loop
vertex 26.3615892727738 49.4245345356488 -2.7
vertex 25.9948177980124 50.2613714022 0.0
vertex 25.9948177980124 50.2613714022 -2.7
endloop
endfacet
facet normal -0.692558411281976 -0.72136180032116 0.0
outer loop
vertex 25.4239544394869 50.9747663011241 0.0
vertex 25.9948177980124 50.2613714022 -2.7
vertex 25.9948177980124 50.2613714022 0.0
endloop
endfacet
facet normal -0.855662228003545 -0.517534686342866 0.0
outer loop
vertex 25.9948177980124 50.2613714022 -2.7
vertex 25.4239544394869 50.9747663011241 0.0
vertex 25.4239544394869 50.9747663011241 -2.7
endloop
endfacet
facet normal -0.692558411281976 -0.72136180032116 0.0
outer loop
vertex 25.4239544394869 50.9747663011241 0.0
vertex 24.6879025916845 51.5161025490001 -2.7
vertex 25.4239544394869 50.9747663011241 -2.7
endloop
endfacet
facet normal -0.482257883338431 -0.876029299714306 0.0
outer loop
vertex 24.6879025916845 51.5161025490001 -2.7
vertex 25.4239544394869 50.9747663011241 0.0
vertex 24.6879025916845 51.5161025490001 0.0
endloop
endfacet
facet normal -0.482257883338431 -0.876029299714306 0.0
outer loop
vertex 24.6879025916845 51.5161025490001 0.0
vertex 23.8368229716497 51.8484889751358 -2.7
vertex 24.6879025916845 51.5161025490001 -2.7
endloop
endfacet
facet normal -0.239092277614201 -0.970996850038791 0.0
outer loop
vertex 23.8368229716497 51.8484889751358 -2.7
vertex 24.6879025916845 51.5161025490001 0.0
vertex 23.8368229716497 51.8484889751358 0.0
endloop
endfacet
facet normal -0.239092277614201 -0.970996850038791 0.0
outer loop
vertex 23.8368229716497 51.8484889751358 0.0
vertex 23.0 51.9413625591663 -2.7
vertex 23.8368229716497 51.8484889751358 -2.7
endloop
endfacet
facet normal -0.110306288541529 -0.993897641967317 -0.0
outer loop
vertex 23.0 51.9413625591663 -2.7
vertex 23.8368229716497 51.8484889751358 0.0
vertex 23.0 51.9413625591663 0.0
endloop
endfacet
facet normal -0.110306288541498 -0.993897641967321 -0.0
outer loop
vertex 23.0 51.9413625591663 0.0
vertex 22.9287152490123 51.9492739938845 -2.7
vertex 23.0 51.9413625591663 -2.7
endloop
endfacet
facet normal 0.0203670717107745 -0.999792569681295 0.0
outer loop
vertex 22.9287152490123 51.9492739938845 -2.7
vertex 23.0 51.9413625591663 0.0
vertex 22.9287152490123 51.9492739938845 0.0
endloop
endfacet
facet normal 0.0203670717107745 -0.999792569681295 0.0
outer loop
vertex 22.9287152490123 51.9492739938845 0.0
vertex 22.0254654643512 51.8115892727738 -2.7
vertex 22.9287152490123 51.9492739938845 -2.7
endloop
endfacet
facet normal 0.278438438756812 -0.960454077935363 0.0
outer loop
vertex 22.0254654643512 51.8115892727738 -2.7
vertex 22.9287152490123 51.9492739938845 0.0
vertex 22.0254654643512 51.8115892727738 0.0
endloop
endfacet
facet normal 0.278438438756812 -0.960454077935363 0.0
outer loop
vertex 22.0254654643512 51.8115892727738 0.0
vertex 21.1886285978 51.4448177980124 -2.7
vertex 22.0254654643512 51.8115892727738 -2.7
endloop
endfacet
facet normal 0.517534686342867 -0.855662228003545 0.0
outer loop
vertex 21.1886285978 51.4448177980124 -2.7
vertex 22.0254654643512 51.8115892727738 0.0
vertex 21.1886285978 51.4448177980124 0.0
endloop
endfacet
facet normal 0.517534686342867 -0.855662228003545 0.0
outer loop
vertex 21.1886285978 51.4448177980124 0.0
vertex 20.4752336988759 50.8739544394869 -2.7
vertex 21.1886285978 51.4448177980124 -2.7
endloop
endfacet
facet normal 0.721361800321159 -0.692558411281977 0.0
outer loop
vertex 20.4752336988759 50.8739544394869 -2.7
vertex 21.1886285978 51.4448177980124 0.0
vertex 20.4752336988759 50.8739544394869 0.0
endloop
endfacet
facet normal 0.721361800321159 -0.692558411281977 0.0
outer loop
vertex 20.4752336988759 50.8739544394869 -2.7
vertex 19.9338974509999 50.1379025916845 0.0
vertex 19.9338974509999 50.1379025916845 -2.7
endloop
endfacet
facet normal 0.876029299714307 -0.482257883338428 0.0
outer loop
vertex 19.9338974509999 50.1379025916845 0.0
vertex 20.4752336988759 50.8739544394869 -2.7
vertex 20.4752336988759 50.8739544394869 0.0
endloop
endfacet
facet normal 0.876029299714307 -0.482257883338428 0.0
outer loop
vertex 19.9338974509999 50.1379025916845 -2.7
vertex 19.6015110248642 49.2868229716497 0.0
vertex 19.6015110248642 49.2868229716497 -2.7
endloop
endfacet
facet normal 0.97099685003879 -0.239092277614204 0.0
outer loop
vertex 19.6015110248642 49.2868229716497 0.0
vertex 19.9338974509999 50.1379025916845 -2.7
vertex 19.9338974509999 50.1379025916845 0.0
endloop
endfacet
facet normal 0.97099685003879 -0.239092277614204 0.0
outer loop
vertex 19.6015110248642 49.2868229716497 -2.7
vertex 19.5007260061155 48.3787152490123 0.0
vertex 19.5007260061155 48.3787152490123 -2.7
endloop
endfacet
facet normal 0.999792569681296 0.02036707171076 0.0
outer loop
vertex 19.5007260061155 48.3787152490123 0.0
vertex 19.6015110248642 49.2868229716497 -2.7
vertex 19.6015110248642 49.2868229716497 0.0
endloop
endfacet
facet normal 0.999792569681296 0.02036707171076 0.0
outer loop
vertex 19.5007260061155 48.3787152490123 -2.7
vertex 19.6384107272262 47.4754654643512 0.0
vertex 19.6384107272262 47.4754654643512 -2.7
endloop
endfacet
facet normal 0.960454077935363 0.278438438756815 0.0
outer loop
vertex 19.6384107272262 47.4754654643512 0.0
vertex 19.5007260061155 48.3787152490123 -2.7
vertex 19.5007260061155 48.3787152490123 0.0
endloop
endfacet
facet normal 0.960454077935363 0.278438438756815 0.0
outer loop
vertex 19.6384107272262 47.4754654643512 -2.7
vertex 20.0051822019876 46.6386285978 0.0
vertex 20.0051822019876 46.6386285978 -2.7
endloop
endfacet
facet normal 0.855662228003544 0.517534686342868 0.0
outer loop
vertex 20.0051822019876 46.6386285978 0.0
vertex 19.6384107272262 47.4754654643512 -2.7
vertex 19.6384107272262 47.4754654643512 0.0
endloop
endfacet
facet normal 0.855662228003544 0.517534686342868 0.0
outer loop
vertex 20.0051822019876 46.6386285978 -2.7
vertex 20.5760455605131 45.9252336988759 0.0
vertex 20.5760455605131 45.9252336988759 -2.7
endloop
endfacet
facet normal 0.692558411281976 0.72136180032116 0.0
outer loop
vertex 20.5760455605131 45.9252336988759 0.0
vertex 20.0051822019876 46.6386285978 -2.7
vertex 20.0051822019876 46.6386285978 0.0
endloop
endfacet
facet normal 0.692558411281976 0.72136180032116 0.0
outer loop
vertex 20.5760455605131 45.9252336988759 0.0
vertex 21.3120974083155 45.3838974509999 -2.7
vertex 20.5760455605131 45.9252336988759 -2.7
endloop
endfacet
facet normal 0.482257883338431 0.876029299714305 0.0
outer loop
vertex 21.3120974083155 45.3838974509999 -2.7
vertex 20.5760455605131 45.9252336988759 0.0
vertex 21.3120974083155 45.3838974509999 0.0
endloop
endfacet
facet normal 0.482257883338431 0.876029299714305 0.0
outer loop
vertex 21.3120974083155 45.3838974509999 0.0
vertex 22.1631770283503 45.0515110248642 -2.7
vertex 21.3120974083155 45.3838974509999 -2.7
endloop
endfacet
facet normal 0.239092277614202 0.97099685003879 0.0
outer loop
vertex 22.1631770283503 45.0515110248642 -2.7
vertex 21.3120974083155 45.3838974509999 0.0
vertex 22.1631770283503 45.0515110248642 0.0
endloop
endfacet
facet normal 0.0 -1.0 0.0
outer loop
vertex 24.5 57.952897800838 0.0
vertex 21.5 57.952897800838 -2.0
vertex 24.5 57.952897800838 -2.0
endloop
endfacet
facet normal 0.0 -1.0 0.0
outer loop
vertex 21.5 57.952897800838 -2.0
vertex 24.5 57.952897800838 0.0
vertex 21.5 57.952897800838 0.0
endloop
endfacet
facet normal 1.0 -0.0 -0.0
outer loop
vertex 21.5 57.952897800838 -2.0
vertex 21.5 55.952897800838 0.0
vertex 21.5 55.952897800838 -2.0
endloop
endfacet
facet normal 1.0 -0.0 -0.0
outer loop
vertex 21.5 55.952897800838 0.0
vertex 21.5 57.952897800838 -2.0
vertex 21.5 57.952897800838 0.0
endloop
endfacet
facet normal -0.0 1.0 -0.0
outer loop
vertex 21.5 55.952897800838 0.0
vertex 24.5 55.952897800838 -2.0
vertex 21.5 55.952897800838 -2.0
endloop
endfacet
facet normal -0.0 1.0 -0.0
outer loop
vertex 24.5 55.952897800838 -2.0
vertex 21.5 55.952897800838 0.0
vertex 24.5 55.952897800838 0.0
endloop
endfacet
facet normal -1.0 0.0 0.0
outer loop
vertex 24.5 57.952897800838 0.0
vertex 24.5 55.952897800838 -2.0
vertex 24.5 55.952897800838 0.0
endloop
endfacet
facet normal -1.0 0.0 0.0
outer loop
vertex 24.5 55.952897800838 -2.0
vertex 24.5 57.952897800838 0.0
vertex 24.5 57.952897800838 -2.0
endloop
endfacet
endsolid widerboard-test
