solid widerboard-test2
facet normal 4.19407767058923e-17 -1.0 0.0
outer loop
vertex 42.0 7.04991620636974e-16 3.0
vertex 31.7 2.22672688519213e-16 0.0
vertex 42.0 7.04991620636974e-16 0.0
endloop
endfacet
facet normal 4.19407767058923e-17 -1.0 0.0
outer loop
vertex 31.7 2.22672688519213e-16 0.0
vertex 42.0 7.04991620636974e-16 3.0
vertex 31.7 2.22672688519213e-16 1.6
endloop
endfacet
facet normal 4.19407767058923e-17 -1.0 0.0
outer loop
vertex 31.7 2.22672688519213e-16 1.6
vertex 42.0 7.04991620636974e-16 3.0
vertex 30.7 2.22672688519213e-16 1.6
endloop
endfacet
facet normal 4.19407767058923e-17 -1.0 0.0
outer loop
vertex 30.7 2.22672688519213e-16 1.6
vertex 42.0 7.04991620636974e-16 3.0
vertex 30.7 2.22672688519213e-16 3.0
endloop
endfacet
facet normal 0.128434359205479 -0.991718012025333 0.0
outer loop
vertex 42.5139020962568 0.0331385698319708 3.0
vertex 42.0 7.04991620636974e-16 0.0
vertex 42.5139020962568 0.0331385698319708 0.0
endloop
endfacet
facet normal 0.064350555454741 -0.997927355077847 0.0
outer loop
vertex 42.0 7.04991620636974e-16 0.0
vertex 42.5139020962568 0.0331385698319708 3.0
vertex 42.0 7.04991620636974e-16 3.0
endloop
endfacet
facet normal 0.254741334774011 -0.967009230750956 0.0
outer loop
vertex 43.0192919305509 0.132005372854189 3.0
vertex 42.5139020962568 0.0331385698319708 0.0
vertex 43.0192919305509 0.132005372854189 0.0
endloop
endfacet
facet normal 0.128434359205479 -0.991718012025333 0.0
outer loop
vertex 42.5139020962568 0.0331385698319708 0.0
vertex 43.0192919305509 0.132005372854189 3.0
vertex 42.5139020962568 0.0331385698319708 3.0
endloop
endfacet
facet normal 0.376828781000046 -0.926282931835635 0.0
outer loop
vertex 43.507798237822 0.294962781719208 3.0
vertex 43.0192919305509 0.132005372854189 0.0
vertex 43.507798237822 0.294962781719208 0.0
endloop
endfacet
facet normal 0.254741334774011 -0.967009230750956 0.0
outer loop
vertex 43.0192919305509 0.132005372854189 0.0
vertex 43.507798237822 0.294962781719208 3.0
vertex 43.0192919305509 0.132005372854189 3.0
endloop
endfacet
facet normal 0.492674444360577 -0.87021370471511 0.0
outer loop
vertex 43.9713294113453 0.519311573825822 3.0
vertex 43.507798237822 0.294962781719208 0.0
vertex 43.9713294113453 0.519311573825822 0.0
endloop
endfacet
facet normal 0.376828781000046 -0.926282931835635 0.0
outer loop
vertex 43.507798237822 0.294962781719208 0.0
vertex 43.9713294113453 0.519311573825822 3.0
vertex 43.507798237822 0.294962781719208 3.0
endloop
endfacet
facet normal 0.600359460073867 -0.799730278718904 0.0
outer loop
vertex 44.4022075319109 0.801335641177313 3.0
vertex 43.9713294113453 0.519311573825822 0.0
vertex 44.4022075319109 0.801335641177313 0.0
endloop
endfacet
facet normal 0.492674444360577 -0.87021370471511 0.0
outer loop
vertex 43.9713294113453 0.519311573825822 0.0
vertex 44.4022075319109 0.801335641177313 3.0
vertex 43.9713294113453 0.519311573825822 3.0
endloop
endfacet
facet normal 0.698100136129541 -0.71600013962004 0.0
outer loop
vertex 44.7932955446927 1.13636354390494 3.0
vertex 44.4022075319109 0.801335641177313 0.0
vertex 44.7932955446927 1.13636354390494 0.0
endloop
endfacet
facet normal 0.600359460073867 -0.799730278718904 0.0
outer loop
vertex 44.4022075319109 0.801335641177313 0.0
vertex 44.7932955446927 1.13636354390494 3.0
vertex 44.4022075319109 0.801335641177313 3.0
endloop
endfacet
facet normal 0.784277498320136 -0.620410191428791 0.0
outer loop
vertex 45.1381154772527 1.51884588788556 0.0
vertex 44.7932955446927 1.13636354390494 3.0
vertex 44.7932955446927 1.13636354390494 0.0
endloop
endfacet
facet normal 0.698100136129541 -0.71600013962004 0.0
outer loop
vertex 44.7932955446927 1.13636354390494 3.0
vertex 45.1381154772527 1.51884588788556 0.0
vertex 45.1381154772527 1.51884588788556 3.0
endloop
endfacet
facet normal 0.857464106890952 -0.514543783747994 0.0
outer loop
vertex 45.4309557405214 1.94244724477245 0.0
vertex 45.1381154772527 1.51884588788556 3.0
vertex 45.1381154772527 1.51884588788556 0.0
endloop
endfacet
facet normal 0.784277498320136 -0.620410191428791 0.0
outer loop
vertex 45.1381154772527 1.51884588788556 3.0
vertex 45.4309557405214 1.94244724477245 0.0
vertex 45.4309557405214 1.94244724477245 3.0
endloop
endfacet
facet normal 0.916447700617808 -0.400154485208316 0.0
outer loop
vertex 45.6669657354207 2.40015109187801 0.0
vertex 45.4309557405214 1.94244724477245 3.0
vertex 45.4309557405214 1.94244724477245 0.0
endloop
endfacet
facet normal 0.857464106890952 -0.514543783747994 0.0
outer loop
vertex 45.4309557405214 1.94244724477245 3.0
vertex 45.6669657354207 2.40015109187801 0.0
vertex 45.6669657354207 2.40015109187801 3.0
endloop
endfacet
facet normal 0.960251276672809 -0.279137037399626 0.0
outer loop
vertex 45.8422361980716 2.88437603368687 0.0
vertex 45.6669657354207 2.40015109187801 3.0
vertex 45.6669657354207 2.40015109187801 0.0
endloop
endfacet
facet normal 0.916447700617808 -0.400154485208316 0.0
outer loop
vertex 45.6669657354207 2.40015109187801 3.0
vertex 45.8422361980716 2.88437603368687 0.0
vertex 45.8422361980716 2.88437603368687 3.0
endloop
endfacet
facet normal 0.988149273675683 -0.153495970416882 0.0
outer loop
vertex 45.9538639527459 3.38710137990885 0.0
vertex 45.8422361980716 2.88437603368687 3.0
vertex 45.8422361980716 2.88437603368687 0.0
endloop
endfacet
facet normal 0.960251276672809 -0.279137037399626 0.0
outer loop
vertex 45.8422361980716 2.88437603368687 3.0
vertex 45.9538639527459 3.38710137990885 0.0
vertex 45.9538639527459 3.38710137990885 3.0
endloop
endfacet
facet normal 0.99597874205766 -0.0895898731400016 0.0
outer loop
vertex 46.0 3.9 0.0
vertex 45.9538639527459 3.38710137990885 3.0
vertex 45.9538639527459 3.38710137990885 0.0
endloop
endfacet
facet normal 0.988149273675683 -0.153495970416882 0.0
outer loop
vertex 45.9538639527459 3.38710137990885 3.0
vertex 46.0 3.9 0.0
vertex 46.0 3.9 3.0
endloop
endfacet
facet normal -1.0 0.0 0.0
outer loop
vertex 0.0 32.95 3.0
vertex 0.0 3.9 0.0
vertex 0.0 3.9 3.0
endloop
endfacet
facet normal -1.0 0.0 0.0
outer loop
vertex 0.0 3.9 0.0
vertex 0.0 32.95 3.0
vertex 0.0 32.95 0.0
endloop
endfacet
facet normal -0.99597874205766 -0.0895898731400001 -0.0
outer loop
vertex 0.0 3.9 3.0
vertex 0.046136047254096 3.38710137990885 0.0
vertex 0.046136047254096 3.38710137990885 3.0
endloop
endfacet
facet normal -0.988149273675682 -0.153495970416885 0.0
outer loop
vertex 0.046136047254096 3.38710137990885 0.0
vertex 0.0 3.9 3.0
vertex 0.0 3.9 0.0
endloop
endfacet
facet normal -0.988149273675682 -0.153495970416885 0.0
outer loop
vertex 0.046136047254096 3.38710137990885 3.0
vertex 0.157763801928417 2.88437603368687 0.0
vertex 0.157763801928417 2.88437603368687 3.0
endloop
endfacet
facet normal -0.960251276672808 -0.27913703739963 0.0
outer loop
vertex 0.157763801928417 2.88437603368687 0.0
vertex 0.046136047254096 3.38710137990885 3.0
vertex 0.046136047254096 3.38710137990885 0.0
endloop
endfacet
facet normal -0.960251276672808 -0.27913703739963 0.0
outer loop
vertex 0.157763801928417 2.88437603368687 3.0
vertex 0.333034264579259 2.40015109187801 0.0
vertex 0.333034264579259 2.40015109187801 3.0
endloop
endfacet
facet normal -0.916447700617808 -0.400154485208316 0.0
outer loop
vertex 0.333034264579259 2.40015109187801 0.0
vertex 0.157763801928417 2.88437603368687 3.0
vertex 0.157763801928417 2.88437603368687 0.0
endloop
endfacet
facet normal -0.916447700617808 -0.400154485208316 0.0
outer loop
vertex 0.333034264579259 2.40015109187801 3.0
vertex 0.569044259478643 1.94244724477245 0.0
vertex 0.569044259478643 1.94244724477245 3.0
endloop
endfacet
facet normal -0.857464106890951 -0.514543783747995 0.0
outer loop
vertex 0.569044259478643 1.94244724477245 0.0
vertex 0.333034264579259 2.40015109187801 3.0
vertex 0.333034264579259 2.40015109187801 0.0
endloop
endfacet
facet normal -0.857464106890951 -0.514543783747995 0.0
outer loop
vertex 0.569044259478643 1.94244724477245 3.0
vertex 0.861884522747257 1.51884588788556 0.0
vertex 0.861884522747257 1.51884588788556 3.0
endloop
endfacet
facet normal -0.784277498320134 -0.620410191428793 0.0
outer loop
vertex 0.861884522747257 1.51884588788556 0.0
vertex 0.569044259478643 1.94244724477245 3.0
vertex 0.569044259478643 1.94244724477245 0.0
endloop
endfacet
facet normal -0.784277498320134 -0.620410191428793 0.0
outer loop
vertex 0.861884522747257 1.51884588788556 3.0
vertex 1.20670445530732 1.13636354390494 0.0
vertex 1.20670445530732 1.13636354390494 3.0
endloop
endfacet
facet normal -0.69810013612954 -0.716000139620041 0.0
outer loop
vertex 1.20670445530732 1.13636354390494 0.0
vertex 0.861884522747257 1.51884588788556 3.0
vertex 0.861884522747257 1.51884588788556 0.0
endloop
endfacet
facet normal -0.600359460073867 -0.799730278718903 0.0
outer loop
vertex 1.59779246808905 0.801335641177312 3.0
vertex 1.20670445530732 1.13636354390494 0.0
vertex 1.59779246808905 0.801335641177312 0.0
endloop
endfacet
facet normal -0.69810013612954 -0.716000139620041 0.0
outer loop
vertex 1.20670445530732 1.13636354390494 0.0
vertex 1.59779246808905 0.801335641177312 3.0
vertex 1.20670445530732 1.13636354390494 3.0
endloop
endfacet
facet normal -0.492674444360576 -0.870213704715111 0.0
outer loop
vertex 2.02867058865467 0.519311573825821 3.0
vertex 1.59779246808905 0.801335641177312 0.0
vertex 2.02867058865467 0.519311573825821 0.0
endloop
endfacet
facet normal -0.600359460073867 -0.799730278718903 0.0
outer loop
vertex 1.59779246808905 0.801335641177312 0.0
vertex 2.02867058865467 0.519311573825821 3.0
vertex 1.59779246808905 0.801335641177312 3.0
endloop
endfacet
facet normal -0.376828781000044 -0.926282931835635 0.0
outer loop
vertex 2.49220176217803 0.294962781719207 3.0
vertex 2.02867058865467 0.519311573825821 0.0
vertex 2.49220176217803 0.294962781719207 0.0
endloop
endfacet
facet normal -0.492674444360576 -0.870213704715111 0.0
outer loop
vertex 2.02867058865467 0.519311573825821 0.0
vertex 2.49220176217803 0.294962781719207 3.0
vertex 2.02867058865467 0.519311573825821 3.0
endloop
endfacet
facet normal -0.254741334774012 -0.967009230750956 0.0
outer loop
vertex 2.98070806944912 0.132005372854189 3.0
vertex 2.49220176217803 0.294962781719207 0.0
vertex 2.98070806944912 0.132005372854189 0.0
endloop
endfacet
facet normal -0.376828781000044 -0.926282931835635 0.0
outer loop
vertex 2.49220176217803 0.294962781719207 0.0
vertex 2.98070806944912 0.132005372854189 3.0
vertex 2.49220176217803 0.294962781719207 3.0
endloop
endfacet
facet normal -0.128434359205479 -0.991718012025333 0.0
outer loop
vertex 3.48609790374321 0.0331385698319694 3.0
vertex 2.98070806944912 0.132005372854189 0.0
vertex 3.48609790374321 0.0331385698319694 0.0
endloop
endfacet
facet normal -0.254741334774012 -0.967009230750956 0.0
outer loop
vertex 2.98070806944912 0.132005372854189 0.0
vertex 3.48609790374321 0.0331385698319694 3.0
vertex 2.98070806944912 0.132005372854189 3.0
endloop
endfacet
facet normal -0.0643505554547393 -0.997927355077847 -0.0
outer loop
vertex 4.0 0.0 3.0
vertex 3.48609790374321 0.0331385698319694 0.0
vertex 4.0 0.0 0.0
endloop
endfacet
facet normal -0.128434359205479 -0.991718012025333 0.0
outer loop
vertex 3.48609790374321 0.0331385698319694 0.0
vertex 4.0 0.0 3.0
vertex 3.48609790374321 0.0331385698319694 3.0
endloop
endfacet
facet normal 9.27620553469703e-18 -1.0 0.0
outer loop
vertex 15.3 1.06676363649016e-16 3.0
vertex 14.3 1.06676363649016e-16 1.6
vertex 15.3 1.06676363649016e-16 1.6
endloop
endfacet
facet normal 9.27620553469703e-18 -1.0 0.0
outer loop
vertex 14.3 1.06676363649016e-16 1.6
vertex 4.0 0.0 0.0
vertex 14.3 1.06676363649016e-16 0.0
endloop
endfacet
facet normal 9.27620553469703e-18 -1.0 0.0
outer loop
vertex 4.0 0.0 0.0
vertex 14.3 1.06676363649016e-16 1.6
vertex 4.0 0.0 3.0
endloop
endfacet
facet normal 9.27620553469703e-18 -1.0 0.0
outer loop
vertex 4.0 0.0 3.0
vertex 14.3 1.06676363649016e-16 1.6
vertex 15.3 1.06676363649016e-16 3.0
endloop
endfacet
facet normal 0.0 -1.0 0.0
outer loop
vertex 30.7 24.0 3.0
vertex 15.3 24.0 0.0
vertex 30.7 24.0 0.0
endloop
endfacet
facet normal 0.0 -1.0 0.0
outer loop
vertex 15.3 24.0 0.0
vertex 30.7 24.0 3.0
vertex 15.3 24.0 3.0
endloop
endfacet
facet normal -1.0 0.0 0.0
outer loop
vertex 30.7 24.0 3.0
vertex 30.7 2.22672688519213e-16 1.6
vertex 30.7 2.22672688519213e-16 3.0
endloop
endfacet
facet normal -1.0 0.0 0.0
outer loop
vertex 30.7 2.22672688519213e-16 1.6
vertex 30.7 24.0 3.0
vertex 30.7 10.5 1.6
endloop
endfacet
facet normal -1.0 0.0 0.0
outer loop
vertex 30.7 10.5 1.6
vertex 30.7 24.0 3.0
vertex 30.7 10.5 0.0
endloop
endfacet
facet normal -1.0 0.0 0.0
outer loop
vertex 30.7 10.5 0.0
vertex 30.7 24.0 3.0
vertex 30.7 24.0 0.0
endloop
endfacet
facet normal 1.0 0.0 0.0
outer loop
vertex 15.3 10.5 1.6
vertex 15.3 1.06676363649016e-16 3.0
vertex 15.3 1.06676363649016e-16 1.6
endloop
endfacet
facet normal 1.0 0.0 0.0
outer loop
vertex 15.3 1.06676363649016e-16 3.0
vertex 15.3 10.5 1.6
vertex 15.3 24.0 3.0
endloop
endfacet
facet normal 1.0 0.0 0.0
outer loop
vertex 15.3 24.0 3.0
vertex 15.3 10.5 1.6
vertex 15.3 10.5 0.0
endloop
endfacet
facet normal 1.0 0.0 0.0
outer loop
vertex 15.3 24.0 3.0
vertex 15.3 10.5 0.0
vertex 15.3 24.0 0.0
endloop
endfacet
facet normal 1.0 0.0 0.0
outer loop
vertex 14.3 10.5 0.0
vertex 14.3 1.06676363649016e-16 1.6
vertex 14.3 1.06676363649016e-16 0.0
endloop
endfacet
facet normal 1.0 0.0 0.0
outer loop
vertex 14.3 1.06676363649016e-16 1.6
vertex 14.3 10.5 0.0
vertex 14.3 10.5 1.6
endloop
endfacet
facet normal -0.0 -1.0 -1.76247905159244e-15
outer loop
vertex 15.3 10.5 1.6
vertex 14.3 10.5 0.0
vertex 15.3 10.5 0.0
endloop
endfacet
facet normal -0.0 -1.0 -1.76247905159244e-15
outer loop
vertex 14.3 10.5 0.0
vertex 15.3 10.5 1.6
vertex 14.3 10.5 1.6
endloop
endfacet
facet normal -0.0 -0.0 -1.0
outer loop
vertex 15.3 10.5 1.6
vertex 14.3 1.06676363649016e-16 1.6
vertex 14.3 10.5 1.6
endloop
endfacet
facet normal -0.0 -0.0 -1.0
outer loop
vertex 14.3 1.06676363649016e-16 1.6
vertex 15.3 10.5 1.6
vertex 15.3 1.06676363649016e-16 1.6
endloop
endfacet
facet normal -1.0 0.0 0.0
outer loop
vertex 31.7 10.5 1.6
vertex 31.7 2.22672688519213e-16 0.0
vertex 31.7 2.22672688519213e-16 1.6
endloop
endfacet
facet normal -1.0 0.0 0.0
outer loop
vertex 31.7 2.22672688519213e-16 0.0
vertex 31.7 10.5 1.6
vertex 31.7 10.5 0.0
endloop
endfacet
facet normal -0.0 0.0 -1.0
outer loop
vertex 31.7 10.5 1.6
vertex 30.7 2.22672688519213e-16 1.6
vertex 30.7 10.5 1.6
endloop
endfacet
facet normal -0.0 0.0 -1.0
outer loop
vertex 30.7 2.22672688519213e-16 1.6
vertex 31.7 10.5 1.6
vertex 31.7 2.22672688519213e-16 1.6
endloop
endfacet
facet normal -0.0 -1.0 -8.81239525796218e-16
outer loop
vertex 31.7 10.5 1.6
vertex 30.7 10.5 0.0
vertex 31.7 10.5 0.0
endloop
endfacet
facet normal -0.0 -1.0 -8.81239525796218e-16
outer loop
vertex 30.7 10.5 0.0
vertex 31.7 10.5 1.6
vertex 30.7 10.5 1.6
endloop
endfacet
facet normal 4.47209278113609e-33 -4.8751926223137e-33 1.0
outer loop
vertex 42.0 7.04991620636974e-16 3.0
vertex 30.7 24.0 3.0
vertex 30.7 2.22672688519213e-16 3.0
endloop
endfacet
facet normal 4.47209278113609e-33 -4.8751926223137e-33 1.0
outer loop
vertex 0.046136047254096 3.38710137990885 3.0
vertex 0.0 32.95 3.0
vertex 0.0 3.9 3.0
endloop
endfacet
facet normal 4.47209278113609e-33 -4.8751926223137e-33 1.0
outer loop
vertex 0.0 32.95 3.0
vertex 0.046136047254096 3.38710137990885 3.0
vertex 15.3 24.0 3.0
endloop
endfacet
facet normal 4.47209278113609e-33 -4.8751926223137e-33 1.0
outer loop
vertex 0.0 32.95 3.0
vertex 15.3 24.0 3.0
vertex 46.0 32.95 3.0
endloop
endfacet
facet normal 4.47209278113609e-33 -4.8751926223137e-33 1.0
outer loop
vertex 15.3 24.0 3.0
vertex 0.046136047254096 3.38710137990885 3.0
vertex 0.157763801928417 2.88437603368687 3.0
endloop
endfacet
facet normal 4.47209278113609e-33 -4.8751926223137e-33 1.0
outer loop
vertex 15.3 24.0 3.0
vertex 0.157763801928417 2.88437603368687 3.0
vertex 0.333034264579259 2.40015109187801 3.0
endloop
endfacet
facet normal 4.47209278113609e-33 -4.8751926223137e-33 1.0
outer loop
vertex 15.3 24.0 3.0
vertex 0.333034264579259 2.40015109187801 3.0
vertex 0.569044259478643 1.94244724477245 3.0
endloop
endfacet
facet normal 4.47209278113609e-33 -4.8751926223137e-33 1.0
outer loop
vertex 15.3 24.0 3.0
vertex 0.569044259478643 1.94244724477245 3.0
vertex 0.861884522747257 1.51884588788556 3.0
endloop
endfacet
facet normal 4.47209278113609e-33 -4.8751926223137e-33 1.0
outer loop
vertex 15.3 24.0 3.0
vertex 0.861884522747257 1.51884588788556 3.0
vertex 1.20670445530732 1.13636354390494 3.0
endloop
endfacet
facet normal 4.47209278113609e-33 -4.8751926223137e-33 1.0
outer loop
vertex 15.3 24.0 3.0
vertex 1.20670445530732 1.13636354390494 3.0
vertex 1.59779246808905 0.801335641177312 3.0
endloop
endfacet
facet normal 4.47209278113609e-33 -4.8751926223137e-33 1.0
outer loop
vertex 15.3 24.0 3.0
vertex 1.59779246808905 0.801335641177312 3.0
vertex 2.02867058865467 0.519311573825821 3.0
endloop
endfacet
facet normal 4.47209278113609e-33 -4.8751926223137e-33 1.0
outer loop
vertex 15.3 24.0 3.0
vertex 2.02867058865467 0.519311573825821 3.0
vertex 2.49220176217803 0.294962781719207 3.0
endloop
endfacet
facet normal 4.47209278113609e-33 -4.8751926223137e-33 1.0
outer loop
vertex 15.3 24.0 3.0
vertex 2.49220176217803 0.294962781719207 3.0
vertex 2.98070806944912 0.132005372854189 3.0
endloop
endfacet
facet normal 4.47209278113609e-33 -4.8751926223137e-33 1.0
outer loop
vertex 15.3 24.0 3.0
vertex 2.98070806944912 0.132005372854189 3.0
vertex 3.48609790374321 0.0331385698319694 3.0
endloop
endfacet
facet normal 4.47209278113609e-33 -4.8751926223137e-33 1.0
outer loop
vertex 15.3 24.0 3.0
vertex 3.48609790374321 0.0331385698319694 3.0
vertex 4.0 0.0 3.0
endloop
endfacet
facet normal 4.47209278113609e-33 -4.8751926223137e-33 1.0
outer loop
vertex 15.3 24.0 3.0
vertex 4.0 0.0 3.0
vertex 15.3 1.06676363649016e-16 3.0
endloop
endfacet
facet normal 4.47209278113609e-33 -4.8751926223137e-33 1.0
outer loop
vertex 46.0 32.95 3.0
vertex 15.3 24.0 3.0
vertex 30.7 24.0 3.0
endloop
endfacet
facet normal 4.47209278113609e-33 -4.8751926223137e-33 1.0
outer loop
vertex 46.0 32.95 3.0
vertex 30.7 24.0 3.0
vertex 42.0 7.04991620636974e-16 3.0
endloop
endfacet
facet normal 4.47209278113609e-33 -4.8751926223137e-33 1.0
outer loop
vertex 46.0 32.95 3.0
vertex 42.0 7.04991620636974e-16 3.0
vertex 42.5139020962568 0.0331385698319708 3.0
endloop
endfacet
facet normal 4.47209278113609e-33 -4.8751926223137e-33 1.0
outer loop
vertex 46.0 32.95 3.0
vertex 42.5139020962568 0.0331385698319708 3.0
vertex 43.0192919305509 0.132005372854189 3.0
endloop
endfacet
facet normal 4.47209278113609e-33 -4.8751926223137e-33 1.0
outer loop
vertex 46.0 32.95 3.0
vertex 43.0192919305509 0.132005372854189 3.0
vertex 43.507798237822 0.294962781719208 3.0
endloop
endfacet
facet normal 4.47209278113609e-33 -4.8751926223137e-33 1.0
outer loop
vertex 46.0 32.95 3.0
vertex 43.507798237822 0.294962781719208 3.0
vertex 43.9713294113453 0.519311573825822 3.0
endloop
endfacet
facet normal 4.47209278113609e-33 -4.8751926223137e-33 1.0
outer loop
vertex 46.0 32.95 3.0
vertex 43.9713294113453 0.519311573825822 3.0
vertex 44.4022075319109 0.801335641177313 3.0
endloop
endfacet
facet normal 4.47209278113609e-33 -4.8751926223137e-33 1.0
outer loop
vertex 46.0 32.95 3.0
vertex 44.4022075319109 0.801335641177313 3.0
vertex 44.7932955446927 1.13636354390494 3.0
endloop
endfacet
facet normal 4.47209278113609e-33 -4.8751926223137e-33 1.0
outer loop
vertex 46.0 32.95 3.0
vertex 44.7932955446927 1.13636354390494 3.0
vertex 45.1381154772527 1.51884588788556 3.0
endloop
endfacet
facet normal 4.47209278113609e-33 -4.8751926223137e-33 1.0
outer loop
vertex 46.0 32.95 3.0
vertex 45.1381154772527 1.51884588788556 3.0
vertex 45.4309557405214 1.94244724477245 3.0
endloop
endfacet
facet normal 4.47209278113609e-33 -4.8751926223137e-33 1.0
outer loop
vertex 46.0 32.95 3.0
vertex 45.4309557405214 1.94244724477245 3.0
vertex 45.6669657354207 2.40015109187801 3.0
endloop
endfacet
facet normal 4.47209278113609e-33 -4.8751926223137e-33 1.0
outer loop
vertex 46.0 32.95 3.0
vertex 45.6669657354207 2.40015109187801 3.0
vertex 45.8422361980716 2.88437603368687 3.0
endloop
endfacet
facet normal 4.47209278113609e-33 -4.8751926223137e-33 1.0
outer loop
vertex 46.0 32.95 3.0
vertex 45.8422361980716 2.88437603368687 3.0
vertex 45.9538639527459 3.38710137990885 3.0
endloop
endfacet
facet normal 4.47209278113609e-33 -4.8751926223137e-33 1.0
outer loop
vertex 46.0 32.95 3.0
vertex 45.9538639527459 3.38710137990885 3.0
vertex 46.0 3.9 3.0
endloop
endfacet
facet normal 1.0 -0.0 -0.0
outer loop
vertex 46.0 32.95 0.0
vertex 46.0 3.9 3.0
vertex 46.0 3.9 0.0
endloop
endfacet
facet normal 1.0 -0.0 -0.0
outer loop
vertex 46.0 3.9 3.0
vertex 46.0 32.95 0.0
vertex 46.0 32.95 3.0
endloop
endfacet
facet normal 0.0 0.0 -1.0
outer loop
vertex 0.0 32.95 0.0
vertex 15.3 24.0 0.0
vertex 0.0 3.9 0.0
endloop
endfacet
facet normal 0.0 0.0 -1.0
outer loop
vertex 15.3 24.0 0.0
vertex 0.0 32.95 0.0
vertex 46.0 32.95 0.0
endloop
endfacet
facet normal 0.0 0.0 -1.0
outer loop
vertex 0.0 3.9 0.0
vertex 15.3 24.0 0.0
vertex 0.046136047254096 3.38710137990885 0.0
endloop
endfacet
facet normal 0.0 0.0 -1.0
outer loop
vertex 0.046136047254096 3.38710137990885 0.0
vertex 15.3 24.0 0.0
vertex 0.157763801928417 2.88437603368687 0.0
endloop
endfacet
facet normal 0.0 0.0 -1.0
outer loop
vertex 0.157763801928417 2.88437603368687 0.0
vertex 15.3 24.0 0.0
vertex 0.333034264579259 2.40015109187801 0.0
endloop
endfacet
facet normal 0.0 0.0 -1.0
outer loop
vertex 0.333034264579259 2.40015109187801 0.0
vertex 15.3 24.0 0.0
vertex 0.569044259478643 1.94244724477245 0.0
endloop
endfacet
facet normal 0.0 0.0 -1.0
outer loop
vertex 0.569044259478643 1.94244724477245 0.0
vertex 15.3 24.0 0.0
vertex 0.861884522747257 1.51884588788556 0.0
endloop
endfacet
facet normal 0.0 0.0 -1.0
outer loop
vertex 0.861884522747257 1.51884588788556 0.0
vertex 15.3 24.0 0.0
vertex 1.20670445530732 1.13636354390494 0.0
endloop
endfacet
facet normal 0.0 0.0 -1.0
outer loop
vertex 1.20670445530732 1.13636354390494 0.0
vertex 15.3 24.0 0.0
vertex 1.59779246808905 0.801335641177312 0.0
endloop
endfacet
facet normal 0.0 0.0 -1.0
outer loop
vertex 1.59779246808905 0.801335641177312 0.0
vertex 15.3 24.0 0.0
vertex 2.02867058865467 0.519311573825821 0.0
endloop
endfacet
facet normal 0.0 0.0 -1.0
outer loop
vertex 2.02867058865467 0.519311573825821 0.0
vertex 15.3 24.0 0.0
vertex 2.49220176217803 0.294962781719207 0.0
endloop
endfacet
facet normal 0.0 0.0 -1.0
outer loop
vertex 2.49220176217803 0.294962781719207 0.0
vertex 15.3 24.0 0.0
vertex 2.98070806944912 0.132005372854189 0.0
endloop
endfacet
facet normal 0.0 0.0 -1.0
outer loop
vertex 2.98070806944912 0.132005372854189 0.0
vertex 15.3 24.0 0.0
vertex 3.48609790374321 0.0331385698319694 0.0
endloop
endfacet
facet normal 0.0 0.0 -1.0
outer loop
vertex 3.48609790374321 0.0331385698319694 0.0
vertex 15.3 24.0 0.0
vertex 4.0 0.0 0.0
endloop
endfacet
facet normal 0.0 0.0 -1.0
outer loop
vertex 4.0 0.0 0.0
vertex 15.3 24.0 0.0
vertex 14.3 10.5 0.0
endloop
endfacet
facet normal 0.0 0.0 -1.0
outer loop
vertex 15.3 24.0 0.0
vertex 46.0 32.95 0.0
vertex 30.7 24.0 0.0
endloop
endfacet
facet normal 0.0 0.0 -1.0
outer loop
vertex 30.7 24.0 0.0
vertex 46.0 32.95 0.0
vertex 30.7 10.5 0.0
endloop
endfacet
facet normal 0.0 0.0 -1.0
outer loop
vertex 30.7 10.5 0.0
vertex 46.0 32.95 0.0
vertex 31.7 10.5 0.0
endloop
endfacet
facet normal 0.0 0.0 -1.0
outer loop
vertex 31.7 10.5 0.0
vertex 46.0 32.95 0.0
vertex 31.7 2.22672688519213e-16 0.0
endloop
endfacet
facet normal 0.0 0.0 -1.0
outer loop
vertex 31.7 2.22672688519213e-16 0.0
vertex 46.0 32.95 0.0
vertex 42.0 7.04991620636974e-16 0.0
endloop
endfacet
facet normal 0.0 0.0 -1.0
outer loop
vertex 42.0 7.04991620636974e-16 0.0
vertex 46.0 32.95 0.0
vertex 42.5139020962568 0.0331385698319708 0.0
endloop
endfacet
facet normal 0.0 0.0 -1.0
outer loop
vertex 42.5139020962568 0.0331385698319708 0.0
vertex 46.0 32.95 0.0
vertex 43.0192919305509 0.132005372854189 0.0
endloop
endfacet
facet normal 0.0 0.0 -1.0
outer loop
vertex 43.0192919305509 0.132005372854189 0.0
vertex 46.0 32.95 0.0
vertex 43.507798237822 0.294962781719208 0.0
endloop
endfacet
facet normal 0.0 0.0 -1.0
outer loop
vertex 43.507798237822 0.294962781719208 0.0
vertex 46.0 32.95 0.0
vertex 43.9713294113453 0.519311573825822 0.0
endloop
endfacet
facet normal 0.0 0.0 -1.0
outer loop
vertex 43.9713294113453 0.519311573825822 0.0
vertex 46.0 32.95 0.0
vertex 44.4022075319109 0.801335641177313 0.0
endloop
endfacet
facet normal 0.0 0.0 -1.0
outer loop
vertex 44.4022075319109 0.801335641177313 0.0
vertex 46.0 32.95 0.0
vertex 44.7932955446927 1.13636354390494 0.0
endloop
endfacet
facet normal 0.0 0.0 -1.0
outer loop
vertex 44.7932955446927 1.13636354390494 0.0
vertex 46.0 32.95 0.0
vertex 45.1381154772527 1.51884588788556 0.0
endloop
endfacet
facet normal 0.0 0.0 -1.0
outer loop
vertex 45.1381154772527 1.51884588788556 0.0
vertex 46.0 32.95 0.0
vertex 45.4309557405214 1.94244724477245 0.0
endloop
endfacet
facet normal 0.0 0.0 -1.0
outer loop
vertex 45.4309557405214 1.94244724477245 0.0
vertex 46.0 32.95 0.0
vertex 45.6669657354207 2.40015109187801 0.0
endloop
endfacet
facet normal 0.0 0.0 -1.0
outer loop
vertex 45.6669657354207 2.40015109187801 0.0
vertex 46.0 32.95 0.0
vertex 45.8422361980716 2.88437603368687 0.0
endloop
endfacet
facet normal 0.0 0.0 -1.0
outer loop
vertex 45.8422361980716 2.88437603368687 0.0
vertex 46.0 32.95 0.0
vertex 45.9538639527459 3.38710137990885 0.0
endloop
endfacet
facet normal 0.0 0.0 -1.0
outer loop
vertex 45.9538639527459 3.38710137990885 0.0
vertex 46.0 32.95 0.0
vertex 46.0 3.9 0.0
endloop
endfacet
facet normal 0.0 0.0 -1.0
outer loop
vertex 15.3 10.5 0.0
vertex 14.3 10.5 0.0
vertex 15.3 24.0 0.0
endloop
endfacet
facet normal 0.0 0.0 -1.0
outer loop
vertex 14.3 1.06676363649016e-16 0.0
vertex 4.0 0.0 0.0
vertex 14.3 10.5 0.0
endloop
endfacet
facet normal -0.0 1.0 -0.0
outer loop
vertex 0.0 32.95 3.0
vertex 46.0 32.95 0.0
vertex 0.0 32.95 0.0
endloop
endfacet
facet normal -0.0 1.0 -0.0
outer loop
vertex 46.0 32.95 0.0
vertex 0.0 32.95 3.0
vertex 46.0 32.95 3.0
endloop
endfacet
endsolid widerboard-test2
