solid pot-hole
facet normal -0.0 -0.0 1.0
outer loop
vertex -9.89949493661167 -9.89949493661167 0.0
vertex -3.40550565120473 -0.80779407005292 0.0
vertex -3.49853834992259 0.10114056614877 0.0
endloop
endfacet
facet normal -0.0 -0.0 1.0
outer loop
vertex -3.40550565120473 -0.80779407005292 0.0
vertex -9.89949493661167 -9.89949493661167 0.0
vertex -0.883883476483187 -9.08986704779757 0.0
endloop
endfacet
facet normal -0.0 -0.0 1.0
outer loop
vertex -0.883883476483187 -9.08986704779757 0.0
vertex -9.89949493661167 -9.89949493661167 0.0
vertex 9.89949493661167 -9.89949493661166 0.0
endloop
endfacet
facet normal -0.0 -0.0 1.0
outer loop
vertex -3.40550565120473 -0.80779407005292 0.0
vertex -0.883883476483187 -9.08986704779757 0.0
vertex -3.08039337022144 -1.66167887532332 0.0
endloop
endfacet
facet normal -0.0 -0.0 1.0
outer loop
vertex -3.08039337022144 -1.66167887532332 0.0
vertex -0.883883476483187 -9.08986704779757 0.0
vertex -2.5453573716483 -2.40232301129462 0.0
endloop
endfacet
facet normal -0.0 -0.0 1.0
outer loop
vertex -2.5453573716483 -2.40232301129462 0.0
vertex -0.883883476483187 -9.08986704779757 0.0
vertex -1.83685947459927 -2.97925280407267 0.0
endloop
endfacet
facet normal -0.0 -0.0 1.0
outer loop
vertex -1.83685947459927 -2.97925280407267 0.0
vertex -0.883883476483187 -9.08986704779757 0.0
vertex -1.00318263991011 -3.35315144170122 0.0
endloop
endfacet
facet normal -0.0 -0.0 1.0
outer loop
vertex -0.883883476483187 -9.08986704779757 0.0
vertex 9.89949493661167 -9.89949493661166 0.0
vertex 0.883883476483182 -9.08986704779757 0.0
endloop
endfacet
facet normal -0.0 -0.0 1.0
outer loop
vertex 0.883883476483182 -9.08986704779757 0.0
vertex 9.89949493661167 -9.89949493661166 0.0
vertex 0.883883476483183 -8.95792443326848 0.0
endloop
endfacet
facet normal -0.0 -0.0 1.0
outer loop
vertex 0.883883476483183 -8.95792443326848 0.0
vertex 9.89949493661167 -9.89949493661166 0.0
vertex 0.883883476483184 -7.3221000948312 0.0
endloop
endfacet
facet normal -0.0 -0.0 1.0
outer loop
vertex 0.883883476483184 -7.3221000948312 0.0
vertex 9.89949493661167 -9.89949493661166 0.0
vertex 1.66167887532332 -3.08039337022144 0.0
endloop
endfacet
facet normal -0.0 -0.0 1.0
outer loop
vertex 1.66167887532332 -3.08039337022144 0.0
vertex 9.89949493661167 -9.89949493661166 0.0
vertex 2.40232301129462 -2.5453573716483 0.0
endloop
endfacet
facet normal -0.0 -0.0 1.0
outer loop
vertex 2.40232301129462 -2.5453573716483 0.0
vertex 9.89949493661167 -9.89949493661166 0.0
vertex 2.97925280407267 -1.83685947459927 0.0
endloop
endfacet
facet normal -0.0 -0.0 1.0
outer loop
vertex 2.97925280407267 -1.83685947459927 0.0
vertex 9.89949493661167 -9.89949493661166 0.0
vertex 3.35315144170122 -1.00318263991011 0.0
endloop
endfacet
facet normal -0.0 -0.0 1.0
outer loop
vertex 3.35315144170122 -1.00318263991011 0.0
vertex 9.89949493661167 -9.89949493661166 0.0
vertex 3.49853834992259 -0.101140566148772 0.0
endloop
endfacet
facet normal -0.0 -0.0 1.0
outer loop
vertex -9.89949493661167 9.89949493661166 0.0
vertex -1.66167887532332 3.08039337022144 0.0
vertex 9.89949493661167 9.89949493661167 0.0
endloop
endfacet
facet normal -0.0 -0.0 1.0
outer loop
vertex -1.66167887532332 3.08039337022144 0.0
vertex -9.89949493661167 9.89949493661166 0.0
vertex -2.40232301129462 2.5453573716483 0.0
endloop
endfacet
facet normal -0.0 -0.0 1.0
outer loop
vertex -2.40232301129462 2.5453573716483 0.0
vertex -9.89949493661167 9.89949493661166 0.0
vertex -2.97925280407267 1.83685947459927 0.0
endloop
endfacet
facet normal -0.0 -0.0 1.0
outer loop
vertex -2.97925280407267 1.83685947459927 0.0
vertex -9.89949493661167 9.89949493661166 0.0
vertex -9.89949493661167 -9.89949493661167 0.0
endloop
endfacet
facet normal -0.0 -0.0 1.0
outer loop
vertex -2.97925280407267 1.83685947459927 0.0
vertex -9.89949493661167 -9.89949493661167 0.0
vertex -3.35315144170122 1.00318263991011 0.0
endloop
endfacet
facet normal -0.0 -0.0 1.0
outer loop
vertex -3.35315144170122 1.00318263991011 0.0
vertex -9.89949493661167 -9.89949493661167 0.0
vertex -3.49853834992259 0.10114056614877 0.0
endloop
endfacet
facet normal -0.0 -0.0 1.0
outer loop
vertex 9.89949493661167 9.89949493661167 0.0
vertex -1.66167887532332 3.08039337022144 0.0
vertex -0.807794070052921 3.40550565120473 0.0
endloop
endfacet
facet normal -0.0 -0.0 1.0
outer loop
vertex 9.89949493661167 9.89949493661167 0.0
vertex -0.807794070052921 3.40550565120473 0.0
vertex 0.101140566148769 3.49853834992259 0.0
endloop
endfacet
facet normal -0.0 -0.0 1.0
outer loop
vertex 9.89949493661167 9.89949493661167 0.0
vertex 0.101140566148769 3.49853834992259 0.0
vertex 1.00318263991011 3.35315144170122 0.0
endloop
endfacet
facet normal -0.0 -0.0 1.0
outer loop
vertex 9.89949493661167 9.89949493661167 0.0
vertex 1.00318263991011 3.35315144170122 0.0
vertex 1.83685947459927 2.97925280407267 0.0
endloop
endfacet
facet normal -0.0 -0.0 1.0
outer loop
vertex 9.89949493661167 9.89949493661167 0.0
vertex 1.83685947459927 2.97925280407267 0.0
vertex 2.5453573716483 2.40232301129462 0.0
endloop
endfacet
facet normal -0.0 -0.0 1.0
outer loop
vertex 9.89949493661167 9.89949493661167 0.0
vertex 2.5453573716483 2.40232301129462 0.0
vertex 3.08039337022144 1.66167887532332 0.0
endloop
endfacet
facet normal -0.0 -0.0 1.0
outer loop
vertex 9.89949493661167 9.89949493661167 0.0
vertex 3.08039337022144 1.66167887532332 0.0
vertex 3.40550565120473 0.80779407005292 0.0
endloop
endfacet
facet normal -0.0 -0.0 1.0
outer loop
vertex 9.89949493661167 9.89949493661167 0.0
vertex 3.40550565120473 0.80779407005292 0.0
vertex 3.49853834992259 -0.101140566148772 0.0
endloop
endfacet
facet normal -0.0 -0.0 1.0
outer loop
vertex 9.89949493661167 9.89949493661167 0.0
vertex 3.49853834992259 -0.101140566148772 0.0
vertex 9.89949493661167 -9.89949493661166 0.0
endloop
endfacet
facet normal -0.0 -0.0 1.0
outer loop
vertex -1.00318263991011 -3.35315144170122 0.0
vertex -0.883883476483185 -7.3221000948312 0.0
vertex -0.101140566148769 -3.49853834992259 0.0
endloop
endfacet
facet normal -0.0 -0.0 1.0
outer loop
vertex -0.883883476483185 -7.3221000948312 0.0
vertex -1.00318263991011 -3.35315144170122 0.0
vertex -0.883883476483187 -9.08986704779757 0.0
endloop
endfacet
facet normal -0.0 -0.0 1.0
outer loop
vertex -0.101140566148769 -3.49853834992259 0.0
vertex -0.883883476483185 -7.3221000948312 0.0
vertex -0.741177867828886 -7.3221000948312 0.0
endloop
endfacet
facet normal -0.0 -0.0 1.0
outer loop
vertex -0.101140566148769 -3.49853834992259 0.0
vertex -0.741177867828886 -7.3221000948312 0.0
vertex 0.883883476483184 -7.3221000948312 0.0
endloop
endfacet
facet normal -0.0 -0.0 1.0
outer loop
vertex -0.101140566148769 -3.49853834992259 0.0
vertex 0.883883476483184 -7.3221000948312 0.0
vertex 0.807794070052919 -3.40550565120473 0.0
endloop
endfacet
facet normal -0.0 -0.0 1.0
outer loop
vertex 0.807794070052919 -3.40550565120473 0.0
vertex 0.883883476483184 -7.3221000948312 0.0
vertex 1.66167887532332 -3.08039337022144 0.0
endloop
endfacet
facet normal 0.0 0.0 -1.0
outer loop
vertex -1.00318263991011 -3.35315144170122 -3.0
vertex -0.883883476483185 -7.3221000948312 -3.0
vertex -0.883883476483187 -9.08986704779757 -3.0
endloop
endfacet
facet normal 0.0 0.0 -1.0
outer loop
vertex -0.883883476483185 -7.3221000948312 -3.0
vertex -1.00318263991011 -3.35315144170122 -3.0
vertex -0.101140566148769 -3.49853834992259 -3.0
endloop
endfacet
facet normal 0.0 0.0 -1.0
outer loop
vertex -0.883883476483185 -7.3221000948312 -3.0
vertex -0.101140566148769 -3.49853834992259 -3.0
vertex -0.741177867828886 -7.3221000948312 -3.0
endloop
endfacet
facet normal 0.0 0.0 -1.0
outer loop
vertex -0.741177867828886 -7.3221000948312 -3.0
vertex -0.101140566148769 -3.49853834992259 -3.0
vertex 0.883883476483184 -7.3221000948312 -3.0
endloop
endfacet
facet normal 0.0 0.0 -1.0
outer loop
vertex 0.883883476483184 -7.3221000948312 -3.0
vertex -0.101140566148769 -3.49853834992259 -3.0
vertex 0.807794070052919 -3.40550565120473 -3.0
endloop
endfacet
facet normal 0.0 0.0 -1.0
outer loop
vertex 0.883883476483184 -7.3221000948312 -3.0
vertex 0.807794070052919 -3.40550565120473 -3.0
vertex 1.66167887532332 -3.08039337022144 -3.0
endloop
endfacet
facet normal 0.0 0.0 -1.0
outer loop
vertex -9.89949493661167 9.89949493661166 -3.0
vertex -2.97925280407267 1.83685947459927 -3.0
vertex -9.89949493661167 -9.89949493661167 -3.0
endloop
endfacet
facet normal 0.0 0.0 -1.0
outer loop
vertex -2.97925280407267 1.83685947459927 -3.0
vertex -9.89949493661167 9.89949493661166 -3.0
vertex -2.40232301129462 2.5453573716483 -3.0
endloop
endfacet
facet normal 0.0 0.0 -1.0
outer loop
vertex -2.40232301129462 2.5453573716483 -3.0
vertex -9.89949493661167 9.89949493661166 -3.0
vertex -1.66167887532332 3.08039337022144 -3.0
endloop
endfacet
facet normal 0.0 0.0 -1.0
outer loop
vertex -1.66167887532332 3.08039337022144 -3.0
vertex -9.89949493661167 9.89949493661166 -3.0
vertex 9.89949493661167 9.89949493661167 -3.0
endloop
endfacet
facet normal 0.0 0.0 -1.0
outer loop
vertex -9.89949493661167 -9.89949493661167 -3.0
vertex -2.97925280407267 1.83685947459927 -3.0
vertex -3.35315144170122 1.00318263991011 -3.0
endloop
endfacet
facet normal 0.0 0.0 -1.0
outer loop
vertex -9.89949493661167 -9.89949493661167 -3.0
vertex -3.35315144170122 1.00318263991011 -3.0
vertex -3.49853834992259 0.10114056614877 -3.0
endloop
endfacet
facet normal 0.0 0.0 -1.0
outer loop
vertex -1.66167887532332 3.08039337022144 -3.0
vertex 9.89949493661167 9.89949493661167 -3.0
vertex -0.807794070052921 3.40550565120473 -3.0
endloop
endfacet
facet normal 0.0 0.0 -1.0
outer loop
vertex -0.807794070052921 3.40550565120473 -3.0
vertex 9.89949493661167 9.89949493661167 -3.0
vertex 0.101140566148769 3.49853834992259 -3.0
endloop
endfacet
facet normal 0.0 0.0 -1.0
outer loop
vertex 0.101140566148769 3.49853834992259 -3.0
vertex 9.89949493661167 9.89949493661167 -3.0
vertex 1.00318263991011 3.35315144170122 -3.0
endloop
endfacet
facet normal 0.0 0.0 -1.0
outer loop
vertex 1.00318263991011 3.35315144170122 -3.0
vertex 9.89949493661167 9.89949493661167 -3.0
vertex 1.83685947459927 2.97925280407267 -3.0
endloop
endfacet
facet normal 0.0 0.0 -1.0
outer loop
vertex 1.83685947459927 2.97925280407267 -3.0
vertex 9.89949493661167 9.89949493661167 -3.0
vertex 2.5453573716483 2.40232301129462 -3.0
endloop
endfacet
facet normal 0.0 0.0 -1.0
outer loop
vertex 2.5453573716483 2.40232301129462 -3.0
vertex 9.89949493661167 9.89949493661167 -3.0
vertex 3.08039337022144 1.66167887532332 -3.0
endloop
endfacet
facet normal 0.0 0.0 -1.0
outer loop
vertex 3.08039337022144 1.66167887532332 -3.0
vertex 9.89949493661167 9.89949493661167 -3.0
vertex 3.40550565120473 0.80779407005292 -3.0
endloop
endfacet
facet normal 0.0 0.0 -1.0
outer loop
vertex 3.40550565120473 0.80779407005292 -3.0
vertex 9.89949493661167 9.89949493661167 -3.0
vertex 3.49853834992259 -0.101140566148772 -3.0
endloop
endfacet
facet normal 0.0 0.0 -1.0
outer loop
vertex 3.49853834992259 -0.101140566148772 -3.0
vertex 9.89949493661167 9.89949493661167 -3.0
vertex 9.89949493661167 -9.89949493661166 -3.0
endloop
endfacet
facet normal 0.0 0.0 -1.0
outer loop
vertex -9.89949493661167 -9.89949493661167 -3.0
vertex -0.883883476483187 -9.08986704779757 -3.0
vertex 9.89949493661167 -9.89949493661166 -3.0
endloop
endfacet
facet normal 0.0 0.0 -1.0
outer loop
vertex -0.883883476483187 -9.08986704779757 -3.0
vertex -9.89949493661167 -9.89949493661167 -3.0
vertex -3.40550565120473 -0.80779407005292 -3.0
endloop
endfacet
facet normal 0.0 0.0 -1.0
outer loop
vertex -3.40550565120473 -0.80779407005292 -3.0
vertex -9.89949493661167 -9.89949493661167 -3.0
vertex -3.49853834992259 0.10114056614877 -3.0
endloop
endfacet
facet normal 0.0 0.0 -1.0
outer loop
vertex -0.883883476483187 -9.08986704779757 -3.0
vertex -3.40550565120473 -0.80779407005292 -3.0
vertex -3.08039337022144 -1.66167887532332 -3.0
endloop
endfacet
facet normal 0.0 0.0 -1.0
outer loop
vertex -0.883883476483187 -9.08986704779757 -3.0
vertex -3.08039337022144 -1.66167887532332 -3.0
vertex -2.5453573716483 -2.40232301129462 -3.0
endloop
endfacet
facet normal 0.0 0.0 -1.0
outer loop
vertex -0.883883476483187 -9.08986704779757 -3.0
vertex -2.5453573716483 -2.40232301129462 -3.0
vertex -1.83685947459927 -2.97925280407267 -3.0
endloop
endfacet
facet normal 0.0 0.0 -1.0
outer loop
vertex -0.883883476483187 -9.08986704779757 -3.0
vertex -1.83685947459927 -2.97925280407267 -3.0
vertex -1.00318263991011 -3.35315144170122 -3.0
endloop
endfacet
facet normal 0.0 0.0 -1.0
outer loop
vertex 9.89949493661167 -9.89949493661166 -3.0
vertex -0.883883476483187 -9.08986704779757 -3.0
vertex 0.883883476483182 -9.08986704779757 -3.0
endloop
endfacet
facet normal 0.0 0.0 -1.0
outer loop
vertex 9.89949493661167 -9.89949493661166 -3.0
vertex 0.883883476483182 -9.08986704779757 -3.0
vertex 0.883883476483183 -8.95792443326848 -3.0
endloop
endfacet
facet normal 0.0 0.0 -1.0
outer loop
vertex 9.89949493661167 -9.89949493661166 -3.0
vertex 0.883883476483183 -8.95792443326848 -3.0
vertex 0.883883476483184 -7.3221000948312 -3.0
endloop
endfacet
facet normal 0.0 0.0 -1.0
outer loop
vertex 9.89949493661167 -9.89949493661166 -3.0
vertex 0.883883476483184 -7.3221000948312 -3.0
vertex 1.66167887532332 -3.08039337022144 -3.0
endloop
endfacet
facet normal 0.0 0.0 -1.0
outer loop
vertex 9.89949493661167 -9.89949493661166 -3.0
vertex 1.66167887532332 -3.08039337022144 -3.0
vertex 2.40232301129462 -2.5453573716483 -3.0
endloop
endfacet
facet normal 0.0 0.0 -1.0
outer loop
vertex 9.89949493661167 -9.89949493661166 -3.0
vertex 2.40232301129462 -2.5453573716483 -3.0
vertex 2.97925280407267 -1.83685947459927 -3.0
endloop
endfacet
facet normal 0.0 0.0 -1.0
outer loop
vertex 9.89949493661167 -9.89949493661166 -3.0
vertex 2.97925280407267 -1.83685947459927 -3.0
vertex 3.35315144170122 -1.00318263991011 -3.0
endloop
endfacet
facet normal 0.0 0.0 -1.0
outer loop
vertex 9.89949493661167 -9.89949493661166 -3.0
vertex 3.35315144170122 -1.00318263991011 -3.0
vertex 3.49853834992259 -0.101140566148772 -3.0
endloop
endfacet
facet normal 2.13644723842328e-16 -1.0 0.0
outer loop
vertex 9.89949493661167 -9.89949493661166 0.0
vertex -9.89949493661167 -9.89949493661167 -3.0
vertex 9.89949493661167 -9.89949493661166 -3.0
endloop
endfacet
facet normal 2.13644723842328e-16 -1.0 0.0
outer loop
vertex -9.89949493661167 -9.89949493661167 -3.0
vertex 9.89949493661167 -9.89949493661166 0.0
vertex -9.89949493661167 -9.89949493661167 0.0
endloop
endfacet
facet normal -1.0 -7.12149079474427e-17 -0.0
outer loop
vertex -9.89949493661167 9.89949493661166 0.0
vertex -9.89949493661167 -9.89949493661167 -3.0
vertex -9.89949493661167 -9.89949493661167 0.0
endloop
endfacet
facet normal -1.0 -7.12149079474427e-17 -0.0
outer loop
vertex -9.89949493661167 -9.89949493661167 -3.0
vertex -9.89949493661167 9.89949493661166 0.0
vertex -9.89949493661167 9.89949493661166 -3.0
endloop
endfacet
facet normal -2.13644723842328e-16 1.0 0.0
outer loop
vertex -9.89949493661167 9.89949493661166 0.0
vertex 9.89949493661167 9.89949493661167 -3.0
vertex -9.89949493661167 9.89949493661166 -3.0
endloop
endfacet
facet normal -2.13644723842328e-16 1.0 0.0
outer loop
vertex 9.89949493661167 9.89949493661167 -3.0
vertex -9.89949493661167 9.89949493661166 0.0
vertex 9.89949493661167 9.89949493661167 0.0
endloop
endfacet
facet normal 1.0 -7.12149079474427e-17 0.0
outer loop
vertex 9.89949493661167 9.89949493661167 -3.0
vertex 9.89949493661167 -9.89949493661166 0.0
vertex 9.89949493661167 -9.89949493661166 -3.0
endloop
endfacet
facet normal 1.0 -7.12149079474427e-17 0.0
outer loop
vertex 9.89949493661167 -9.89949493661166 0.0
vertex 9.89949493661167 9.89949493661167 -3.0
vertex 9.89949493661167 9.89949493661167 0.0
endloop
endfacet
facet normal 0.99958238569217 -0.0288973046139343 0.0
outer loop
vertex -3.49853834992259 0.10114056614877 -3.0
vertex -3.40550565120473 -0.80779407005292 0.0
vertex -3.40550565120473 -0.80779407005292 -3.0
endloop
endfacet
facet normal 0.973001614629922 0.230798305729406 0.0
outer loop
vertex -3.40550565120473 -0.80779407005292 0.0
vertex -3.49853834992259 0.10114056614877 -3.0
vertex -3.49853834992259 0.10114056614877 0.0
endloop
endfacet
facet normal 0.973001614629922 0.230798305729406 0.0
outer loop
vertex -3.40550565120473 -0.80779407005292 -3.0
vertex -3.08039337022144 -1.66167887532332 0.0
vertex -3.08039337022144 -1.66167887532332 -3.0
endloop
endfacet
facet normal 0.880112391491841 0.474765392949521 0.0
outer loop
vertex -3.08039337022144 -1.66167887532332 0.0
vertex -3.40550565120473 -0.80779407005292 -3.0
vertex -3.40550565120473 -0.80779407005292 0.0
endloop
endfacet
facet normal 0.880112391491841 0.474765392949521 0.0
outer loop
vertex -3.08039337022144 -1.66167887532332 -3.0
vertex -2.5453573716483 -2.40232301129462 0.0
vertex -2.5453573716483 -2.40232301129462 -3.0
endloop
endfacet
facet normal 0.727244963328086 0.686378003227034 0.0
outer loop
vertex -2.5453573716483 -2.40232301129462 0.0
vertex -3.08039337022144 -1.66167887532332 -3.0
vertex -3.08039337022144 -1.66167887532332 0.0
endloop
endfacet
facet normal 0.727244963328086 0.686378003227034 0.0
outer loop
vertex -2.5453573716483 -2.40232301129462 0.0
vertex -1.83685947459927 -2.97925280407267 -3.0
vertex -2.5453573716483 -2.40232301129462 -3.0
endloop
endfacet
facet normal 0.524816992742649 0.851215086877906 0.0
outer loop
vertex -1.83685947459927 -2.97925280407267 -3.0
vertex -2.5453573716483 -2.40232301129462 0.0
vertex -1.83685947459927 -2.97925280407267 0.0
endloop
endfacet
facet normal 0.524816992742649 0.851215086877906 0.0
outer loop
vertex -1.83685947459927 -2.97925280407267 0.0
vertex -1.00318263991011 -3.35315144170122 -3.0
vertex -1.83685947459927 -2.97925280407267 -3.0
endloop
endfacet
facet normal 0.286623611402889 0.958043269057492 0.0
outer loop
vertex -1.00318263991011 -3.35315144170122 -3.0
vertex -1.83685947459927 -2.97925280407267 0.0
vertex -1.00318263991011 -3.35315144170122 0.0
endloop
endfacet
facet normal 0.286623611402889 0.958043269057492 0.0
outer loop
vertex -1.00318263991011 -3.35315144170122 0.0
vertex -0.101140566148769 -3.49853834992259 -3.0
vertex -1.00318263991011 -3.35315144170122 -3.0
endloop
endfacet
facet normal 0.0288973046139342 0.99958238569217 0.0
outer loop
vertex -0.101140566148769 -3.49853834992259 -3.0
vertex -1.00318263991011 -3.35315144170122 0.0
vertex -0.101140566148769 -3.49853834992259 0.0
endloop
endfacet
facet normal 0.0288973046139342 0.99958238569217 0.0
outer loop
vertex -0.101140566148769 -3.49853834992259 0.0
vertex 0.807794070052919 -3.40550565120473 -3.0
vertex -0.101140566148769 -3.49853834992259 -3.0
endloop
endfacet
facet normal -0.230798305729405 0.973001614629922 0.0
outer loop
vertex 0.807794070052919 -3.40550565120473 -3.0
vertex -0.101140566148769 -3.49853834992259 0.0
vertex 0.807794070052919 -3.40550565120473 0.0
endloop
endfacet
facet normal -0.230798305729405 0.973001614629922 0.0
outer loop
vertex 0.807794070052919 -3.40550565120473 0.0
vertex 1.66167887532332 -3.08039337022144 -3.0
vertex 0.807794070052919 -3.40550565120473 -3.0
endloop
endfacet
facet normal -0.47476539294952 0.880112391491841 0.0
outer loop
vertex 1.66167887532332 -3.08039337022144 -3.0
vertex 0.807794070052919 -3.40550565120473 0.0
vertex 1.66167887532332 -3.08039337022144 0.0
endloop
endfacet
facet normal -0.47476539294952 0.880112391491841 0.0
outer loop
vertex 1.66167887532332 -3.08039337022144 0.0
vertex 2.40232301129462 -2.5453573716483 -3.0
vertex 1.66167887532332 -3.08039337022144 -3.0
endloop
endfacet
facet normal -0.686378003227034 0.727244963328087 0.0
outer loop
vertex 2.40232301129462 -2.5453573716483 -3.0
vertex 1.66167887532332 -3.08039337022144 0.0
vertex 2.40232301129462 -2.5453573716483 0.0
endloop
endfacet
facet normal -0.851215086877906 0.52481699274265 0.0
outer loop
vertex 2.97925280407267 -1.83685947459927 0.0
vertex 2.40232301129462 -2.5453573716483 -3.0
vertex 2.40232301129462 -2.5453573716483 0.0
endloop
endfacet
facet normal -0.686378003227034 0.727244963328087 0.0
outer loop
vertex 2.40232301129462 -2.5453573716483 -3.0
vertex 2.97925280407267 -1.83685947459927 0.0
vertex 2.97925280407267 -1.83685947459927 -3.0
endloop
endfacet
facet normal -0.958043269057492 0.286623611402889 0.0
outer loop
vertex 3.35315144170122 -1.00318263991011 0.0
vertex 2.97925280407267 -1.83685947459927 -3.0
vertex 2.97925280407267 -1.83685947459927 0.0
endloop
endfacet
facet normal -0.851215086877906 0.52481699274265 0.0
outer loop
vertex 2.97925280407267 -1.83685947459927 -3.0
vertex 3.35315144170122 -1.00318263991011 0.0
vertex 3.35315144170122 -1.00318263991011 -3.0
endloop
endfacet
facet normal -0.99958238569217 0.0288973046139346 0.0
outer loop
vertex 3.49853834992259 -0.101140566148772 0.0
vertex 3.35315144170122 -1.00318263991011 -3.0
vertex 3.35315144170122 -1.00318263991011 0.0
endloop
endfacet
facet normal -0.958043269057492 0.286623611402889 0.0
outer loop
vertex 3.35315144170122 -1.00318263991011 -3.0
vertex 3.49853834992259 -0.101140566148772 0.0
vertex 3.49853834992259 -0.101140566148772 -3.0
endloop
endfacet
facet normal -0.973001614629922 -0.230798305729406 0.0
outer loop
vertex 3.40550565120473 0.80779407005292 0.0
vertex 3.49853834992259 -0.101140566148772 -3.0
vertex 3.49853834992259 -0.101140566148772 0.0
endloop
endfacet
facet normal -0.99958238569217 0.0288973046139346 0.0
outer loop
vertex 3.49853834992259 -0.101140566148772 -3.0
vertex 3.40550565120473 0.80779407005292 0.0
vertex 3.40550565120473 0.80779407005292 -3.0
endloop
endfacet
facet normal -0.880112391491841 -0.474765392949521 0.0
outer loop
vertex 3.08039337022144 1.66167887532332 0.0
vertex 3.40550565120473 0.80779407005292 -3.0
vertex 3.40550565120473 0.80779407005292 0.0
endloop
endfacet
facet normal -0.973001614629922 -0.230798305729406 0.0
outer loop
vertex 3.40550565120473 0.80779407005292 -3.0
vertex 3.08039337022144 1.66167887532332 0.0
vertex 3.08039337022144 1.66167887532332 -3.0
endloop
endfacet
facet normal -0.727244963328087 -0.686378003227034 0.0
outer loop
vertex 2.5453573716483 2.40232301129462 0.0
vertex 3.08039337022144 1.66167887532332 -3.0
vertex 3.08039337022144 1.66167887532332 0.0
endloop
endfacet
facet normal -0.880112391491841 -0.474765392949521 0.0
outer loop
vertex 3.08039337022144 1.66167887532332 -3.0
vertex 2.5453573716483 2.40232301129462 0.0
vertex 2.5453573716483 2.40232301129462 -3.0
endloop
endfacet
facet normal -0.727244963328087 -0.686378003227034 0.0
outer loop
vertex 2.5453573716483 2.40232301129462 0.0
vertex 1.83685947459927 2.97925280407267 -3.0
vertex 2.5453573716483 2.40232301129462 -3.0
endloop
endfacet
facet normal -0.524816992742649 -0.851215086877907 0.0
outer loop
vertex 1.83685947459927 2.97925280407267 -3.0
vertex 2.5453573716483 2.40232301129462 0.0
vertex 1.83685947459927 2.97925280407267 0.0
endloop
endfacet
facet normal -0.524816992742649 -0.851215086877907 0.0
outer loop
vertex 1.83685947459927 2.97925280407267 0.0
vertex 1.00318263991011 3.35315144170122 -3.0
vertex 1.83685947459927 2.97925280407267 -3.0
endloop
endfacet
facet normal -0.286623611402888 -0.958043269057492 0.0
outer loop
vertex 1.00318263991011 3.35315144170122 -3.0
vertex 1.83685947459927 2.97925280407267 0.0
vertex 1.00318263991011 3.35315144170122 0.0
endloop
endfacet
facet normal -0.286623611402888 -0.958043269057492 0.0
outer loop
vertex 1.00318263991011 3.35315144170122 0.0
vertex 0.101140566148769 3.49853834992259 -3.0
vertex 1.00318263991011 3.35315144170122 -3.0
endloop
endfacet
facet normal -0.0288973046139339 -0.99958238569217 0.0
outer loop
vertex 0.101140566148769 3.49853834992259 -3.0
vertex 1.00318263991011 3.35315144170122 0.0
vertex 0.101140566148769 3.49853834992259 0.0
endloop
endfacet
facet normal -0.0288973046139339 -0.99958238569217 0.0
outer loop
vertex 0.101140566148769 3.49853834992259 0.0
vertex -0.807794070052921 3.40550565120473 -3.0
vertex 0.101140566148769 3.49853834992259 -3.0
endloop
endfacet
facet normal 0.230798305729405 -0.973001614629922 0.0
outer loop
vertex -0.807794070052921 3.40550565120473 -3.0
vertex 0.101140566148769 3.49853834992259 0.0
vertex -0.807794070052921 3.40550565120473 0.0
endloop
endfacet
facet normal 0.230798305729405 -0.973001614629922 0.0
outer loop
vertex -0.807794070052921 3.40550565120473 0.0
vertex -1.66167887532332 3.08039337022144 -3.0
vertex -0.807794070052921 3.40550565120473 -3.0
endloop
endfacet
facet normal 0.47476539294952 -0.880112391491841 0.0
outer loop
vertex -1.66167887532332 3.08039337022144 -3.0
vertex -0.807794070052921 3.40550565120473 0.0
vertex -1.66167887532332 3.08039337022144 0.0
endloop
endfacet
facet normal 0.47476539294952 -0.880112391491841 0.0
outer loop
vertex -1.66167887532332 3.08039337022144 0.0
vertex -2.40232301129462 2.5453573716483 -3.0
vertex -1.66167887532332 3.08039337022144 -3.0
endloop
endfacet
facet normal 0.686378003227034 -0.727244963328086 0.0
outer loop
vertex -2.40232301129462 2.5453573716483 -3.0
vertex -1.66167887532332 3.08039337022144 0.0
vertex -2.40232301129462 2.5453573716483 0.0
endloop
endfacet
facet normal 0.686378003227034 -0.727244963328086 0.0
outer loop
vertex -2.40232301129462 2.5453573716483 -3.0
vertex -2.97925280407267 1.83685947459927 0.0
vertex -2.97925280407267 1.83685947459927 -3.0
endloop
endfacet
facet normal 0.851215086877907 -0.524816992742649 0.0
outer loop
vertex -2.97925280407267 1.83685947459927 0.0
vertex -2.40232301129462 2.5453573716483 -3.0
vertex -2.40232301129462 2.5453573716483 0.0
endloop
endfacet
facet normal 0.851215086877907 -0.524816992742649 0.0
outer loop
vertex -2.97925280407267 1.83685947459927 -3.0
vertex -3.35315144170122 1.00318263991011 0.0
vertex -3.35315144170122 1.00318263991011 -3.0
endloop
endfacet
facet normal 0.958043269057492 -0.286623611402888 0.0
outer loop
vertex -3.35315144170122 1.00318263991011 0.0
vertex -2.97925280407267 1.83685947459927 -3.0
vertex -2.97925280407267 1.83685947459927 0.0
endloop
endfacet
facet normal 0.958043269057492 -0.286623611402888 0.0
outer loop
vertex -3.35315144170122 1.00318263991011 -3.0
vertex -3.49853834992259 0.10114056614877 0.0
vertex -3.49853834992259 0.10114056614877 -3.0
endloop
endfacet
facet normal 0.99958238569217 -0.0288973046139343 0.0
outer loop
vertex -3.49853834992259 0.10114056614877 0.0
vertex -3.35315144170122 1.00318263991011 -3.0
vertex -3.35315144170122 1.00318263991011 0.0
endloop
endfacet
facet normal -9.88036317962522e-15 -1.0 -9.25601077160646e-33
outer loop
vertex -0.741177867828886 -7.3221000948312 -2.0
vertex -0.883883476483185 -7.3221000948312 -3.0
vertex -0.741177867828886 -7.3221000948312 -3.0
endloop
endfacet
facet normal -9.88036317962522e-15 -1.0 -9.25601077160646e-33
outer loop
vertex -0.883883476483185 -7.3221000948312 -3.0
vertex -0.741177867828886 -7.3221000948312 -2.0
vertex -0.883883476483185 -7.3221000948312 -2.0
endloop
endfacet
facet normal -1.0 2.15485123943827e-16 -3.22989362570495e-33
outer loop
vertex 0.883883476483184 -7.3221000948312 -2.0
vertex 0.883883476483183 -8.95792443326848 -3.0
vertex 0.883883476483183 -8.95792443326848 -2.0
endloop
endfacet
facet normal -1.0 2.15485123943827e-16 -3.22989362570495e-33
outer loop
vertex 0.883883476483183 -8.95792443326848 -3.0
vertex 0.883883476483184 -7.3221000948312 -2.0
vertex 0.883883476483184 -7.3221000948312 -3.0
endloop
endfacet
facet normal 1.0 -1.19641045351704e-15 2.6899387021367e-32
outer loop
vertex -0.883883476483185 -7.3221000948312 -3.0
vertex -0.883883476483187 -9.08986704779757 -2.0
vertex -0.883883476483187 -9.08986704779757 -3.0
endloop
endfacet
facet normal 1.0 -1.19641045351704e-15 2.6899387021367e-32
outer loop
vertex -0.883883476483187 -9.08986704779757 -2.0
vertex -0.883883476483185 -7.3221000948312 -3.0
vertex -0.883883476483185 -7.3221000948312 -2.0
endloop
endfacet
facet normal -1.0 1.46937133516043e-14 2.26173100039468e-34
outer loop
vertex 0.883883476483183 -8.95792443326848 -2.0
vertex 0.883883476483182 -9.08986704779757 -3.0
vertex 0.883883476483182 -9.08986704779757 -2.0
endloop
endfacet
facet normal -1.0 1.46937133516043e-14 2.26173100039468e-34
outer loop
vertex 0.883883476483182 -9.08986704779757 -3.0
vertex 0.883883476483183 -8.95792443326848 -2.0
vertex 0.883883476483183 -8.95792443326848 -3.0
endloop
endfacet
facet normal 1.59521393802272e-15 1.0 1.19552831206075e-32
outer loop
vertex -0.883883476483187 -9.08986704779757 -2.0
vertex 0.883883476483182 -9.08986704779757 -3.0
vertex -0.883883476483187 -9.08986704779757 -3.0
endloop
endfacet
facet normal 1.59521393802272e-15 1.0 1.19552831206075e-32
outer loop
vertex 0.883883476483182 -9.08986704779757 -3.0
vertex -0.883883476483187 -9.08986704779757 -2.0
vertex 0.883883476483182 -9.08986704779757 -2.0
endloop
endfacet
facet normal 8.6764924057118e-16 -1.0 0.0
outer loop
vertex 0.883883476483184 -7.3221000948312 -2.0
vertex -0.741177867828886 -7.3221000948312 -3.0
vertex 0.883883476483184 -7.3221000948312 -3.0
endloop
endfacet
facet normal 8.6764924057118e-16 -1.0 0.0
outer loop
vertex -0.741177867828886 -7.3221000948312 -3.0
vertex 0.883883476483184 -7.3221000948312 -2.0
vertex -0.741177867828886 -7.3221000948312 -2.0
endloop
endfacet
facet normal -0.0 -0.0 1.0
outer loop
vertex 0.883883476483182 -9.08986704779757 -2.0
vertex -0.883883476483185 -7.3221000948312 -2.0
vertex -0.883883476483187 -9.08986704779757 -2.0
endloop
endfacet
facet normal -0.0 -0.0 1.0
outer loop
vertex -0.883883476483185 -7.3221000948312 -2.0
vertex 0.883883476483182 -9.08986704779757 -2.0
vertex -0.741177867828886 -7.3221000948312 -2.0
endloop
endfacet
facet normal -0.0 -0.0 1.0
outer loop
vertex -0.741177867828886 -7.3221000948312 -2.0
vertex 0.883883476483182 -9.08986704779757 -2.0
vertex 0.883883476483184 -7.3221000948312 -2.0
endloop
endfacet
facet normal -0.0 -0.0 1.0
outer loop
vertex 0.883883476483184 -7.3221000948312 -2.0
vertex 0.883883476483182 -9.08986704779757 -2.0
vertex 0.883883476483183 -8.95792443326848 -2.0
endloop
endfacet
facet normal -1.0 2.15485123943828e-16 0.0
outer loop
vertex 0.883883476483184 -7.3221000948312 0.0
vertex 0.883883476483183 -8.95792443326848 -2.0
vertex 0.883883476483183 -8.95792443326848 0.0
endloop
endfacet
facet normal -1.0 2.15485123943828e-16 0.0
outer loop
vertex 0.883883476483183 -8.95792443326848 -2.0
vertex 0.883883476483184 -7.3221000948312 0.0
vertex 0.883883476483184 -7.3221000948312 -2.0
endloop
endfacet
facet normal -1.0 1.46937133516043e-14 0.0
outer loop
vertex 0.883883476483183 -8.95792443326848 0.0
vertex 0.883883476483182 -9.08986704779757 -2.0
vertex 0.883883476483182 -9.08986704779757 0.0
endloop
endfacet
facet normal -1.0 1.46937133516043e-14 0.0
outer loop
vertex 0.883883476483182 -9.08986704779757 -2.0
vertex 0.883883476483183 -8.95792443326848 0.0
vertex 0.883883476483183 -8.95792443326848 -2.0
endloop
endfacet
facet normal 1.59521393802272e-15 1.0 -0.0
outer loop
vertex -0.883883476483187 -9.08986704779757 0.0
vertex 0.883883476483182 -9.08986704779757 -2.0
vertex -0.883883476483187 -9.08986704779757 -2.0
endloop
endfacet
facet normal 1.59521393802272e-15 1.0 -0.0
outer loop
vertex 0.883883476483182 -9.08986704779757 -2.0
vertex -0.883883476483187 -9.08986704779757 0.0
vertex 0.883883476483182 -9.08986704779757 0.0
endloop
endfacet
facet normal 1.0 -1.19641045351704e-15 -0.0
outer loop
vertex -0.883883476483185 -7.3221000948312 -2.0
vertex -0.883883476483187 -9.08986704779757 0.0
vertex -0.883883476483187 -9.08986704779757 -2.0
endloop
endfacet
facet normal 1.0 -1.19641045351704e-15 -0.0
outer loop
vertex -0.883883476483187 -9.08986704779757 0.0
vertex -0.883883476483185 -7.3221000948312 -2.0
vertex -0.883883476483185 -7.3221000948312 0.0
endloop
endfacet
facet normal 3.6122163477465e-16 -1.0 0.0
outer loop
vertex 0.883883476483184 -7.3221000948312 0.0
vertex -0.741177867828886 -7.3221000948312 -2.0
vertex 0.883883476483184 -7.3221000948312 -2.0
endloop
endfacet
facet normal 3.6122163477465e-16 -1.0 0.0
outer loop
vertex -0.741177867828886 -7.3221000948312 -2.0
vertex 0.883883476483184 -7.3221000948312 0.0
vertex -0.883883476483185 -7.3221000948312 -2.0
endloop
endfacet
facet normal 3.6122163477465e-16 -1.0 0.0
outer loop
vertex -0.883883476483185 -7.3221000948312 -2.0
vertex 0.883883476483184 -7.3221000948312 0.0
vertex -0.883883476483185 -7.3221000948312 0.0
endloop
endfacet
facet normal 3.6122163477465e-16 -1.0 0.0
outer loop
vertex -0.883883476483185 -7.3221000948312 0.0
vertex 0.883883476483184 -7.3221000948312 0.0
vertex -0.741177867828886 -7.3221000948312 0.0
endloop
endfacet
endsolid pot-hole
