solid pot-hole
facet normal -0.0 -0.0 1.0
outer loop
vertex -9.89949493661167 -9.89949493661167 0.0
vertex -3.62222184858401 -0.970571419134455 0.0
vertex -3.75 -6.88863824520386e-16 0.0
endloop
endfacet
facet normal -0.0 -0.0 1.0
outer loop
vertex -3.62222184858401 -0.970571419134455 0.0
vertex -9.89949493661167 -9.89949493661167 0.0
vertex -1.8 -8.71401724049577 0.0
endloop
endfacet
facet normal -0.0 -0.0 1.0
outer loop
vertex -1.8 -8.71401724049577 0.0
vertex -9.89949493661167 -9.89949493661167 0.0
vertex 9.89949493661167 -9.89949493661166 0.0
endloop
endfacet
facet normal -0.0 -0.0 1.0
outer loop
vertex -3.62222184858401 -0.970571419134455 0.0
vertex -1.8 -8.71401724049577 0.0
vertex -3.24759526419164 -1.875 0.0
endloop
endfacet
facet normal -0.0 -0.0 1.0
outer loop
vertex -3.24759526419164 -1.875 0.0
vertex -1.8 -8.71401724049577 0.0
vertex -2.65165042944955 -2.65165042944956 0.0
endloop
endfacet
facet normal -0.0 -0.0 1.0
outer loop
vertex -2.65165042944955 -2.65165042944956 0.0
vertex -1.8 -8.71401724049577 0.0
vertex -1.875 -3.24759526419165 0.0
endloop
endfacet
facet normal -0.0 -0.0 1.0
outer loop
vertex -1.8 -8.71401724049577 0.0
vertex 9.89949493661167 -9.89949493661166 0.0
vertex 1.8 -8.71401724049577 0.0
endloop
endfacet
facet normal -0.0 -0.0 1.0
outer loop
vertex 1.8 -8.71401724049577 0.0
vertex 9.89949493661167 -9.89949493661166 0.0
vertex 1.8 -6.71401724049577 0.0
endloop
endfacet
facet normal -0.0 -0.0 1.0
outer loop
vertex 1.8 -6.71401724049577 0.0
vertex 9.89949493661167 -9.89949493661166 0.0
vertex 1.875 -3.24759526419164 0.0
endloop
endfacet
facet normal -0.0 -0.0 1.0
outer loop
vertex 1.875 -3.24759526419164 0.0
vertex 9.89949493661167 -9.89949493661166 0.0
vertex 2.65165042944955 -2.65165042944955 0.0
endloop
endfacet
facet normal -0.0 -0.0 1.0
outer loop
vertex 2.65165042944955 -2.65165042944955 0.0
vertex 9.89949493661167 -9.89949493661166 0.0
vertex 3.24759526419165 -1.875 0.0
endloop
endfacet
facet normal -0.0 -0.0 1.0
outer loop
vertex 3.24759526419165 -1.875 0.0
vertex 9.89949493661167 -9.89949493661166 0.0
vertex 3.62222184858401 -0.970571419134452 0.0
endloop
endfacet
facet normal -0.0 -0.0 1.0
outer loop
vertex 3.62222184858401 -0.970571419134452 0.0
vertex 9.89949493661167 -9.89949493661166 0.0
vertex 3.75 2.29621274840129e-16 0.0
endloop
endfacet
facet normal -0.0 -0.0 1.0
outer loop
vertex -9.89949493661167 9.89949493661166 0.0
vertex -1.875 3.24759526419164 0.0
vertex 9.89949493661167 9.89949493661167 0.0
endloop
endfacet
facet normal -0.0 -0.0 1.0
outer loop
vertex -1.875 3.24759526419164 0.0
vertex -9.89949493661167 9.89949493661166 0.0
vertex -2.65165042944955 2.65165042944955 0.0
endloop
endfacet
facet normal -0.0 -0.0 1.0
outer loop
vertex -2.65165042944955 2.65165042944955 0.0
vertex -9.89949493661167 9.89949493661166 0.0
vertex -3.24759526419165 1.875 0.0
endloop
endfacet
facet normal -0.0 -0.0 1.0
outer loop
vertex -3.24759526419165 1.875 0.0
vertex -9.89949493661167 9.89949493661166 0.0
vertex -9.89949493661167 -9.89949493661167 0.0
endloop
endfacet
facet normal -0.0 -0.0 1.0
outer loop
vertex -3.24759526419165 1.875 0.0
vertex -9.89949493661167 -9.89949493661167 0.0
vertex -3.62222184858401 0.970571419134451 0.0
endloop
endfacet
facet normal -0.0 -0.0 1.0
outer loop
vertex -3.62222184858401 0.970571419134451 0.0
vertex -9.89949493661167 -9.89949493661167 0.0
vertex -3.75 -6.88863824520386e-16 0.0
endloop
endfacet
facet normal -0.0 -0.0 1.0
outer loop
vertex 9.89949493661167 9.89949493661167 0.0
vertex -1.875 3.24759526419164 0.0
vertex -0.970571419134456 3.62222184858401 0.0
endloop
endfacet
facet normal -0.0 -0.0 1.0
outer loop
vertex 9.89949493661167 9.89949493661167 0.0
vertex -0.970571419134456 3.62222184858401 0.0
vertex 0.0 3.75 0.0
endloop
endfacet
facet normal -0.0 -0.0 1.0
outer loop
vertex 9.89949493661167 9.89949493661167 0.0
vertex 0.0 3.75 0.0
vertex 0.970571419134453 3.62222184858401 0.0
endloop
endfacet
facet normal -0.0 -0.0 1.0
outer loop
vertex 9.89949493661167 9.89949493661167 0.0
vertex 0.970571419134453 3.62222184858401 0.0
vertex 1.875 3.24759526419165 0.0
endloop
endfacet
facet normal -0.0 -0.0 1.0
outer loop
vertex 9.89949493661167 9.89949493661167 0.0
vertex 1.875 3.24759526419165 0.0
vertex 2.65165042944955 2.65165042944955 0.0
endloop
endfacet
facet normal -0.0 -0.0 1.0
outer loop
vertex 9.89949493661167 9.89949493661167 0.0
vertex 2.65165042944955 2.65165042944955 0.0
vertex 3.24759526419164 1.875 0.0
endloop
endfacet
facet normal -0.0 -0.0 1.0
outer loop
vertex 9.89949493661167 9.89949493661167 0.0
vertex 3.24759526419164 1.875 0.0
vertex 3.62222184858401 0.970571419134454 0.0
endloop
endfacet
facet normal -0.0 -0.0 1.0
outer loop
vertex 9.89949493661167 9.89949493661167 0.0
vertex 3.62222184858401 0.970571419134454 0.0
vertex 3.75 2.29621274840129e-16 0.0
endloop
endfacet
facet normal -0.0 -0.0 1.0
outer loop
vertex 9.89949493661167 9.89949493661167 0.0
vertex 3.75 2.29621274840129e-16 0.0
vertex 9.89949493661167 -9.89949493661166 0.0
endloop
endfacet
facet normal -0.0 -0.0 1.0
outer loop
vertex -1.875 -3.24759526419165 0.0
vertex -1.8 -6.71401724049577 0.0
vertex -0.970571419134451 -3.62222184858401 0.0
endloop
endfacet
facet normal -0.0 -0.0 1.0
outer loop
vertex -1.8 -6.71401724049577 0.0
vertex -1.875 -3.24759526419165 0.0
vertex -1.8 -8.71401724049577 0.0
endloop
endfacet
facet normal -0.0 -0.0 1.0
outer loop
vertex -0.970571419134451 -3.62222184858401 0.0
vertex -1.8 -6.71401724049577 0.0
vertex 1.8 -6.71401724049577 0.0
endloop
endfacet
facet normal -0.0 -0.0 1.0
outer loop
vertex -0.970571419134451 -3.62222184858401 0.0
vertex 1.8 -6.71401724049577 0.0
vertex 4.59242549680257e-16 -3.75 0.0
endloop
endfacet
facet normal -0.0 -0.0 1.0
outer loop
vertex 4.59242549680257e-16 -3.75 0.0
vertex 1.8 -6.71401724049577 0.0
vertex 0.970571419134454 -3.62222184858401 0.0
endloop
endfacet
facet normal -0.0 -0.0 1.0
outer loop
vertex 0.970571419134454 -3.62222184858401 0.0
vertex 1.8 -6.71401724049577 0.0
vertex 1.875 -3.24759526419164 0.0
endloop
endfacet
facet normal -0.0 -0.0 -1.0
outer loop
vertex -0.970571419134451 -3.62222184858401 -3.0
vertex -1.8 -6.71401724049577 -3.0
vertex -1.875 -3.24759526419165 -3.0
endloop
endfacet
facet normal -0.0 -0.0 -1.0
outer loop
vertex -1.8 -6.71401724049577 -3.0
vertex -0.970571419134451 -3.62222184858401 -3.0
vertex 1.8 -6.71401724049577 -3.0
endloop
endfacet
facet normal -0.0 -0.0 -1.0
outer loop
vertex 1.8 -6.71401724049577 -3.0
vertex -0.970571419134451 -3.62222184858401 -3.0
vertex 4.59242549680257e-16 -3.75 -3.0
endloop
endfacet
facet normal -0.0 -0.0 -1.0
outer loop
vertex 1.8 -6.71401724049577 -3.0
vertex 4.59242549680257e-16 -3.75 -3.0
vertex 0.970571419134454 -3.62222184858401 -3.0
endloop
endfacet
facet normal -0.0 -0.0 -1.0
outer loop
vertex 1.8 -6.71401724049577 -3.0
vertex 0.970571419134454 -3.62222184858401 -3.0
vertex 1.875 -3.24759526419164 -3.0
endloop
endfacet
facet normal -0.0 -0.0 -1.0
outer loop
vertex 1.8 -6.71401724049577 -3.0
vertex 1.875 -3.24759526419164 -3.0
vertex 1.8 -8.71401724049577 -3.0
endloop
endfacet
facet normal -0.0 -0.0 -1.0
outer loop
vertex -9.89949493661167 9.89949493661166 -3.0
vertex -3.24759526419165 1.875 -3.0
vertex -9.89949493661167 -9.89949493661167 -3.0
endloop
endfacet
facet normal -0.0 -0.0 -1.0
outer loop
vertex -3.24759526419165 1.875 -3.0
vertex -9.89949493661167 9.89949493661166 -3.0
vertex -2.65165042944955 2.65165042944955 -3.0
endloop
endfacet
facet normal -0.0 -0.0 -1.0
outer loop
vertex -2.65165042944955 2.65165042944955 -3.0
vertex -9.89949493661167 9.89949493661166 -3.0
vertex -1.875 3.24759526419164 -3.0
endloop
endfacet
facet normal -0.0 -0.0 -1.0
outer loop
vertex -1.875 3.24759526419164 -3.0
vertex -9.89949493661167 9.89949493661166 -3.0
vertex 9.89949493661167 9.89949493661167 -3.0
endloop
endfacet
facet normal -0.0 -0.0 -1.0
outer loop
vertex -9.89949493661167 -9.89949493661167 -3.0
vertex -3.24759526419165 1.875 -3.0
vertex -3.62222184858401 0.970571419134451 -3.0
endloop
endfacet
facet normal -0.0 -0.0 -1.0
outer loop
vertex -9.89949493661167 -9.89949493661167 -3.0
vertex -3.62222184858401 0.970571419134451 -3.0
vertex -3.75 -6.88863824520386e-16 -3.0
endloop
endfacet
facet normal -0.0 -0.0 -1.0
outer loop
vertex -1.875 3.24759526419164 -3.0
vertex 9.89949493661167 9.89949493661167 -3.0
vertex -0.970571419134456 3.62222184858401 -3.0
endloop
endfacet
facet normal -0.0 -0.0 -1.0
outer loop
vertex -0.970571419134456 3.62222184858401 -3.0
vertex 9.89949493661167 9.89949493661167 -3.0
vertex 0.0 3.75 -3.0
endloop
endfacet
facet normal -0.0 -0.0 -1.0
outer loop
vertex 0.0 3.75 -3.0
vertex 9.89949493661167 9.89949493661167 -3.0
vertex 0.970571419134453 3.62222184858401 -3.0
endloop
endfacet
facet normal -0.0 -0.0 -1.0
outer loop
vertex 0.970571419134453 3.62222184858401 -3.0
vertex 9.89949493661167 9.89949493661167 -3.0
vertex 1.875 3.24759526419165 -3.0
endloop
endfacet
facet normal -0.0 -0.0 -1.0
outer loop
vertex 1.875 3.24759526419165 -3.0
vertex 9.89949493661167 9.89949493661167 -3.0
vertex 2.65165042944955 2.65165042944955 -3.0
endloop
endfacet
facet normal -0.0 -0.0 -1.0
outer loop
vertex 2.65165042944955 2.65165042944955 -3.0
vertex 9.89949493661167 9.89949493661167 -3.0
vertex 3.24759526419164 1.875 -3.0
endloop
endfacet
facet normal -0.0 -0.0 -1.0
outer loop
vertex 3.24759526419164 1.875 -3.0
vertex 9.89949493661167 9.89949493661167 -3.0
vertex 3.62222184858401 0.970571419134454 -3.0
endloop
endfacet
facet normal -0.0 -0.0 -1.0
outer loop
vertex 3.62222184858401 0.970571419134454 -3.0
vertex 9.89949493661167 9.89949493661167 -3.0
vertex 3.75 2.29621274840129e-16 -3.0
endloop
endfacet
facet normal -0.0 -0.0 -1.0
outer loop
vertex 3.75 2.29621274840129e-16 -3.0
vertex 9.89949493661167 9.89949493661167 -3.0
vertex 9.89949493661167 -9.89949493661166 -3.0
endloop
endfacet
facet normal -0.0 -0.0 -1.0
outer loop
vertex -9.89949493661167 -9.89949493661167 -3.0
vertex -1.8 -8.71401724049577 -3.0
vertex 9.89949493661167 -9.89949493661166 -3.0
endloop
endfacet
facet normal -0.0 -0.0 -1.0
outer loop
vertex -1.8 -8.71401724049577 -3.0
vertex -9.89949493661167 -9.89949493661167 -3.0
vertex -3.62222184858401 -0.970571419134455 -3.0
endloop
endfacet
facet normal -0.0 -0.0 -1.0
outer loop
vertex -3.62222184858401 -0.970571419134455 -3.0
vertex -9.89949493661167 -9.89949493661167 -3.0
vertex -3.75 -6.88863824520386e-16 -3.0
endloop
endfacet
facet normal -0.0 -0.0 -1.0
outer loop
vertex -1.8 -8.71401724049577 -3.0
vertex -3.62222184858401 -0.970571419134455 -3.0
vertex -3.24759526419164 -1.875 -3.0
endloop
endfacet
facet normal -0.0 -0.0 -1.0
outer loop
vertex -1.8 -8.71401724049577 -3.0
vertex -3.24759526419164 -1.875 -3.0
vertex -2.65165042944955 -2.65165042944956 -3.0
endloop
endfacet
facet normal -0.0 -0.0 -1.0
outer loop
vertex -1.8 -8.71401724049577 -3.0
vertex -2.65165042944955 -2.65165042944956 -3.0
vertex -1.875 -3.24759526419165 -3.0
endloop
endfacet
facet normal -0.0 -0.0 -1.0
outer loop
vertex -1.8 -8.71401724049577 -3.0
vertex -1.875 -3.24759526419165 -3.0
vertex -1.8 -6.71401724049577 -3.0
endloop
endfacet
facet normal -0.0 -0.0 -1.0
outer loop
vertex 9.89949493661167 -9.89949493661166 -3.0
vertex -1.8 -8.71401724049577 -3.0
vertex 1.8 -8.71401724049577 -3.0
endloop
endfacet
facet normal -0.0 -0.0 -1.0
outer loop
vertex 9.89949493661167 -9.89949493661166 -3.0
vertex 1.8 -8.71401724049577 -3.0
vertex 1.875 -3.24759526419164 -3.0
endloop
endfacet
facet normal -0.0 -0.0 -1.0
outer loop
vertex 9.89949493661167 -9.89949493661166 -3.0
vertex 1.875 -3.24759526419164 -3.0
vertex 2.65165042944955 -2.65165042944955 -3.0
endloop
endfacet
facet normal -0.0 -0.0 -1.0
outer loop
vertex 9.89949493661167 -9.89949493661166 -3.0
vertex 2.65165042944955 -2.65165042944955 -3.0
vertex 3.24759526419165 -1.875 -3.0
endloop
endfacet
facet normal -0.0 -0.0 -1.0
outer loop
vertex 9.89949493661167 -9.89949493661166 -3.0
vertex 3.24759526419165 -1.875 -3.0
vertex 3.62222184858401 -0.970571419134452 -3.0
endloop
endfacet
facet normal -0.0 -0.0 -1.0
outer loop
vertex 9.89949493661167 -9.89949493661166 -3.0
vertex 3.62222184858401 -0.970571419134452 -3.0
vertex 3.75 2.29621274840129e-16 -3.0
endloop
endfacet
facet normal 2.13644723842328e-16 -1.0 0.0
outer loop
vertex 9.89949493661167 -9.89949493661166 0.0
vertex -9.89949493661167 -9.89949493661167 -3.0
vertex 9.89949493661167 -9.89949493661166 -3.0
endloop
endfacet
facet normal 2.13644723842328e-16 -1.0 0.0
outer loop
vertex -9.89949493661167 -9.89949493661167 -3.0
vertex 9.89949493661167 -9.89949493661166 0.0
vertex -9.89949493661167 -9.89949493661167 0.0
endloop
endfacet
facet normal 1.0 -7.12149079474427e-17 0.0
outer loop
vertex 9.89949493661167 9.89949493661167 -3.0
vertex 9.89949493661167 -9.89949493661166 0.0
vertex 9.89949493661167 -9.89949493661166 -3.0
endloop
endfacet
facet normal 1.0 -7.12149079474427e-17 0.0
outer loop
vertex 9.89949493661167 -9.89949493661166 0.0
vertex 9.89949493661167 9.89949493661167 -3.0
vertex 9.89949493661167 9.89949493661167 0.0
endloop
endfacet
facet normal -2.13644723842328e-16 1.0 0.0
outer loop
vertex -9.89949493661167 9.89949493661166 0.0
vertex 9.89949493661167 9.89949493661167 -3.0
vertex -9.89949493661167 9.89949493661166 -3.0
endloop
endfacet
facet normal -2.13644723842328e-16 1.0 0.0
outer loop
vertex 9.89949493661167 9.89949493661167 -3.0
vertex -9.89949493661167 9.89949493661166 0.0
vertex 9.89949493661167 9.89949493661167 0.0
endloop
endfacet
facet normal -1.0 -7.12149079474427e-17 -0.0
outer loop
vertex -9.89949493661167 9.89949493661166 0.0
vertex -9.89949493661167 -9.89949493661167 -3.0
vertex -9.89949493661167 -9.89949493661167 0.0
endloop
endfacet
facet normal -1.0 -7.12149079474427e-17 -0.0
outer loop
vertex -9.89949493661167 -9.89949493661167 -3.0
vertex -9.89949493661167 9.89949493661166 0.0
vertex -9.89949493661167 9.89949493661166 -3.0
endloop
endfacet
facet normal 0.0 -1.0 0.0
outer loop
vertex 1.8 -6.71401724049577 0.0
vertex -1.8 -6.71401724049577 -3.0
vertex 1.8 -6.71401724049577 -3.0
endloop
endfacet
facet normal 0.0 -1.0 0.0
outer loop
vertex -1.8 -6.71401724049577 -3.0
vertex 1.8 -6.71401724049577 0.0
vertex -1.8 -6.71401724049577 0.0
endloop
endfacet
facet normal -1.0 -0.0 -0.0
outer loop
vertex 1.8 -6.71401724049577 0.0
vertex 1.8 -8.71401724049577 -3.0
vertex 1.8 -8.71401724049577 0.0
endloop
endfacet
facet normal -1.0 -0.0 -0.0
outer loop
vertex 1.8 -8.71401724049577 -3.0
vertex 1.8 -6.71401724049577 0.0
vertex 1.8 -6.71401724049577 -3.0
endloop
endfacet
facet normal 0.0 1.0 0.0
outer loop
vertex -1.8 -8.71401724049577 0.0
vertex 1.8 -8.71401724049577 -3.0
vertex -1.8 -8.71401724049577 -3.0
endloop
endfacet
facet normal 0.0 1.0 0.0
outer loop
vertex 1.8 -8.71401724049577 -3.0
vertex -1.8 -8.71401724049577 0.0
vertex 1.8 -8.71401724049577 0.0
endloop
endfacet
facet normal 1.0 0.0 0.0
outer loop
vertex -1.8 -6.71401724049577 -3.0
vertex -1.8 -8.71401724049577 0.0
vertex -1.8 -8.71401724049577 -3.0
endloop
endfacet
facet normal 1.0 0.0 0.0
outer loop
vertex -1.8 -8.71401724049577 0.0
vertex -1.8 -6.71401724049577 -3.0
vertex -1.8 -6.71401724049577 0.0
endloop
endfacet
facet normal -0.866025403784439 0.5 0.0
outer loop
vertex 3.24759526419165 -1.875 0.0
vertex 2.65165042944955 -2.65165042944955 -3.0
vertex 2.65165042944955 -2.65165042944955 0.0
endloop
endfacet
facet normal -0.707106781186548 0.707106781186547 0.0
outer loop
vertex 2.65165042944955 -2.65165042944955 -3.0
vertex 3.24759526419165 -1.875 0.0
vertex 3.24759526419165 -1.875 -3.0
endloop
endfacet
facet normal -0.965925826289068 0.258819045102521 0.0
outer loop
vertex 3.62222184858401 -0.970571419134452 0.0
vertex 3.24759526419165 -1.875 -3.0
vertex 3.24759526419165 -1.875 0.0
endloop
endfacet
facet normal -0.866025403784439 0.5 0.0
outer loop
vertex 3.24759526419165 -1.875 -3.0
vertex 3.62222184858401 -0.970571419134452 0.0
vertex 3.62222184858401 -0.970571419134452 -3.0
endloop
endfacet
facet normal -1.0 6.23777692695283e-17 0.0
outer loop
vertex 3.75 2.29621274840129e-16 0.0
vertex 3.62222184858401 -0.970571419134452 -3.0
vertex 3.62222184858401 -0.970571419134452 0.0
endloop
endfacet
facet normal -0.965925826289068 0.258819045102521 0.0
outer loop
vertex 3.62222184858401 -0.970571419134452 -3.0
vertex 3.75 2.29621274840129e-16 0.0
vertex 3.75 2.29621274840129e-16 -3.0
endloop
endfacet
facet normal -0.965925826289068 -0.258819045102521 0.0
outer loop
vertex 3.62222184858401 0.970571419134454 0.0
vertex 3.75 2.29621274840129e-16 -3.0
vertex 3.75 2.29621274840129e-16 0.0
endloop
endfacet
facet normal -1.0 6.23777692695283e-17 0.0
outer loop
vertex 3.75 2.29621274840129e-16 -3.0
vertex 3.62222184858401 0.970571419134454 0.0
vertex 3.62222184858401 0.970571419134454 -3.0
endloop
endfacet
facet normal -0.866025403784439 -0.5 0.0
outer loop
vertex 3.24759526419164 1.875 0.0
vertex 3.62222184858401 0.970571419134454 -3.0
vertex 3.62222184858401 0.970571419134454 0.0
endloop
endfacet
facet normal -0.965925826289068 -0.258819045102521 0.0
outer loop
vertex 3.62222184858401 0.970571419134454 -3.0
vertex 3.24759526419164 1.875 0.0
vertex 3.24759526419164 1.875 -3.0
endloop
endfacet
facet normal -0.707106781186548 -0.707106781186547 0.0
outer loop
vertex 2.65165042944955 2.65165042944955 0.0
vertex 3.24759526419164 1.875 -3.0
vertex 3.24759526419164 1.875 0.0
endloop
endfacet
facet normal -0.866025403784439 -0.5 0.0
outer loop
vertex 3.24759526419164 1.875 -3.0
vertex 2.65165042944955 2.65165042944955 0.0
vertex 2.65165042944955 2.65165042944955 -3.0
endloop
endfacet
facet normal -0.707106781186548 -0.707106781186547 0.0
outer loop
vertex 2.65165042944955 2.65165042944955 0.0
vertex 1.875 3.24759526419165 -3.0
vertex 2.65165042944955 2.65165042944955 -3.0
endloop
endfacet
facet normal -0.5 -0.866025403784439 0.0
outer loop
vertex 1.875 3.24759526419165 -3.0
vertex 2.65165042944955 2.65165042944955 0.0
vertex 1.875 3.24759526419165 0.0
endloop
endfacet
facet normal -0.5 -0.866025403784439 0.0
outer loop
vertex 1.875 3.24759526419165 0.0
vertex 0.970571419134453 3.62222184858401 -3.0
vertex 1.875 3.24759526419165 -3.0
endloop
endfacet
facet normal -0.258819045102521 -0.965925826289068 0.0
outer loop
vertex 0.970571419134453 3.62222184858401 -3.0
vertex 1.875 3.24759526419165 0.0
vertex 0.970571419134453 3.62222184858401 0.0
endloop
endfacet
facet normal -0.258819045102521 -0.965925826289068 0.0
outer loop
vertex 0.970571419134453 3.62222184858401 0.0
vertex 0.0 3.75 -3.0
vertex 0.970571419134453 3.62222184858401 -3.0
endloop
endfacet
facet normal 1.69311088017291e-16 -1.0 0.0
outer loop
vertex 0.0 3.75 -3.0
vertex 0.970571419134453 3.62222184858401 0.0
vertex 0.0 3.75 0.0
endloop
endfacet
facet normal 1.69311088017291e-16 -1.0 0.0
outer loop
vertex 0.0 3.75 0.0
vertex -0.970571419134456 3.62222184858401 -3.0
vertex 0.0 3.75 -3.0
endloop
endfacet
facet normal 0.258819045102521 -0.965925826289068 0.0
outer loop
vertex -0.970571419134456 3.62222184858401 -3.0
vertex 0.0 3.75 0.0
vertex -0.970571419134456 3.62222184858401 0.0
endloop
endfacet
facet normal 0.258819045102521 -0.965925826289068 0.0
outer loop
vertex -0.970571419134456 3.62222184858401 0.0
vertex -1.875 3.24759526419164 -3.0
vertex -0.970571419134456 3.62222184858401 -3.0
endloop
endfacet
facet normal 0.5 -0.866025403784439 0.0
outer loop
vertex -1.875 3.24759526419164 -3.0
vertex -0.970571419134456 3.62222184858401 0.0
vertex -1.875 3.24759526419164 0.0
endloop
endfacet
facet normal 0.5 -0.866025403784439 0.0
outer loop
vertex -1.875 3.24759526419164 0.0
vertex -2.65165042944955 2.65165042944955 -3.0
vertex -1.875 3.24759526419164 -3.0
endloop
endfacet
facet normal 0.707106781186548 -0.707106781186547 0.0
outer loop
vertex -2.65165042944955 2.65165042944955 -3.0
vertex -1.875 3.24759526419164 0.0
vertex -2.65165042944955 2.65165042944955 0.0
endloop
endfacet
facet normal 0.707106781186548 -0.707106781186547 0.0
outer loop
vertex -2.65165042944955 2.65165042944955 -3.0
vertex -3.24759526419165 1.875 0.0
vertex -3.24759526419165 1.875 -3.0
endloop
endfacet
facet normal 0.866025403784439 -0.5 0.0
outer loop
vertex -3.24759526419165 1.875 0.0
vertex -2.65165042944955 2.65165042944955 -3.0
vertex -2.65165042944955 2.65165042944955 0.0
endloop
endfacet
facet normal 0.866025403784439 -0.5 0.0
outer loop
vertex -3.24759526419165 1.875 -3.0
vertex -3.62222184858401 0.970571419134451 0.0
vertex -3.62222184858401 0.970571419134451 -3.0
endloop
endfacet
facet normal 0.965925826289068 -0.25881904510252 0.0
outer loop
vertex -3.62222184858401 0.970571419134451 0.0
vertex -3.24759526419165 1.875 -3.0
vertex -3.24759526419165 1.875 0.0
endloop
endfacet
facet normal 0.965925826289068 -0.25881904510252 0.0
outer loop
vertex -3.62222184858401 0.970571419134451 -3.0
vertex -3.75 -6.88863824520386e-16 0.0
vertex -3.75 -6.88863824520386e-16 -3.0
endloop
endfacet
facet normal 1.0 5.34666593738814e-16 0.0
outer loop
vertex -3.75 -6.88863824520386e-16 0.0
vertex -3.62222184858401 0.970571419134451 -3.0
vertex -3.62222184858401 0.970571419134451 0.0
endloop
endfacet
facet normal 1.0 5.34666593738814e-16 0.0
outer loop
vertex -3.75 -6.88863824520386e-16 -3.0
vertex -3.62222184858401 -0.970571419134455 0.0
vertex -3.62222184858401 -0.970571419134455 -3.0
endloop
endfacet
facet normal 0.965925826289068 0.258819045102521 0.0
outer loop
vertex -3.62222184858401 -0.970571419134455 0.0
vertex -3.75 -6.88863824520386e-16 -3.0
vertex -3.75 -6.88863824520386e-16 0.0
endloop
endfacet
facet normal 0.965925826289068 0.258819045102521 0.0
outer loop
vertex -3.62222184858401 -0.970571419134455 -3.0
vertex -3.24759526419164 -1.875 0.0
vertex -3.24759526419164 -1.875 -3.0
endloop
endfacet
facet normal 0.866025403784438 0.5 0.0
outer loop
vertex -3.24759526419164 -1.875 0.0
vertex -3.62222184858401 -0.970571419134455 -3.0
vertex -3.62222184858401 -0.970571419134455 0.0
endloop
endfacet
facet normal 0.866025403784438 0.5 0.0
outer loop
vertex -3.24759526419164 -1.875 -3.0
vertex -2.65165042944955 -2.65165042944956 0.0
vertex -2.65165042944955 -2.65165042944956 -3.0
endloop
endfacet
facet normal 0.707106781186547 0.707106781186548 0.0
outer loop
vertex -2.65165042944955 -2.65165042944956 0.0
vertex -3.24759526419164 -1.875 -3.0
vertex -3.24759526419164 -1.875 0.0
endloop
endfacet
facet normal 0.707106781186547 0.707106781186548 0.0
outer loop
vertex -2.65165042944955 -2.65165042944956 0.0
vertex -1.875 -3.24759526419165 -3.0
vertex -2.65165042944955 -2.65165042944956 -3.0
endloop
endfacet
facet normal 0.5 0.866025403784439 0.0
outer loop
vertex -1.875 -3.24759526419165 -3.0
vertex -2.65165042944955 -2.65165042944956 0.0
vertex -1.875 -3.24759526419165 0.0
endloop
endfacet
facet normal 0.5 0.866025403784439 0.0
outer loop
vertex -1.875 -3.24759526419165 0.0
vertex -0.970571419134451 -3.62222184858401 -3.0
vertex -1.875 -3.24759526419165 -3.0
endloop
endfacet
facet normal 0.25881904510252 0.965925826289068 0.0
outer loop
vertex -0.970571419134451 -3.62222184858401 -3.0
vertex -1.875 -3.24759526419165 0.0
vertex -0.970571419134451 -3.62222184858401 0.0
endloop
endfacet
facet normal 0.25881904510252 0.965925826289068 0.0
outer loop
vertex -0.970571419134451 -3.62222184858401 0.0
vertex 4.59242549680257e-16 -3.75 -3.0
vertex -0.970571419134451 -3.62222184858401 -3.0
endloop
endfacet
facet normal -2.67333296869407e-16 1.0 0.0
outer loop
vertex 4.59242549680257e-16 -3.75 -3.0
vertex -0.970571419134451 -3.62222184858401 0.0
vertex 4.59242549680257e-16 -3.75 0.0
endloop
endfacet
facet normal -2.67333296869407e-16 1.0 0.0
outer loop
vertex 4.59242549680257e-16 -3.75 0.0
vertex 0.970571419134454 -3.62222184858401 -3.0
vertex 4.59242549680257e-16 -3.75 -3.0
endloop
endfacet
facet normal -0.258819045102521 0.965925826289068 0.0
outer loop
vertex 0.970571419134454 -3.62222184858401 -3.0
vertex 4.59242549680257e-16 -3.75 0.0
vertex 0.970571419134454 -3.62222184858401 0.0
endloop
endfacet
facet normal -0.258819045102521 0.965925826289068 0.0
outer loop
vertex 0.970571419134454 -3.62222184858401 0.0
vertex 1.875 -3.24759526419164 -3.0
vertex 0.970571419134454 -3.62222184858401 -3.0
endloop
endfacet
facet normal -0.5 0.866025403784438 0.0
outer loop
vertex 1.875 -3.24759526419164 -3.0
vertex 0.970571419134454 -3.62222184858401 0.0
vertex 1.875 -3.24759526419164 0.0
endloop
endfacet
facet normal -0.5 0.866025403784438 0.0
outer loop
vertex 1.875 -3.24759526419164 0.0
vertex 2.65165042944955 -2.65165042944955 -3.0
vertex 1.875 -3.24759526419164 -3.0
endloop
endfacet
facet normal -0.707106781186548 0.707106781186547 0.0
outer loop
vertex 2.65165042944955 -2.65165042944955 -3.0
vertex 1.875 -3.24759526419164 0.0
vertex 2.65165042944955 -2.65165042944955 0.0
endloop
endfacet
endsolid pot-hole
